STARTFONT 2.1
FONT -Efont-Fixed-Bold-R-Normal--12-120-75-75-C-120-ISO10646-1
SIZE 12 75 75
FONTBOUNDINGBOX 12 12 0 -2
STARTPROPERTIES 18
COPYRIGHT "(c) Copyright 2000-2003 /efont/ The Electronic Font Open Laboratory."
FOUNDRY "Efont"
FAMILY_NAME "Fixed"
WEIGHT_NAME "Bold"
SLANT "R"
SETWIDTH_NAME "Normal"
ADD_STYLE_NAME ""
PIXEL_SIZE 12
POINT_SIZE 120
RESOLUTION_X 75
RESOLUTION_Y 75
AVERAGE_WIDTH 120
CHARSET_REGISTRY "ISO10646"
CHARSET_ENCODING "1"
_MULE_BASELINE_OFFSET -3
FONT_ASCENT 10
FONT_DESCENT 2
DEFAULT_CHAR 12288
ENDPROPERTIES
CHARS 21527
STARTCHAR U+005C
ENCODING 92
SWIDTH 1000 0
DWIDTH 12 0
BBX 12 12 0 -2
BITMAP 
8000
c000
6000
3000
1800
0c00
0600
0300
0180
00c0
0060
0030
ENDCHAR
STARTCHAR U+00A0
ENCODING 160
SWIDTH 1000 0
DWIDTH 12 0
BBX 12 12 0 -2
BITMAP 
0000
0000
0000
0000
0000
0000
0000
0000
0000
0000
0000
aaa0
ENDCHAR
STARTCHAR U+00A1
ENCODING 161
SWIDTH 1000 0
DWIDTH 12 0
BBX 12 12 0 -2
BITMAP 
0300
0300
0000
0300
0300
0300
0300
0300
0300
0300
0000
0000
ENDCHAR
STARTCHAR U+00A2
ENCODING 162
SWIDTH 1000 0
DWIDTH 12 0
BBX 12 12 0 -2
BITMAP 
0000
0000
0000
0c00
3c00
6e00
eb00
e800
eb00
7600
3c00
3000
ENDCHAR
STARTCHAR U+00A3
ENCODING 163
SWIDTH 1000 0
DWIDTH 12 0
BBX 12 12 0 -2
BITMAP 
0000
0700
0d80
0c00
1c00
1c00
ff00
1c00
7860
dec0
7780
0000
ENDCHAR
STARTCHAR U+00A4
ENCODING 164
SWIDTH 1000 0
DWIDTH 12 0
BBX 12 12 0 -2
BITMAP 
6030
3760
1dc0
18c0
3060
3060
18c0
1dc0
3760
6030
0000
0000
ENDCHAR
STARTCHAR U+00A5
ENCODING 165
SWIDTH 1000 0
DWIDTH 12 0
BBX 12 12 0 -2
BITMAP 
0000
f9f0
30c0
1980
7fe0
0d00
0600
7fe0
0600
0600
1f80
0000
ENDCHAR
STARTCHAR U+00A6
ENCODING 166
SWIDTH 1000 0
DWIDTH 12 0
BBX 12 12 0 -2
BITMAP 
0000
0000
0600
0600
0600
0600
0000
0600
0600
0600
0600
0000
ENDCHAR
STARTCHAR U+00A7
ENCODING 167
SWIDTH 1000 0
DWIDTH 12 0
BBX 12 12 0 -2
BITMAP 
1e00
3300
3800
1c00
1e00
3700
3b00
1e00
0e00
0700
3300
1e00
ENDCHAR
STARTCHAR U+00A8
ENCODING 168
SWIDTH 1000 0
DWIDTH 12 0
BBX 12 12 0 -2
BITMAP 
3b80
3b80
0000
0000
0000
0000
0000
0000
0000
0000
0000
0000
ENDCHAR
STARTCHAR U+00A9
ENCODING 169
SWIDTH 1000 0
DWIDTH 12 0
BBX 12 12 0 -2
BITMAP 
0000
1f80
30c0
6f60
d9d0
d8d0
d830
d8d0
d9b0
6f60
30c0
1f80
ENDCHAR
STARTCHAR U+00AA
ENCODING 170
SWIDTH 1000 0
DWIDTH 12 0
BBX 12 12 0 -2
BITMAP 
0000
0700
0d80
0780
0d80
0740
0000
0fc0
0000
0000
0000
0000
ENDCHAR
STARTCHAR U+00AB
ENCODING 171
SWIDTH 1000 0
DWIDTH 12 0
BBX 12 12 0 -2
BITMAP 
0000
0000
0000
0000
0000
0360
06c0
0ec0
06c0
0360
0000
0000
ENDCHAR
STARTCHAR U+00AC
ENCODING 172
SWIDTH 1000 0
DWIDTH 12 0
BBX 12 12 0 -2
BITMAP 
0000
0000
0000
0000
0000
ffe0
0060
0060
0060
0000
0000
0000
ENDCHAR
STARTCHAR U+00AD
ENCODING 173
SWIDTH 1000 0
DWIDTH 12 0
BBX 12 12 0 -2
BITMAP 
0000
0000
0000
0000
0fc0
0000
0000
0000
0000
0000
0000
0000
ENDCHAR
STARTCHAR U+00AE
ENCODING 174
SWIDTH 1000 0
DWIDTH 12 0
BBX 12 12 0 -2
BITMAP 
0000
1f80
30c0
7f60
ddb0
ddb0
df30
ddb0
ddb0
7ee0
30c0
1f80
ENDCHAR
STARTCHAR U+00AF
ENCODING 175
SWIDTH 1000 0
DWIDTH 12 0
BBX 12 12 0 -2
BITMAP 
0000
0000
1f80
0000
0000
0000
0000
0000
0000
0000
0000
0000
ENDCHAR
STARTCHAR U+00B0
ENCODING 176
SWIDTH 1000 0
DWIDTH 12 0
BBX 12 12 0 -2
BITMAP 
0000
7000
d800
d800
7000
0000
0000
0000
0000
0000
0000
0000
ENDCHAR
STARTCHAR U+00B1
ENCODING 177
SWIDTH 1000 0
DWIDTH 12 0
BBX 12 12 0 -2
BITMAP 
0000
0c00
0c00
0c00
0c00
ffc0
0c00
0c00
0c00
0000
ffc0
0000
ENDCHAR
STARTCHAR U+00B2
ENCODING 178
SWIDTH 1000 0
DWIDTH 12 0
BBX 12 12 0 -2
BITMAP 
3800
6c00
0c00
1800
3000
7c00
0000
0000
0000
0000
0000
0000
ENDCHAR
STARTCHAR U+00B3
ENCODING 179
SWIDTH 1000 0
DWIDTH 12 0
BBX 12 12 0 -2
BITMAP 
3800
6c00
1800
0c00
6c00
3800
0000
0000
0000
0000
0000
0000
ENDCHAR
STARTCHAR U+00B4
ENCODING 180
SWIDTH 1000 0
DWIDTH 12 0
BBX 12 12 0 -2
BITMAP 
0600
0c00
1800
0000
0000
0000
0000
0000
0000
0000
0000
0000
ENDCHAR
STARTCHAR U+00B6
ENCODING 182
SWIDTH 1000 0
DWIDTH 12 0
BBX 12 12 0 -2
BITMAP 
1f00
3d00
3d00
3d00
1d00
0d00
0d00
0d00
0d00
0d00
0d00
0000
ENDCHAR
STARTCHAR U+00B7
ENCODING 183
SWIDTH 1000 0
DWIDTH 12 0
BBX 12 12 0 -2
BITMAP 
0000
0000
0000
0000
0300
0000
0000
0000
0000
0000
0000
0000
ENDCHAR
STARTCHAR U+00B8
ENCODING 184
SWIDTH 1000 0
DWIDTH 12 0
BBX 12 12 0 -2
BITMAP 
0000
0000
0000
0000
0000
0000
0600
0700
0180
0f00
0000
0000
ENDCHAR
STARTCHAR U+00B9
ENCODING 185
SWIDTH 1000 0
DWIDTH 12 0
BBX 12 12 0 -2
BITMAP 
1800
3800
1800
1800
1800
1800
0000
0000
0000
0000
0000
0000
ENDCHAR
STARTCHAR U+00BA
ENCODING 186
SWIDTH 1000 0
DWIDTH 12 0
BBX 12 12 0 -2
BITMAP 
0000
0780
0cc0
0cc0
0cc0
0780
0000
0fc0
0000
0000
0000
0000
ENDCHAR
STARTCHAR U+00BB
ENCODING 187
SWIDTH 1000 0
DWIDTH 12 0
BBX 12 12 0 -2
BITMAP 
0000
0000
0000
0000
0000
0d80
06c0
0760
06c0
0d80
0000
0000
ENDCHAR
STARTCHAR U+00BC
ENCODING 188
SWIDTH 1000 0
DWIDTH 12 0
BBX 12 12 0 -2
BITMAP 
1800
3830
1860
18c0
1980
1b60
06e0
0ce0
19a0
31f0
6060
0000
ENDCHAR
STARTCHAR U+00BD
ENCODING 189
SWIDTH 1000 0
DWIDTH 12 0
BBX 12 12 0 -2
BITMAP 
1800
3830
1860
18c0
1980
1b60
06b0
0c30
1860
30c0
61f0
0000
ENDCHAR
STARTCHAR U+00BE
ENCODING 190
SWIDTH 1000 0
DWIDTH 12 0
BBX 12 12 0 -2
BITMAP 
3800
6c30
1860
0cc0
6d80
3b60
06e0
0ce0
19a0
31f0
6060
0000
ENDCHAR
STARTCHAR U+00BF
ENCODING 191
SWIDTH 1000 0
DWIDTH 12 0
BBX 12 12 0 -2
BITMAP 
0300
0300
0000
0300
0300
0600
0cc0
0cc0
0680
0300
0000
0000
ENDCHAR
STARTCHAR U+00C0
ENCODING 192
SWIDTH 1000 0
DWIDTH 12 0
BBX 12 12 0 -2
BITMAP 
0000
0c00
0600
0300
0f00
0d80
1b80
3f80
31c0
71c0
f9e0
0000
ENDCHAR
STARTCHAR U+00C1
ENCODING 193
SWIDTH 1000 0
DWIDTH 12 0
BBX 12 12 0 -2
BITMAP 
0000
0300
0600
0c00
0f00
0d80
1b80
3f80
31c0
71c0
f9e0
0000
ENDCHAR
STARTCHAR U+00C2
ENCODING 194
SWIDTH 1000 0
DWIDTH 12 0
BBX 12 12 0 -2
BITMAP 
0000
0600
0d00
1980
0f00
0d80
1b80
3f80
31c0
71c0
f9e0
0000
ENDCHAR
STARTCHAR U+00C3
ENCODING 195
SWIDTH 1000 0
DWIDTH 12 0
BBX 12 12 0 -2
BITMAP 
0000
1d80
3700
0000
0f00
0d80
1b80
3f80
31c0
71c0
f9e0
0000
ENDCHAR
STARTCHAR U+00C4
ENCODING 196
SWIDTH 1000 0
DWIDTH 12 0
BBX 12 12 0 -2
BITMAP 
0000
1d80
1d80
0000
0f00
0d80
1b80
3f80
31c0
71c0
f9e0
0000
ENDCHAR
STARTCHAR U+00C5
ENCODING 197
SWIDTH 1000 0
DWIDTH 12 0
BBX 12 12 0 -2
BITMAP 
0000
0e00
1b00
1b00
0f00
0d80
1b80
3f80
31c0
71c0
f9e0
0000
ENDCHAR
STARTCHAR U+00C6
ENCODING 198
SWIDTH 1000 0
DWIDTH 12 0
BBX 12 12 0 -2
BITMAP 
03e0
0700
0700
0d00
0dc0
1b00
1f00
3300
33e0
0000
0000
0000
ENDCHAR
STARTCHAR U+00C7
ENCODING 199
SWIDTH 1000 0
DWIDTH 12 0
BBX 12 12 0 -2
BITMAP 
0000
0f40
19c0
38c0
70c0
7000
7000
38c0
19c0
0f00
0600
1c00
ENDCHAR
STARTCHAR U+00C8
ENCODING 200
SWIDTH 1000 0
DWIDTH 12 0
BBX 12 12 0 -2
BITMAP 
0000
0c00
0600
7fc0
3860
3b00
3f00
3b00
3860
38c0
7fc0
0000
ENDCHAR
STARTCHAR U+00C9
ENCODING 201
SWIDTH 1000 0
DWIDTH 12 0
BBX 12 12 0 -2
BITMAP 
0000
0600
0c00
7fc0
3860
3b00
3f00
3b00
3860
38c0
7fc0
0000
ENDCHAR
STARTCHAR U+00CA
ENCODING 202
SWIDTH 1000 0
DWIDTH 12 0
BBX 12 12 0 -2
BITMAP 
0000
0e00
1b00
7fc0
3860
3b00
3f00
3b00
3860
38c0
7fc0
0000
ENDCHAR
STARTCHAR U+00CB
ENCODING 203
SWIDTH 1000 0
DWIDTH 12 0
BBX 12 12 0 -2
BITMAP 
0000
1d80
1d80
7fc0
3860
3b00
3f00
3b00
3860
38c0
7fc0
0000
ENDCHAR
STARTCHAR U+00CC
ENCODING 204
SWIDTH 1000 0
DWIDTH 12 0
BBX 12 12 0 -2
BITMAP 
0000
0c00
0600
1f00
0e00
0e00
0e00
0e00
0e00
0e00
1f00
0000
ENDCHAR
STARTCHAR U+00CD
ENCODING 205
SWIDTH 1000 0
DWIDTH 12 0
BBX 12 12 0 -2
BITMAP 
0000
0600
0c00
1f00
0e00
0e00
0e00
0e00
0e00
0e00
1f00
0000
ENDCHAR
STARTCHAR U+00CE
ENCODING 206
SWIDTH 1000 0
DWIDTH 12 0
BBX 12 12 0 -2
BITMAP 
0000
0600
0d00
1980
1f00
0e00
0e00
0e00
0e00
0e00
1f00
0000
ENDCHAR
STARTCHAR U+00CF
ENCODING 207
SWIDTH 1000 0
DWIDTH 12 0
BBX 12 12 0 -2
BITMAP 
0000
1d80
1d80
0000
1f00
0e00
0e00
0e00
0e00
0e00
1f00
0000
ENDCHAR
STARTCHAR U+00D0
ENCODING 208
SWIDTH 1000 0
DWIDTH 12 0
BBX 12 12 0 -2
BITMAP 
0f80
0cc0
0c60
3f60
0c60
0c60
0c60
0cc0
0f80
0000
0000
0000
ENDCHAR
STARTCHAR U+00D1
ENCODING 209
SWIDTH 1000 0
DWIDTH 12 0
BBX 12 12 0 -2
BITMAP 
0000
0ec0
1b80
78e0
3cc0
36c0
3740
3740
33c0
31c0
78c0
0000
ENDCHAR
STARTCHAR U+00D2
ENCODING 210
SWIDTH 1000 0
DWIDTH 12 0
BBX 12 12 0 -2
BITMAP 
0000
0c00
0600
0f00
39c0
70e0
70e0
70e0
70e0
39c0
0f00
0000
ENDCHAR
STARTCHAR U+00D3
ENCODING 211
SWIDTH 1000 0
DWIDTH 12 0
BBX 12 12 0 -2
BITMAP 
0000
0300
0600
0f00
39c0
70e0
70e0
70e0
70e0
39c0
0f00
0000
ENDCHAR
STARTCHAR U+00D4
ENCODING 212
SWIDTH 1000 0
DWIDTH 12 0
BBX 12 12 0 -2
BITMAP 
0000
0600
0d00
1980
0f00
39c0
70e0
70e0
70e0
39c0
0f00
0000
ENDCHAR
STARTCHAR U+00D5
ENCODING 213
SWIDTH 1000 0
DWIDTH 12 0
BBX 12 12 0 -2
BITMAP 
0000
1d80
3700
0f00
39c0
70e0
70e0
70e0
70e0
39c0
0f00
0000
ENDCHAR
STARTCHAR U+00D6
ENCODING 214
SWIDTH 1000 0
DWIDTH 12 0
BBX 12 12 0 -2
BITMAP 
0000
1d80
1d80
0f00
39c0
70e0
70e0
70e0
70e0
39c0
0f00
0000
ENDCHAR
STARTCHAR U+00D7
ENCODING 215
SWIDTH 1000 0
DWIDTH 12 0
BBX 12 12 0 -2
BITMAP 
0000
0000
60c0
3180
1b00
0e00
0e00
1b00
3180
60c0
0000
0000
ENDCHAR
STARTCHAR U+00D8
ENCODING 216
SWIDTH 1000 0
DWIDTH 12 0
BBX 12 12 0 -2
BITMAP 
0730
0da0
18c0
19c0
1b40
1ac0
1cc0
1d80
3700
0000
0000
0000
ENDCHAR
STARTCHAR U+00D9
ENCODING 217
SWIDTH 1000 0
DWIDTH 12 0
BBX 12 12 0 -2
BITMAP 
0000
0c00
0600
7be0
38c0
38c0
38c0
38c0
38c0
1dc0
0f00
0000
ENDCHAR
STARTCHAR U+00DA
ENCODING 218
SWIDTH 1000 0
DWIDTH 12 0
BBX 12 12 0 -2
BITMAP 
0000
0300
0600
7de0
38c0
38c0
38c0
38c0
38c0
1dc0
0f00
0000
ENDCHAR
STARTCHAR U+00DB
ENCODING 219
SWIDTH 1000 0
DWIDTH 12 0
BBX 12 12 0 -2
BITMAP 
0000
0600
0d00
79e0
38c0
38c0
38c0
38c0
38c0
1dc0
0f00
0000
ENDCHAR
STARTCHAR U+00DC
ENCODING 220
SWIDTH 1000 0
DWIDTH 12 0
BBX 12 12 0 -2
BITMAP 
0000
1d80
1d80
79e0
38c0
38c0
38c0
38c0
38c0
1dc0
0f00
0000
ENDCHAR
STARTCHAR U+00DD
ENCODING 221
SWIDTH 1000 0
DWIDTH 12 0
BBX 12 12 0 -2
BITMAP 
0000
0300
0600
7de0
38c0
1d80
1f00
0e00
0e00
0e00
1f00
0000
ENDCHAR
STARTCHAR U+00DE
ENCODING 222
SWIDTH 1000 0
DWIDTH 12 0
BBX 12 12 0 -2
BITMAP 
1e00
0c00
0f80
0cc0
0cc0
0cc0
0f80
0c00
0c00
0000
0000
0000
ENDCHAR
STARTCHAR U+00DF
ENCODING 223
SWIDTH 1000 0
DWIDTH 12 0
BBX 12 12 0 -2
BITMAP 
0700
0d80
0d80
0d00
0d80
0cc0
0cc0
0ec0
0d80
0000
0000
0000
ENDCHAR
STARTCHAR U+00E0
ENCODING 224
SWIDTH 1000 0
DWIDTH 12 0
BBX 12 12 0 -2
BITMAP 
0000
0000
0c00
0600
0300
1f00
0380
1f80
3b80
3b80
1ec0
0000
ENDCHAR
STARTCHAR U+00E1
ENCODING 225
SWIDTH 1000 0
DWIDTH 12 0
BBX 12 12 0 -2
BITMAP 
0000
0000
0300
0600
0c00
1f00
0380
1f80
3b80
3b80
1ec0
0000
ENDCHAR
STARTCHAR U+00E2
ENCODING 226
SWIDTH 1000 0
DWIDTH 12 0
BBX 12 12 0 -2
BITMAP 
0000
0000
0600
0d00
1980
1f00
0380
1f80
3b80
3b80
1ec0
0000
ENDCHAR
STARTCHAR U+00E3
ENCODING 227
SWIDTH 1000 0
DWIDTH 12 0
BBX 12 12 0 -2
BITMAP 
0000
0000
1d80
3700
0000
1f00
0380
1f80
3b80
3b80
1ec0
0000
ENDCHAR
STARTCHAR U+00E4
ENCODING 228
SWIDTH 1000 0
DWIDTH 12 0
BBX 12 12 0 -2
BITMAP 
0000
0000
1d80
1d80
0000
1f00
0380
1f80
3b80
3b80
1ec0
0000
ENDCHAR
STARTCHAR U+00E5
ENCODING 229
SWIDTH 1000 0
DWIDTH 12 0
BBX 12 12 0 -2
BITMAP 
0000
0000
0e00
1b00
0e00
1f00
0380
1f80
3b80
3b80
1ec0
0000
ENDCHAR
STARTCHAR U+00E6
ENCODING 230
SWIDTH 1000 0
DWIDTH 12 0
BBX 12 12 0 -2
BITMAP 
0000
0000
0000
0ec0
1b60
0fe0
1b00
1b60
0ec0
0000
0000
0000
ENDCHAR
STARTCHAR U+00E7
ENCODING 231
SWIDTH 1000 0
DWIDTH 12 0
BBX 12 12 0 -2
BITMAP 
0000
0000
0000
0000
0000
1f80
3980
3800
3980
1f00
0600
1c00
ENDCHAR
STARTCHAR U+00E8
ENCODING 232
SWIDTH 1000 0
DWIDTH 12 0
BBX 12 12 0 -2
BITMAP 
0000
0000
0c00
0600
0300
1f80
39c0
3fc0
3800
38c0
1f80
0000
ENDCHAR
STARTCHAR U+00E9
ENCODING 233
SWIDTH 1000 0
DWIDTH 12 0
BBX 12 12 0 -2
BITMAP 
0000
0000
0300
0600
0c00
1f80
39c0
3fc0
3800
38c0
1f80
0000
ENDCHAR
STARTCHAR U+00EA
ENCODING 234
SWIDTH 1000 0
DWIDTH 12 0
BBX 12 12 0 -2
BITMAP 
0000
0000
0600
0d00
1980
1f80
39c0
3fc0
3800
38c0
1f80
0000
ENDCHAR
STARTCHAR U+00EB
ENCODING 235
SWIDTH 1000 0
DWIDTH 12 0
BBX 12 12 0 -2
BITMAP 
0000
0000
1d80
1d80
0000
1f80
39c0
3fc0
3800
38c0
1f80
0000
ENDCHAR
STARTCHAR U+00EC
ENCODING 236
SWIDTH 1000 0
DWIDTH 12 0
BBX 12 12 0 -2
BITMAP 
0000
0000
1800
0c00
0600
1e00
0e00
0e00
0e00
0e00
1f00
0000
ENDCHAR
STARTCHAR U+00ED
ENCODING 237
SWIDTH 1000 0
DWIDTH 12 0
BBX 12 12 0 -2
BITMAP 
0000
0000
0600
0c00
1800
1e00
0e00
0e00
0e00
0e00
1f00
0000
ENDCHAR
STARTCHAR U+00EE
ENCODING 238
SWIDTH 1000 0
DWIDTH 12 0
BBX 12 12 0 -2
BITMAP 
0000
0000
0c00
1a00
3300
1e00
0e00
0e00
0e00
0e00
1f00
0000
ENDCHAR
STARTCHAR U+00EF
ENCODING 239
SWIDTH 1000 0
DWIDTH 12 0
BBX 12 12 0 -2
BITMAP 
0000
0000
3b00
3b00
0000
1e00
0e00
0e00
0e00
0e00
1f00
0000
ENDCHAR
STARTCHAR U+00F0
ENCODING 240
SWIDTH 1000 0
DWIDTH 12 0
BBX 12 12 0 -2
BITMAP 
0f00
19e0
0780
1d80
0180
1f80
1980
1980
0f00
0000
0000
0000
ENDCHAR
STARTCHAR U+00F1
ENCODING 241
SWIDTH 1000 0
DWIDTH 12 0
BBX 12 12 0 -2
BITMAP 
0000
0000
1d80
3700
0000
3b80
1dc0
1dc0
1dc0
1dc0
3de0
0000
ENDCHAR
STARTCHAR U+00F2
ENCODING 242
SWIDTH 1000 0
DWIDTH 12 0
BBX 12 12 0 -2
BITMAP 
0000
0000
0c00
0600
0300
1f80
39c0
39c0
39c0
39c0
1f80
0000
ENDCHAR
STARTCHAR U+00F3
ENCODING 243
SWIDTH 1000 0
DWIDTH 12 0
BBX 12 12 0 -2
BITMAP 
0000
0000
0300
0600
0c00
1f80
39c0
39c0
39c0
39c0
1f80
0000
ENDCHAR
STARTCHAR U+00F4
ENCODING 244
SWIDTH 1000 0
DWIDTH 12 0
BBX 12 12 0 -2
BITMAP 
0000
0000
0600
0d00
1980
1f80
39c0
39c0
39c0
39c0
1f80
0000
ENDCHAR
STARTCHAR U+00F5
ENCODING 245
SWIDTH 1000 0
DWIDTH 12 0
BBX 12 12 0 -2
BITMAP 
0000
0000
1d80
3700
0000
1f80
39c0
39c0
39c0
39c0
1f80
0000
ENDCHAR
STARTCHAR U+00F6
ENCODING 246
SWIDTH 1000 0
DWIDTH 12 0
BBX 12 12 0 -2
BITMAP 
0000
0000
1d80
1d80
0000
1f80
39c0
39c0
39c0
39c0
1f80
0000
ENDCHAR
STARTCHAR U+00F7
ENCODING 247
SWIDTH 1000 0
DWIDTH 12 0
BBX 12 12 0 -2
BITMAP 
0000
0000
1c00
1c00
0000
0000
ffc0
0000
0000
1c00
1c00
0000
ENDCHAR
STARTCHAR U+00F8
ENCODING 248
SWIDTH 1000 0
DWIDTH 12 0
BBX 12 12 0 -2
BITMAP 
0180
0180
0780
0d40
0d40
0d40
0780
0600
0600
0000
0000
0000
ENDCHAR
STARTCHAR U+00F9
ENCODING 249
SWIDTH 1000 0
DWIDTH 12 0
BBX 12 12 0 -2
BITMAP 
0000
0000
0c00
0600
0300
3dc0
1dc0
1dc0
1dc0
1dc0
0f60
0000
ENDCHAR
STARTCHAR U+00FA
ENCODING 250
SWIDTH 1000 0
DWIDTH 12 0
BBX 12 12 0 -2
BITMAP 
0000
0000
0300
0600
0c00
3dc0
1dc0
1dc0
1dc0
1dc0
0f60
0000
ENDCHAR
STARTCHAR U+00FB
ENCODING 251
SWIDTH 1000 0
DWIDTH 12 0
BBX 12 12 0 -2
BITMAP 
0000
0000
0600
0d00
1980
3dc0
1dc0
1dc0
1dc0
1dc0
0f60
0000
ENDCHAR
STARTCHAR U+00FC
ENCODING 252
SWIDTH 1000 0
DWIDTH 12 0
BBX 12 12 0 -2
BITMAP 
0000
0000
1d80
1d80
0000
3dc0
1dc0
1dc0
1dc0
1dc0
0f60
0000
ENDCHAR
STARTCHAR U+00FD
ENCODING 253
SWIDTH 1000 0
DWIDTH 12 0
BBX 12 12 0 -2
BITMAP 
0000
0000
0180
0300
0600
3de0
1cc0
0e80
0f80
0700
3a00
3c00
ENDCHAR
STARTCHAR U+00FE
ENCODING 254
SWIDTH 1000 0
DWIDTH 12 0
BBX 12 12 0 -2
BITMAP 
0000
0000
0600
0780
06c0
06c0
06c0
0780
0600
0600
0000
0000
ENDCHAR
STARTCHAR U+00FF
ENCODING 255
SWIDTH 1000 0
DWIDTH 12 0
BBX 12 12 0 -2
BITMAP 
0000
0000
1d80
1d80
0000
3de0
1cc0
0e80
0f80
0700
3a00
3c00
ENDCHAR
STARTCHAR U+0100
ENCODING 256
SWIDTH 1000 0
DWIDTH 12 0
BBX 12 12 0 -2
BITMAP 
0000
1f80
0000
0700
0f00
0d80
1b80
3f80
31c0
71c0
f9e0
0000
ENDCHAR
STARTCHAR U+0101
ENCODING 257
SWIDTH 1000 0
DWIDTH 12 0
BBX 12 12 0 -2
BITMAP 
0000
0000
0000
1f00
0000
1f00
0380
1f80
3b80
3b80
1ec0
0000
ENDCHAR
STARTCHAR U+0102
ENCODING 258
SWIDTH 1000 0
DWIDTH 12 0
BBX 12 12 0 -2
BITMAP 
0000
1b00
0e00
0000
0f00
0d80
1b80
3f80
31c0
71c0
f9e0
0000
ENDCHAR
STARTCHAR U+0103
ENCODING 259
SWIDTH 1000 0
DWIDTH 12 0
BBX 12 12 0 -2
BITMAP 
0000
0000
1b00
0e00
0000
1f00
0380
1f80
3b80
3b80
1ec0
0000
ENDCHAR
STARTCHAR U+0104
ENCODING 260
SWIDTH 1000 0
DWIDTH 12 0
BBX 12 12 0 -2
BITMAP 
0000
0600
0600
0f00
0f00
1b80
1f80
3b80
31c0
f9e0
00c0
0070
ENDCHAR
STARTCHAR U+0105
ENCODING 261
SWIDTH 1000 0
DWIDTH 12 0
BBX 12 12 0 -2
BITMAP 
0000
0000
0000
0000
0000
1f00
0380
1f80
3b80
3b80
1e80
00e0
ENDCHAR
STARTCHAR U+0106
ENCODING 262
SWIDTH 1000 0
DWIDTH 12 0
BBX 12 12 0 -2
BITMAP 
0000
0600
0c00
0f40
19c0
38c0
7000
7000
38c0
19c0
0f00
0000
ENDCHAR
STARTCHAR U+0107
ENCODING 263
SWIDTH 1000 0
DWIDTH 12 0
BBX 12 12 0 -2
BITMAP 
0000
0000
0300
0600
0c00
1f80
3980
3800
3800
3980
1f00
0000
ENDCHAR
STARTCHAR U+0108
ENCODING 264
SWIDTH 1000 0
DWIDTH 12 0
BBX 12 12 0 -2
BITMAP 
0000
0600
0d00
1980
1f40
39c0
70c0
7000
38c0
19c0
0f00
0000
ENDCHAR
STARTCHAR U+0109
ENCODING 265
SWIDTH 1000 0
DWIDTH 12 0
BBX 12 12 0 -2
BITMAP 
0000
0000
0600
0d00
1980
1f80
3980
3800
3800
3980
1f00
0000
ENDCHAR
STARTCHAR U+010C
ENCODING 268
SWIDTH 1000 0
DWIDTH 12 0
BBX 12 12 0 -2
BITMAP 
0000
1980
0d00
0f40
19c0
38c0
7000
7000
38c0
19c0
0f00
0000
ENDCHAR
STARTCHAR U+010D
ENCODING 269
SWIDTH 1000 0
DWIDTH 12 0
BBX 12 12 0 -2
BITMAP 
0000
0000
1980
0d00
0600
1f80
3980
3800
3800
3980
1f00
0000
ENDCHAR
STARTCHAR U+010E
ENCODING 270
SWIDTH 1000 0
DWIDTH 12 0
BBX 12 12 0 -2
BITMAP 
0000
1980
0d00
7f00
3980
38c0
38e0
38e0
38c0
3980
7f00
0000
ENDCHAR
STARTCHAR U+010F
ENCODING 271
SWIDTH 1000 0
DWIDTH 12 0
BBX 12 12 0 -2
BITMAP 
0000
3300
1a00
0f80
0380
1f80
3b80
3b80
3b80
3b80
1fc0
0000
ENDCHAR
STARTCHAR U+0111
ENCODING 273
SWIDTH 1000 0
DWIDTH 12 0
BBX 12 12 0 -2
BITMAP 
0180
0180
0fe0
0180
0f80
1980
1980
1980
0f80
0000
0000
0000
ENDCHAR
STARTCHAR U+0112
ENCODING 274
SWIDTH 1000 0
DWIDTH 12 0
BBX 12 12 0 -2
BITMAP 
0000
1f80
0000
7fc0
3860
3b00
3f00
3b00
3860
38c0
7fc0
0000
ENDCHAR
STARTCHAR U+0113
ENCODING 275
SWIDTH 1000 0
DWIDTH 12 0
BBX 12 12 0 -2
BITMAP 
0000
0000
0000
1f80
0000
1f80
39c0
3fc0
3800
38c0
1f80
0000
ENDCHAR
STARTCHAR U+0118
ENCODING 280
SWIDTH 1000 0
DWIDTH 12 0
BBX 12 12 0 -2
BITMAP 
0000
7fc0
3860
3800
3b00
3f00
3b00
3860
38c0
7fc0
0180
00e0
ENDCHAR
STARTCHAR U+0119
ENCODING 281
SWIDTH 1000 0
DWIDTH 12 0
BBX 12 12 0 -2
BITMAP 
0000
0000
0000
0000
0000
1f80
39c0
3fc0
3800
38c0
1f80
01e0
ENDCHAR
STARTCHAR U+011A
ENCODING 282
SWIDTH 1000 0
DWIDTH 12 0
BBX 12 12 0 -2
BITMAP 
0000
1980
0d00
7fc0
3860
3b00
3f00
3b00
3860
38c0
7fc0
0000
ENDCHAR
STARTCHAR U+011B
ENCODING 283
SWIDTH 1000 0
DWIDTH 12 0
BBX 12 12 0 -2
BITMAP 
0000
0000
1980
0d00
0600
1f80
39c0
3fc0
3800
38c0
1f80
0000
ENDCHAR
STARTCHAR U+011C
ENCODING 284
SWIDTH 1000 0
DWIDTH 12 0
BBX 12 12 0 -2
BITMAP 
0000
0600
0d00
1980
1f40
39c0
7000
73e0
39c0
19c0
0f40
0000
ENDCHAR
STARTCHAR U+011D
ENCODING 285
SWIDTH 1000 0
DWIDTH 12 0
BBX 12 12 0 -2
BITMAP 
0000
0000
0600
0d00
19c0
1f80
3b80
3b00
1e00
3f80
31c0
1f80
ENDCHAR
STARTCHAR U+0124
ENCODING 292
SWIDTH 1000 0
DWIDTH 12 0
BBX 12 12 0 -2
BITMAP 
0000
0600
0d00
79e0
39c0
39c0
3fc0
39c0
39c0
39c0
79e0
0000
ENDCHAR
STARTCHAR U+0125
ENCODING 293
SWIDTH 1000 0
DWIDTH 12 0
BBX 12 12 0 -2
BITMAP 
0000
3d00
1e80
1cc0
1c00
1f80
1dc0
1dc0
1dc0
1dc0
3de0
0000
ENDCHAR
STARTCHAR U+0126
ENCODING 294
SWIDTH 1000 0
DWIDTH 12 0
BBX 12 12 0 -2
BITMAP 
18c0
7ff0
18c0
18c0
1fc0
18c0
18c0
18c0
18c0
0000
0000
0000
ENDCHAR
STARTCHAR U+0127
ENCODING 295
SWIDTH 1000 0
DWIDTH 12 0
BBX 12 12 0 -2
BITMAP 
0c00
3f80
0c00
0c00
0f80
0cc0
0cc0
0cc0
0cc0
0000
0000
0000
ENDCHAR
STARTCHAR U+012A
ENCODING 298
SWIDTH 1000 0
DWIDTH 12 0
BBX 12 12 0 -2
BITMAP 
0000
1f00
0000
1f00
0e00
0e00
0e00
0e00
0e00
0e00
1f00
0000
ENDCHAR
STARTCHAR U+012B
ENCODING 299
SWIDTH 1000 0
DWIDTH 12 0
BBX 12 12 0 -2
BITMAP 
0000
0000
0000
1f00
0000
1e00
0e00
0e00
0e00
0e00
1f00
0000
ENDCHAR
STARTCHAR U+0131
ENCODING 305
SWIDTH 1000 0
DWIDTH 12 0
BBX 12 12 0 -2
BITMAP 
0000
0000
0000
0300
0300
0300
0300
0300
0300
0000
0000
0000
ENDCHAR
STARTCHAR U+0132
ENCODING 306
SWIDTH 1000 0
DWIDTH 12 0
BBX 12 12 0 -2
BITMAP 
1860
1860
1860
1860
1860
1860
1b60
1b60
19c0
0000
0000
0000
ENDCHAR
STARTCHAR U+0133
ENCODING 307
SWIDTH 1000 0
DWIDTH 12 0
BBX 12 12 0 -2
BITMAP 
0cc0
0000
0000
0cc0
0cc0
0cc0
0cc0
0cc0
0cc0
0380
0000
0000
ENDCHAR
STARTCHAR U+0134
ENCODING 308
SWIDTH 1000 0
DWIDTH 12 0
BBX 12 12 0 -2
BITMAP 
0000
0600
0d00
1bc0
0380
0380
0380
0380
3380
3b00
1e00
0000
ENDCHAR
STARTCHAR U+0135
ENCODING 309
SWIDTH 1000 0
DWIDTH 12 0
BBX 12 12 0 -2
BITMAP 
0000
0000
0600
0d00
1980
0f00
0700
0700
0700
0700
6600
7c00
ENDCHAR
STARTCHAR U+0138
ENCODING 312
SWIDTH 1000 0
DWIDTH 12 0
BBX 12 12 0 -2
BITMAP 
0c00
0c00
0cc0
0d80
0d00
0e00
0d00
0d80
0cc0
0000
0000
0000
ENDCHAR
STARTCHAR U+0139
ENCODING 313
SWIDTH 1000 0
DWIDTH 12 0
BBX 12 12 0 -2
BITMAP 
0000
0180
7d00
3a00
3800
3800
3800
3800
3860
38c0
7fc0
0000
ENDCHAR
STARTCHAR U+013A
ENCODING 314
SWIDTH 1000 0
DWIDTH 12 0
BBX 12 12 0 -2
BITMAP 
0000
0600
0c00
1e00
0e00
0e00
0e00
0e00
0e00
0e00
1f00
0000
ENDCHAR
STARTCHAR U+013D
ENCODING 317
SWIDTH 1000 0
DWIDTH 12 0
BBX 12 12 0 -2
BITMAP 
0000
7cc0
3a80
3b00
3800
3800
3800
3800
3860
38c0
7fc0
0000
ENDCHAR
STARTCHAR U+013E
ENCODING 318
SWIDTH 1000 0
DWIDTH 12 0
BBX 12 12 0 -2
BITMAP 
0000
1980
0d00
1e00
0e00
0e00
0e00
0e00
0e00
0e00
1f00
0000
ENDCHAR
STARTCHAR U+013F
ENCODING 319
SWIDTH 1000 0
DWIDTH 12 0
BBX 12 12 0 -2
BITMAP 
0c00
0c00
0c00
0cc0
0cc0
0c00
0c00
0c00
0fc0
0000
0000
0000
ENDCHAR
STARTCHAR U+0140
ENCODING 320
SWIDTH 1000 0
DWIDTH 12 0
BBX 12 12 0 -2
BITMAP 
0c00
0c00
0c00
0cc0
0cc0
0c00
0c00
0c00
0c00
0000
0000
0000
ENDCHAR
STARTCHAR U+0141
ENCODING 321
SWIDTH 1000 0
DWIDTH 12 0
BBX 12 12 0 -2
BITMAP 
0c00
0dc0
0f00
1c00
7400
0c00
0c00
0c00
0fc0
0000
0000
0000
ENDCHAR
STARTCHAR U+0142
ENCODING 322
SWIDTH 1000 0
DWIDTH 12 0
BBX 12 12 0 -2
BITMAP 
0340
0340
0380
0380
0300
0300
0700
0700
0d00
0000
0000
0000
ENDCHAR
STARTCHAR U+0143
ENCODING 323
SWIDTH 1000 0
DWIDTH 12 0
BBX 12 12 0 -2
BITMAP 
0000
0300
76e0
3cc0
3cc0
36c0
3740
3740
33c0
31c0
78c0
0000
ENDCHAR
STARTCHAR U+0144
ENCODING 324
SWIDTH 1000 0
DWIDTH 12 0
BBX 12 12 0 -2
BITMAP 
0000
0000
0300
0600
0c00
3b80
1dc0
1dc0
1dc0
1dc0
3de0
0000
ENDCHAR
STARTCHAR U+0147
ENCODING 327
SWIDTH 1000 0
DWIDTH 12 0
BBX 12 12 0 -2
BITMAP 
0000
1d80
7760
38c0
3cc0
36c0
3740
3740
33c0
31c0
78c0
0000
ENDCHAR
STARTCHAR U+0148
ENCODING 328
SWIDTH 1000 0
DWIDTH 12 0
BBX 12 12 0 -2
BITMAP 
0000
0000
1980
0d00
0600
3b80
1dc0
1dc0
1dc0
1dc0
3de0
0000
ENDCHAR
STARTCHAR U+0149
ENCODING 329
SWIDTH 1000 0
DWIDTH 12 0
BBX 12 12 0 -2
BITMAP 
0000
3000
3000
6f00
0d80
0d80
0d80
0d80
0d80
0000
0000
0000
ENDCHAR
STARTCHAR U+014A
ENCODING 330
SWIDTH 1000 0
DWIDTH 12 0
BBX 12 12 0 -2
BITMAP 
0c00
0c00
0c00
0d80
0ec0
0cc0
0cc0
0d80
0d00
0000
0000
0000
ENDCHAR
STARTCHAR U+014B
ENCODING 331
SWIDTH 1000 0
DWIDTH 12 0
BBX 12 12 0 -2
BITMAP 
0000
0000
0000
0d80
0ec0
0cc0
0cc0
00c0
00c0
0780
0000
0000
ENDCHAR
STARTCHAR U+014C
ENCODING 332
SWIDTH 1000 0
DWIDTH 12 0
BBX 12 12 0 -2
BITMAP 
0000
1f80
0000
0f00
39c0
70e0
70e0
70e0
70e0
39c0
0f00
0000
ENDCHAR
STARTCHAR U+014D
ENCODING 333
SWIDTH 1000 0
DWIDTH 12 0
BBX 12 12 0 -2
BITMAP 
0000
0000
0000
1f80
0000
0f00
1980
39c0
39c0
1980
0f00
0000
ENDCHAR
STARTCHAR U+0150
ENCODING 336
SWIDTH 1000 0
DWIDTH 12 0
BBX 12 12 0 -2
BITMAP 
0000
0d80
1b00
0f00
39c0
70e0
70e0
70e0
70e0
39c0
0f00
0000
ENDCHAR
STARTCHAR U+0151
ENCODING 337
SWIDTH 1000 0
DWIDTH 12 0
BBX 12 12 0 -2
BITMAP 
0000
0000
0d80
1b00
3600
0f00
1980
39c0
39c0
1980
0f00
0000
ENDCHAR
STARTCHAR U+0152
ENCODING 338
SWIDTH 1000 0
DWIDTH 12 0
BBX 12 12 0 -2
BITMAP 
1ff0
3600
6300
6300
63e0
6300
6300
3600
1ff0
0000
0000
0000
ENDCHAR
STARTCHAR U+0153
ENCODING 339
SWIDTH 1000 0
DWIDTH 12 0
BBX 12 12 0 -2
BITMAP 
0000
0000
0000
0ec0
1b60
1be0
1b00
1b60
0ec0
0000
0000
0000
ENDCHAR
STARTCHAR U+0154
ENCODING 340
SWIDTH 1000 0
DWIDTH 12 0
BBX 12 12 0 -2
BITMAP 
0000
0300
0600
7fc0
38e0
38e0
3fc0
3b80
39c0
39c0
7de0
0000
ENDCHAR
STARTCHAR U+0155
ENCODING 341
SWIDTH 1000 0
DWIDTH 12 0
BBX 12 12 0 -2
BITMAP 
0000
0000
0300
0600
0c00
3bc0
1dc0
1c00
1c00
1c00
3e00
0000
ENDCHAR
STARTCHAR U+0158
ENCODING 344
SWIDTH 1000 0
DWIDTH 12 0
BBX 12 12 0 -2
BITMAP 
0000
1980
0d00
7fc0
38e0
38e0
3fc0
3b80
39c0
39c0
7de0
0000
ENDCHAR
STARTCHAR U+0159
ENCODING 345
SWIDTH 1000 0
DWIDTH 12 0
BBX 12 12 0 -2
BITMAP 
0000
0000
1980
0d00
0600
3bc0
1dc0
1c00
1c00
1c00
3e00
0000
ENDCHAR
STARTCHAR U+015A
ENCODING 346
SWIDTH 1000 0
DWIDTH 12 0
BBX 12 12 0 -2
BITMAP 
0000
0600
0c00
0e80
1b80
3980
3e00
0f80
33c0
3980
3700
0000
ENDCHAR
STARTCHAR U+015B
ENCODING 347
SWIDTH 1000 0
DWIDTH 12 0
BBX 12 12 0 -2
BITMAP 
0000
0000
0300
0600
0c00
1fc0
39c0
1e00
0780
39c0
6f80
0000
ENDCHAR
STARTCHAR U+015C
ENCODING 348
SWIDTH 1000 0
DWIDTH 12 0
BBX 12 12 0 -2
BITMAP 
0000
0600
0d00
1e80
1b80
3980
3e00
0f80
33c0
3980
3700
0000
ENDCHAR
STARTCHAR U+015D
ENCODING 349
SWIDTH 1000 0
DWIDTH 12 0
BBX 12 12 0 -2
BITMAP 
0000
0000
0600
0d00
1980
1fc0
39c0
1e00
0780
39c0
6f80
0000
ENDCHAR
STARTCHAR U+015E
ENCODING 350
SWIDTH 1000 0
DWIDTH 12 0
BBX 12 12 0 -2
BITMAP 
0000
0e80
1b80
3980
3c00
1f80
07c0
31c0
3980
3700
0600
1c00
ENDCHAR
STARTCHAR U+015F
ENCODING 351
SWIDTH 1000 0
DWIDTH 12 0
BBX 12 12 0 -2
BITMAP 
0000
0000
0000
0000
1fc0
39c0
1e00
0780
39c0
6f80
0300
0e00
ENDCHAR
STARTCHAR U+0160
ENCODING 352
SWIDTH 1000 0
DWIDTH 12 0
BBX 12 12 0 -2
BITMAP 
0000
1980
0d00
0e80
1b80
3980
3e00
0f80
33c0
3980
3700
0000
ENDCHAR
STARTCHAR U+0161
ENCODING 353
SWIDTH 1000 0
DWIDTH 12 0
BBX 12 12 0 -2
BITMAP 
0000
0000
1980
0d00
0600
1fc0
39c0
1e00
0780
39c0
6f80
0000
ENDCHAR
STARTCHAR U+0162
ENCODING 354
SWIDTH 1000 0
DWIDTH 12 0
BBX 12 12 0 -2
BITMAP 
0000
7fc0
6ec0
ce60
0e00
0e00
0e00
0e00
0e00
1f00
0c00
3800
ENDCHAR
STARTCHAR U+0163
ENCODING 355
SWIDTH 1000 0
DWIDTH 12 0
BBX 12 12 0 -2
BITMAP 
0000
0000
0600
0e00
0e00
3f80
0e00
0e00
0ec0
0780
0600
1c00
ENDCHAR
STARTCHAR U+0164
ENCODING 356
SWIDTH 1000 0
DWIDTH 12 0
BBX 12 12 0 -2
BITMAP 
0000
1980
0d00
7fc0
6ec0
ce60
0e00
0e00
0e00
0e00
1f00
0000
ENDCHAR
STARTCHAR U+0165
ENCODING 357
SWIDTH 1000 0
DWIDTH 12 0
BBX 12 12 0 -2
BITMAP 
0000
1980
0d00
0600
0e00
3f80
0e00
0e00
0e00
0ec0
0780
0000
ENDCHAR
STARTCHAR U+0166
ENCODING 358
SWIDTH 1000 0
DWIDTH 12 0
BBX 12 12 0 -2
BITMAP 
1fe0
0300
0300
0300
0fc0
0300
0300
0300
0300
0000
0000
0000
ENDCHAR
STARTCHAR U+0167
ENCODING 359
SWIDTH 1000 0
DWIDTH 12 0
BBX 12 12 0 -2
BITMAP 
0600
0780
1e00
0600
1f80
0600
0600
0680
0300
0000
0000
0000
ENDCHAR
STARTCHAR U+016A
ENCODING 362
SWIDTH 1000 0
DWIDTH 12 0
BBX 12 12 0 -2
BITMAP 
0000
1f80
0000
7de0
38c0
38c0
38c0
38c0
38c0
1dc0
0f00
0000
ENDCHAR
STARTCHAR U+016B
ENCODING 363
SWIDTH 1000 0
DWIDTH 12 0
BBX 12 12 0 -2
BITMAP 
0000
0000
0000
1f80
0000
3dc0
1dc0
1dc0
1dc0
1dc0
0f60
0000
ENDCHAR
STARTCHAR U+016C
ENCODING 364
SWIDTH 1000 0
DWIDTH 12 0
BBX 12 12 0 -2
BITMAP 
0000
1b00
0e00
79e0
38c0
38c0
38c0
38c0
38c0
1dc0
0f00
0000
ENDCHAR
STARTCHAR U+016D
ENCODING 365
SWIDTH 1000 0
DWIDTH 12 0
BBX 12 12 0 -2
BITMAP 
0000
0000
1b00
0e00
0000
3dc0
1dc0
1dc0
1dc0
1dc0
0f60
0000
ENDCHAR
STARTCHAR U+016E
ENCODING 366
SWIDTH 1000 0
DWIDTH 12 0
BBX 12 12 0 -2
BITMAP 
0000
0700
0d80
7de0
3b40
38c0
38c0
38c0
38c0
1dc0
0f00
0000
ENDCHAR
STARTCHAR U+016F
ENCODING 367
SWIDTH 1000 0
DWIDTH 12 0
BBX 12 12 0 -2
BITMAP 
0000
0000
1980
0d00
0600
3dc0
1dc0
1dc0
1dc0
1dc0
0f60
0000
ENDCHAR
STARTCHAR U+0170
ENCODING 368
SWIDTH 1000 0
DWIDTH 12 0
BBX 12 12 0 -2
BITMAP 
0000
0d80
1b00
7de0
38c0
38c0
38c0
38c0
38c0
1dc0
0f00
0000
ENDCHAR
STARTCHAR U+0171
ENCODING 369
SWIDTH 1000 0
DWIDTH 12 0
BBX 12 12 0 -2
BITMAP 
0000
0000
0d80
1b00
3600
3dc0
1dc0
1dc0
1dc0
1dc0
0f60
0000
ENDCHAR
STARTCHAR U+0179
ENCODING 377
SWIDTH 1000 0
DWIDTH 12 0
BBX 12 12 0 -2
BITMAP 
0000
0300
0600
3fc0
3380
6700
0e00
1c00
1860
38c0
7fc0
0000
ENDCHAR
STARTCHAR U+017A
ENCODING 378
SWIDTH 1000 0
DWIDTH 12 0
BBX 12 12 0 -2
BITMAP 
0000
0000
0300
0600
0c00
1fc0
3380
0700
0e00
1cc0
3f80
0000
ENDCHAR
STARTCHAR U+017B
ENCODING 379
SWIDTH 1000 0
DWIDTH 12 0
BBX 12 12 0 -2
BITMAP 
0000
0e00
0e00
3fc0
3380
6700
0e00
1c00
1860
38c0
7fc0
0000
ENDCHAR
STARTCHAR U+017C
ENCODING 380
SWIDTH 1000 0
DWIDTH 12 0
BBX 12 12 0 -2
BITMAP 
0000
0000
0e00
0e00
0000
1fc0
3380
0700
0e00
1cc0
3f80
0000
ENDCHAR
STARTCHAR U+017D
ENCODING 381
SWIDTH 1000 0
DWIDTH 12 0
BBX 12 12 0 -2
BITMAP 
0000
1980
0d00
3fc0
3380
6700
0e00
1c00
1860
38c0
7fc0
0000
ENDCHAR
STARTCHAR U+017E
ENCODING 382
SWIDTH 1000 0
DWIDTH 12 0
BBX 12 12 0 -2
BITMAP 
0000
0000
1980
0d00
0600
1fc0
3380
0700
0e00
1cc0
3f80
0000
ENDCHAR
STARTCHAR U+0193
ENCODING 403
SWIDTH 1000 0
DWIDTH 12 0
BBX 12 12 0 -2
BITMAP 
0000
0f60
19d0
38c0
7000
7000
73e0
71c0
39c0
19c0
0f40
0000
ENDCHAR
STARTCHAR U+01C2
ENCODING 450
SWIDTH 1000 0
DWIDTH 12 0
BBX 12 12 0 -2
BITMAP 
0000
0000
0600
0600
1f80
0600
0600
1f80
0600
0600
0600
0000
ENDCHAR
STARTCHAR U+01CD
ENCODING 461
SWIDTH 1000 0
DWIDTH 12 0
BBX 12 12 0 -2
BITMAP 
0000
1980
0d00
0f00
0d00
1b80
1f80
3b80
31c0
71c0
f9e0
0000
ENDCHAR
STARTCHAR U+01CE
ENCODING 462
SWIDTH 1000 0
DWIDTH 12 0
BBX 12 12 0 -2
BITMAP 
0000
0000
1980
0d00
0600
1f00
0380
1f80
3b80
3b80
1ec0
0000
ENDCHAR
STARTCHAR U+01D0
ENCODING 464
SWIDTH 1000 0
DWIDTH 12 0
BBX 12 12 0 -2
BITMAP 
0000
0000
3300
1a00
0c00
1e00
0e00
0e00
0e00
0e00
1f00
0000
ENDCHAR
STARTCHAR U+01D1
ENCODING 465
SWIDTH 1000 0
DWIDTH 12 0
BBX 12 12 0 -2
BITMAP 
0000
1980
0d00
0600
0f00
39c0
70e0
70e0
70e0
39c0
0f00
0000
ENDCHAR
STARTCHAR U+01D2
ENCODING 466
SWIDTH 1000 0
DWIDTH 12 0
BBX 12 12 0 -2
BITMAP 
0000
0000
1980
0d00
0600
1f80
39c0
39c0
39c0
39c0
1f80
0000
ENDCHAR
STARTCHAR U+01D4
ENCODING 468
SWIDTH 1000 0
DWIDTH 12 0
BBX 12 12 0 -2
BITMAP 
0000
0000
1980
0d00
0600
3dc0
1dc0
1dc0
1dc0
1dc0
0f60
0000
ENDCHAR
STARTCHAR U+01D6
ENCODING 470
SWIDTH 1000 0
DWIDTH 12 0
BBX 12 12 0 -2
BITMAP 
0000
1f80
0000
1d80
1d80
0000
3dc0
1dc0
1dc0
1dc0
0f60
0000
ENDCHAR
STARTCHAR U+01D8
ENCODING 472
SWIDTH 1000 0
DWIDTH 12 0
BBX 12 12 0 -2
BITMAP 
0000
0300
0600
1d80
1d80
0000
3dc0
1dc0
1dc0
1dc0
0f60
0000
ENDCHAR
STARTCHAR U+01DA
ENCODING 474
SWIDTH 1000 0
DWIDTH 12 0
BBX 12 12 0 -2
BITMAP 
0000
1980
0d00
1f80
1d80
0000
3dc0
1dc0
1dc0
1dc0
0f60
0000
ENDCHAR
STARTCHAR U+01DC
ENCODING 476
SWIDTH 1000 0
DWIDTH 12 0
BBX 12 12 0 -2
BITMAP 
0000
0c00
0600
1d80
1d80
0000
3dc0
1dc0
1dc0
1dc0
0f60
0000
ENDCHAR
STARTCHAR U+01F8
ENCODING 504
SWIDTH 1000 0
DWIDTH 12 0
BBX 12 12 0 -2
BITMAP 
0000
0c00
76e0
3b40
3cc0
36c0
3740
3740
33c0
31c0
78c0
0000
ENDCHAR
STARTCHAR U+01F9
ENCODING 505
SWIDTH 1000 0
DWIDTH 12 0
BBX 12 12 0 -2
BITMAP 
0000
0000
0c00
0600
0300
3b80
1dc0
1dc0
1dc0
1dc0
3de0
0000
ENDCHAR
STARTCHAR U+01FD
ENCODING 509
SWIDTH 1000 0
DWIDTH 12 0
BBX 12 12 0 -2
BITMAP 
0000
0300
0600
0c00
0000
7dc0
0f60
7ff0
ef00
ef30
7de0
0000
ENDCHAR
STARTCHAR U+0250
ENCODING 592
SWIDTH 1000 0
DWIDTH 12 0
BBX 12 12 0 -2
BITMAP 
0000
0000
0000
0000
0000
3b80
1dc0
1dc0
1f80
1c00
0f80
0000
ENDCHAR
STARTCHAR U+0251
ENCODING 593
SWIDTH 1000 0
DWIDTH 12 0
BBX 12 12 0 -2
BITMAP 
0000
0000
0000
0000
0000
1e80
3b80
3b80
3b80
3b80
1ec0
0000
ENDCHAR
STARTCHAR U+0252
ENCODING 594
SWIDTH 1000 0
DWIDTH 12 0
BBX 12 12 0 -2
BITMAP 
0000
0000
0000
0000
0000
7700
3b80
3b80
3b80
3b80
3700
0000
ENDCHAR
STARTCHAR U+0253
ENCODING 595
SWIDTH 1000 0
DWIDTH 12 0
BBX 12 12 0 -2
BITMAP 
0000
07c0
0cc0
1c00
1c00
1f80
1dc0
1dc0
1dc0
1dc0
3f80
0000
ENDCHAR
STARTCHAR U+0254
ENCODING 596
SWIDTH 1000 0
DWIDTH 12 0
BBX 12 12 0 -2
BITMAP 
0000
0000
0000
0000
0000
1f00
3380
0380
0380
3380
3f00
0000
ENDCHAR
STARTCHAR U+0255
ENCODING 597
SWIDTH 1000 0
DWIDTH 12 0
BBX 12 12 0 -2
BITMAP 
0000
0000
0000
0000
0000
1f80
3980
3800
3b00
3d80
1f00
1800
ENDCHAR
STARTCHAR U+0256
ENCODING 598
SWIDTH 1000 0
DWIDTH 12 0
BBX 12 12 0 -2
BITMAP 
0000
0780
0380
0380
0380
1f80
3b80
3b80
3b80
3b80
1fa0
01e0
ENDCHAR
STARTCHAR U+0257
ENCODING 599
SWIDTH 1000 0
DWIDTH 12 0
BBX 12 12 0 -2
BITMAP 
0000
01e0
03a0
0380
0380
1f80
3b80
3b80
3b80
3b80
1fc0
0000
ENDCHAR
STARTCHAR U+0258
ENCODING 600
SWIDTH 1000 0
DWIDTH 12 0
BBX 12 12 0 -2
BITMAP 
0000
0000
0000
0000
0000
1f80
39c0
3fc0
01c0
31c0
1f80
0000
ENDCHAR
STARTCHAR U+0259
ENCODING 601
SWIDTH 1000 0
DWIDTH 12 0
BBX 12 12 0 -2
BITMAP 
0000
0000
0000
0000
0000
1f80
31c0
01c0
3fc0
39c0
1f80
0000
ENDCHAR
STARTCHAR U+025A
ENCODING 602
SWIDTH 1000 0
DWIDTH 12 0
BBX 12 12 0 -2
BITMAP 
0000
0000
0000
0000
0000
1f60
33e0
0fa0
3bb0
3380
1f00
0000
ENDCHAR
STARTCHAR U+025C
ENCODING 604
SWIDTH 1000 0
DWIDTH 12 0
BBX 12 12 0 -2
BITMAP 
0000
0000
0000
0000
0000
1f80
31c0
0780
01c0
31c0
1f80
0000
ENDCHAR
STARTCHAR U+025E
ENCODING 606
SWIDTH 1000 0
DWIDTH 12 0
BBX 12 12 0 -2
BITMAP 
0000
0000
0000
0000
0000
1f80
31c0
3780
31c0
31c0
1f80
0000
ENDCHAR
STARTCHAR U+025F
ENCODING 607
SWIDTH 1000 0
DWIDTH 12 0
BBX 12 12 0 -2
BITMAP 
0000
0000
0000
0000
0000
1f80
0700
0700
1f80
0700
6600
7c00
ENDCHAR
STARTCHAR U+0260
ENCODING 608
SWIDTH 1000 0
DWIDTH 12 0
BBX 12 12 0 -2
BITMAP 
0000
0000
0000
0060
00d0
1f40
39c0
39c0
19c0
0fc0
1980
1f00
ENDCHAR
STARTCHAR U+0261
ENCODING 609
SWIDTH 1000 0
DWIDTH 12 0
BBX 12 12 0 -2
BITMAP 
0000
0000
0000
0000
0000
1f40
39c0
39c0
19c0
0fc0
1980
1f00
ENDCHAR
STARTCHAR U+0264
ENCODING 612
SWIDTH 1000 0
DWIDTH 12 0
BBX 12 12 0 -2
BITMAP 
0000
0000
0000
0000
7bc0
3180
1b00
1b00
0e00
0e00
0e00
0000
ENDCHAR
STARTCHAR U+0265
ENCODING 613
SWIDTH 1000 0
DWIDTH 12 0
BBX 12 12 0 -2
BITMAP 
0000
3de0
1dc0
1dc0
1dc0
1dc0
0fc0
01c0
01c0
01c0
01e0
0000
ENDCHAR
STARTCHAR U+0266
ENCODING 614
SWIDTH 1000 0
DWIDTH 12 0
BBX 12 12 0 -2
BITMAP 
0000
07c0
0cc0
1c00
1c00
1f80
1dc0
1dc0
1dc0
1dc0
3de0
0000
ENDCHAR
STARTCHAR U+0267
ENCODING 615
SWIDTH 1000 0
DWIDTH 12 0
BBX 12 12 0 -2
BITMAP 
0000
07c0
0cc0
1c00
1c00
1f80
1dc0
1dc0
1dc0
1dc0
3dc0
0780
ENDCHAR
STARTCHAR U+0268
ENCODING 616
SWIDTH 1000 0
DWIDTH 12 0
BBX 12 12 0 -2
BITMAP 
0000
0600
0f00
0600
0000
1e00
0e00
3f80
0e00
0e00
1f00
0000
ENDCHAR
STARTCHAR U+026C
ENCODING 620
SWIDTH 1000 0
DWIDTH 12 0
BBX 12 12 0 -2
BITMAP 
0000
1e00
0e00
0e00
1e00
3600
3600
1fc0
0e00
0e00
1f00
0000
ENDCHAR
STARTCHAR U+026D
ENCODING 621
SWIDTH 1000 0
DWIDTH 12 0
BBX 12 12 0 -2
BITMAP 
0000
1e00
0e00
0e00
0e00
0e00
0e00
0e00
0e00
0e00
0e80
0780
ENDCHAR
STARTCHAR U+026E
ENCODING 622
SWIDTH 1000 0
DWIDTH 12 0
BBX 12 12 0 -2
BITMAP 
0000
7800
3800
3800
3800
3fc0
3b80
3b00
3b80
39c0
7dc0
1f80
ENDCHAR
STARTCHAR U+026F
ENCODING 623
SWIDTH 1000 0
DWIDTH 12 0
BBX 12 12 0 -2
BITMAP 
0000
0000
0000
0000
0000
7b70
3b60
3b60
3b60
3b60
1db0
0000
ENDCHAR
STARTCHAR U+0270
ENCODING 624
SWIDTH 1000 0
DWIDTH 12 0
BBX 12 12 0 -2
BITMAP 
0000
0000
0000
0000
0000
7b70
3b60
3b60
3b60
3b60
1de0
00f0
ENDCHAR
STARTCHAR U+0271
ENCODING 625
SWIDTH 1000 0
DWIDTH 12 0
BBX 12 12 0 -2
BITMAP 
0000
0000
0000
0000
0000
76c0
3b60
3b60
3b60
3b60
7b60
01c0
ENDCHAR
STARTCHAR U+0272
ENCODING 626
SWIDTH 1000 0
DWIDTH 12 0
BBX 12 12 0 -2
BITMAP 
0000
0000
0000
0000
0000
3b80
1dc0
1dc0
1dc0
1dc0
6de0
7800
ENDCHAR
STARTCHAR U+0273
ENCODING 627
SWIDTH 1000 0
DWIDTH 12 0
BBX 12 12 0 -2
BITMAP 
0000
0000
0000
0000
0000
7700
3b80
3b80
3b80
3b80
7ba0
01e0
ENDCHAR
STARTCHAR U+0275
ENCODING 629
SWIDTH 1000 0
DWIDTH 12 0
BBX 12 12 0 -2
BITMAP 
0000
0000
0000
0000
0000
1f80
39c0
3fc0
39c0
39c0
1f80
0000
ENDCHAR
STARTCHAR U+0279
ENCODING 633
SWIDTH 1000 0
DWIDTH 12 0
BBX 12 12 0 -2
BITMAP 
0000
0000
0000
0000
0000
0f80
0700
0700
0700
7700
7d80
0000
ENDCHAR
STARTCHAR U+027A
ENCODING 634
SWIDTH 1000 0
DWIDTH 12 0
BBX 12 12 0 -2
BITMAP 
0000
0f80
0700
0700
0700
0700
0700
0700
0700
7700
7d80
0000
ENDCHAR
STARTCHAR U+027B
ENCODING 635
SWIDTH 1000 0
DWIDTH 12 0
BBX 12 12 0 -2
BITMAP 
0000
0000
0000
0000
0000
0f80
0700
0700
0700
7700
7d40
01c0
ENDCHAR
STARTCHAR U+027D
ENCODING 637
SWIDTH 1000 0
DWIDTH 12 0
BBX 12 12 0 -2
BITMAP 
0000
0000
0000
0000
0000
3bc0
1dc0
1c00
1c00
1c00
1d00
0f00
ENDCHAR
STARTCHAR U+027E
ENCODING 638
SWIDTH 1000 0
DWIDTH 12 0
BBX 12 12 0 -2
BITMAP 
0000
0000
0000
0000
0000
0780
0ec0
0ec0
0e00
0e00
1f00
0000
ENDCHAR
STARTCHAR U+0281
ENCODING 641
SWIDTH 1000 0
DWIDTH 12 0
BBX 12 12 0 -2
BITMAP 
0000
0000
0000
0000
3dc0
1dc0
1f80
1dc0
1dc0
1dc0
1b80
0000
ENDCHAR
STARTCHAR U+0282
ENCODING 642
SWIDTH 1000 0
DWIDTH 12 0
BBX 12 12 0 -2
BITMAP 
0000
0000
0000
0000
1fc0
39c0
1e00
0780
39c0
3f80
3000
1c00
ENDCHAR
STARTCHAR U+0283
ENCODING 643
SWIDTH 1000 0
DWIDTH 12 0
BBX 12 12 0 -2
BITMAP 
0000
0780
0ec0
0e00
0e00
0e00
0e00
0e00
0e00
0e00
7600
3c00
ENDCHAR
STARTCHAR U+0284
ENCODING 644
SWIDTH 1000 0
DWIDTH 12 0
BBX 12 12 0 -2
BITMAP 
0000
0000
0000
0000
03c0
06c0
0e00
0e00
0e00
1f00
6e00
7c00
ENDCHAR
STARTCHAR U+0288
ENCODING 648
SWIDTH 1000 0
DWIDTH 12 0
BBX 12 12 0 -2
BITMAP 
0000
0000
0600
0e00
0e00
3f80
0e00
0e00
0e00
0e00
0ec0
0780
ENDCHAR
STARTCHAR U+0289
ENCODING 649
SWIDTH 1000 0
DWIDTH 12 0
BBX 12 12 0 -2
BITMAP 
0000
0000
0000
0000
0000
3dc0
1dc0
7fe0
1dc0
1dc0
0f60
0000
ENDCHAR
STARTCHAR U+028A
ENCODING 650
SWIDTH 1000 0
DWIDTH 12 0
BBX 12 12 0 -2
BITMAP 
0000
0000
0000
0000
0000
3dc0
3540
1980
39c0
39c0
1f80
0000
ENDCHAR
STARTCHAR U+028B
ENCODING 651
SWIDTH 1000 0
DWIDTH 12 0
BBX 12 12 0 -2
BITMAP 
0000
0000
0000
0000
0000
3dc0
1dc0
1dc0
1dc0
1d80
0f00
0000
ENDCHAR
STARTCHAR U+028C
ENCODING 652
SWIDTH 1000 0
DWIDTH 12 0
BBX 12 12 0 -2
BITMAP 
0000
0000
0000
0000
0000
0c00
0e00
1f00
1b00
3380
7bc0
0000
ENDCHAR
STARTCHAR U+028D
ENCODING 653
SWIDTH 1000 0
DWIDTH 12 0
BBX 12 12 0 -2
BITMAP 
0000
0000
0000
0000
0000
1b00
1d80
3dc0
3ec0
6ee0
f6f0
0000
ENDCHAR
STARTCHAR U+028E
ENCODING 654
SWIDTH 1000 0
DWIDTH 12 0
BBX 12 12 0 -2
BITMAP 
0000
0000
0000
01e0
0360
0700
0780
0f80
0dc0
19c0
3de0
0000
ENDCHAR
STARTCHAR U+0290
ENCODING 656
SWIDTH 1000 0
DWIDTH 12 0
BBX 12 12 0 -2
BITMAP 
0000
0000
0000
0000
0000
1fc0
3380
0700
0e00
1cc0
3f80
00e0
ENDCHAR
STARTCHAR U+0291
ENCODING 657
SWIDTH 1000 0
DWIDTH 12 0
BBX 12 12 0 -2
BITMAP 
0000
0000
0000
0000
0000
1fc0
3380
0700
0ec0
1d40
3fc0
0600
ENDCHAR
STARTCHAR U+0292
ENCODING 658
SWIDTH 1000 0
DWIDTH 12 0
BBX 12 12 0 -2
BITMAP 
0000
0000
0000
0000
0000
3f80
3700
0e00
0f00
7380
7380
3f00
ENDCHAR
STARTCHAR U+0294
ENCODING 660
SWIDTH 1000 0
DWIDTH 12 0
BBX 12 12 0 -2
BITMAP 
0000
1f00
3380
71c0
71c0
0380
0f00
0e00
0e00
0e00
1f00
0000
ENDCHAR
STARTCHAR U+0295
ENCODING 661
SWIDTH 1000 0
DWIDTH 12 0
BBX 12 12 0 -2
BITMAP 
0000
1f00
3980
71c0
71c0
3800
1e00
0e00
0e00
0e00
1f00
0000
ENDCHAR
STARTCHAR U+0298
ENCODING 664
SWIDTH 1000 0
DWIDTH 12 0
BBX 12 12 0 -2
BITMAP 
0000
0000
0000
0f00
1980
30c0
36c0
36c0
30c0
1980
0f00
0000
ENDCHAR
STARTCHAR U+029D
ENCODING 669
SWIDTH 1000 0
DWIDTH 12 0
BBX 12 12 0 -2
BITMAP 
0000
0600
0f00
0600
0000
0f00
0700
0700
0700
3f80
3600
1c00
ENDCHAR
STARTCHAR U+02A1
ENCODING 673
SWIDTH 1000 0
DWIDTH 12 0
BBX 12 12 0 -2
BITMAP 
0000
1f00
3380
71c0
71c0
0380
0f00
0e00
3f80
0e00
1f00
0000
ENDCHAR
STARTCHAR U+02A2
ENCODING 674
SWIDTH 1000 0
DWIDTH 12 0
BBX 12 12 0 -2
BITMAP 
0000
1f00
3980
71c0
71c0
3800
1e00
0e00
3f80
0e00
1f00
0000
ENDCHAR
STARTCHAR U+02C7
ENCODING 711
SWIDTH 1000 0
DWIDTH 12 0
BBX 12 12 0 -2
BITMAP 
1980
0d00
0600
0000
0000
0000
0000
0000
0000
0000
0000
0000
ENDCHAR
STARTCHAR U+02C8
ENCODING 712
SWIDTH 1000 0
DWIDTH 12 0
BBX 12 12 0 -2
BITMAP 
0000
0600
0600
0600
0600
0000
0000
0000
0000
0000
0000
0000
ENDCHAR
STARTCHAR U+02C9
ENCODING 713
SWIDTH 1000 0
DWIDTH 12 0
BBX 12 12 0 -2
BITMAP 
0000
0000
ffe0
0000
0000
0000
0000
0000
0000
0000
0000
0000
ENDCHAR
STARTCHAR U+02CA
ENCODING 714
SWIDTH 1000 0
DWIDTH 12 0
BBX 12 12 0 -2
BITMAP 
0000
0000
0000
0000
0380
0f00
1e00
1c00
1800
0000
0000
0000
ENDCHAR
STARTCHAR U+02CB
ENCODING 715
SWIDTH 1000 0
DWIDTH 12 0
BBX 12 12 0 -2
BITMAP 
0000
0000
0000
0000
1c00
1e00
0700
0300
0180
0000
0000
0000
ENDCHAR
STARTCHAR U+02CC
ENCODING 716
SWIDTH 1000 0
DWIDTH 12 0
BBX 12 12 0 -2
BITMAP 
0000
0000
0000
0000
0000
0000
0000
0000
0600
0600
0600
0600
ENDCHAR
STARTCHAR U+02D0
ENCODING 720
SWIDTH 1000 0
DWIDTH 12 0
BBX 12 12 0 -2
BITMAP 
0000
0780
0300
0000
0000
0000
0000
0300
0780
0000
0000
0000
ENDCHAR
STARTCHAR U+02D1
ENCODING 721
SWIDTH 1000 0
DWIDTH 12 0
BBX 12 12 0 -2
BITMAP 
0000
0000
0000
0000
1f80
0f00
0600
0000
0000
0000
0000
0000
ENDCHAR
STARTCHAR U+02D8
ENCODING 728
SWIDTH 1000 0
DWIDTH 12 0
BBX 12 12 0 -2
BITMAP 
1980
1980
0f00
0000
0000
0000
0000
0000
0000
0000
0000
0000
ENDCHAR
STARTCHAR U+02D9
ENCODING 729
SWIDTH 1000 0
DWIDTH 12 0
BBX 12 12 0 -2
BITMAP 
0700
0700
0000
0000
0000
0000
0000
0000
0000
0000
0000
0000
ENDCHAR
STARTCHAR U+02DA
ENCODING 730
SWIDTH 1000 0
DWIDTH 12 0
BBX 12 12 0 -2
BITMAP 
0700
0d80
0d80
0700
0000
0000
0000
0000
0000
0000
0000
0000
ENDCHAR
STARTCHAR U+02DB
ENCODING 731
SWIDTH 1000 0
DWIDTH 12 0
BBX 12 12 0 -2
BITMAP 
0000
0000
0000
0000
0000
0000
0300
0600
0680
0300
0000
0000
ENDCHAR
STARTCHAR U+02DD
ENCODING 733
SWIDTH 1000 0
DWIDTH 12 0
BBX 12 12 0 -2
BITMAP 
0ec0
0d80
1b00
0000
0000
0000
0000
0000
0000
0000
0000
0000
ENDCHAR
STARTCHAR U+02DE
ENCODING 734
SWIDTH 1000 0
DWIDTH 12 0
BBX 12 12 0 -2
BITMAP 
0000
0000
0000
0000
0000
0f00
0340
0340
0180
0000
0000
0000
ENDCHAR
STARTCHAR U+02E5
ENCODING 741
SWIDTH 1000 0
DWIDTH 12 0
BBX 12 12 0 -2
BITMAP 
fe00
0600
0600
0600
0600
0600
0600
0600
0600
0600
0600
0600
ENDCHAR
STARTCHAR U+02E6
ENCODING 742
SWIDTH 1000 0
DWIDTH 12 0
BBX 12 12 0 -2
BITMAP 
0600
0600
0600
fe00
0600
0600
0600
0600
0600
0600
0600
0600
ENDCHAR
STARTCHAR U+02E7
ENCODING 743
SWIDTH 1000 0
DWIDTH 12 0
BBX 12 12 0 -2
BITMAP 
0600
0600
0600
0600
0600
0600
fe00
0600
0600
0600
0600
0600
ENDCHAR
STARTCHAR U+02E8
ENCODING 744
SWIDTH 1000 0
DWIDTH 12 0
BBX 12 12 0 -2
BITMAP 
0600
0600
0600
0600
0600
0600
0600
0600
fe00
0600
0600
0600
ENDCHAR
STARTCHAR U+02E9
ENCODING 745
SWIDTH 1000 0
DWIDTH 12 0
BBX 12 12 0 -2
BITMAP 
0600
0600
0600
0600
0600
0600
0600
0600
0600
0600
0600
fe00
ENDCHAR
STARTCHAR U+0300
ENCODING 768
SWIDTH 1000 0
DWIDTH 12 0
BBX 12 12 0 -2
BITMAP 
0000
0c00
0600
0300
0000
0000
0000
0000
0000
0000
0000
0000
ENDCHAR
STARTCHAR U+0301
ENCODING 769
SWIDTH 1000 0
DWIDTH 12 0
BBX 12 12 0 -2
BITMAP 
0000
0300
0600
0c00
0000
0000
0000
0000
0000
0000
0000
0000
ENDCHAR
STARTCHAR U+0302
ENCODING 770
SWIDTH 1000 0
DWIDTH 12 0
BBX 12 12 0 -2
BITMAP 
0000
0600
0d00
1980
0000
0000
0000
0000
0000
0000
0000
0000
ENDCHAR
STARTCHAR U+0303
ENCODING 771
SWIDTH 1000 0
DWIDTH 12 0
BBX 12 12 0 -2
BITMAP 
0000
1d80
3700
0000
0000
0000
0000
0000
0000
0000
0000
0000
ENDCHAR
STARTCHAR U+0304
ENCODING 772
SWIDTH 1000 0
DWIDTH 12 0
BBX 12 12 0 -2
BITMAP 
0000
1f00
0000
0000
0000
0000
0000
0000
0000
0000
0000
0000
ENDCHAR
STARTCHAR U+0306
ENCODING 774
SWIDTH 1000 0
DWIDTH 12 0
BBX 12 12 0 -2
BITMAP 
0000
1980
1980
0f00
0000
0000
0000
0000
0000
0000
0000
0000
ENDCHAR
STARTCHAR U+0308
ENCODING 776
SWIDTH 1000 0
DWIDTH 12 0
BBX 12 12 0 -2
BITMAP 
0000
1d80
1d80
0000
0000
0000
0000
0000
0000
0000
0000
0000
ENDCHAR
STARTCHAR U+030B
ENCODING 779
SWIDTH 1000 0
DWIDTH 12 0
BBX 12 12 0 -2
BITMAP 
0000
0d80
1b00
3600
0000
0000
0000
0000
0000
0000
0000
0000
ENDCHAR
STARTCHAR U+030C
ENCODING 780
SWIDTH 1000 0
DWIDTH 12 0
BBX 12 12 0 -2
BITMAP 
0000
1980
0d00
0600
0000
0000
0000
0000
0000
0000
0000
0000
ENDCHAR
STARTCHAR U+030F
ENCODING 783
SWIDTH 1000 0
DWIDTH 12 0
BBX 12 12 0 -2
BITMAP 
0000
3600
1b00
0d80
0000
0000
0000
0000
0000
0000
0000
0000
ENDCHAR
STARTCHAR U+0318
ENCODING 792
SWIDTH 1000 0
DWIDTH 12 0
BBX 12 12 0 -2
BITMAP 
0000
0000
0000
0000
0000
0000
0000
0600
0600
1e00
0600
0600
ENDCHAR
STARTCHAR U+0319
ENCODING 793
SWIDTH 1000 0
DWIDTH 12 0
BBX 12 12 0 -2
BITMAP 
0000
0000
0000
0000
0000
0000
0000
0600
0600
0780
0600
0600
ENDCHAR
STARTCHAR U+031A
ENCODING 794
SWIDTH 1000 0
DWIDTH 12 0
BBX 12 12 0 -2
BITMAP 
0000
03c0
00c0
00c0
0000
0000
0000
0000
0000
0000
0000
0000
ENDCHAR
STARTCHAR U+031C
ENCODING 796
SWIDTH 1000 0
DWIDTH 12 0
BBX 12 12 0 -2
BITMAP 
0000
0000
0000
0000
0000
0000
0000
0000
0000
0700
0c00
0700
ENDCHAR
STARTCHAR U+031D
ENCODING 797
SWIDTH 1000 0
DWIDTH 12 0
BBX 12 12 0 -2
BITMAP 
0000
0000
0000
0000
0000
0000
0000
0600
0600
1f80
0000
0000
ENDCHAR
STARTCHAR U+031E
ENCODING 798
SWIDTH 1000 0
DWIDTH 12 0
BBX 12 12 0 -2
BITMAP 
0000
0000
0000
0000
0000
0000
0000
0000
0000
1f80
0600
0600
ENDCHAR
STARTCHAR U+031F
ENCODING 799
SWIDTH 1000 0
DWIDTH 12 0
BBX 12 12 0 -2
BITMAP 
0000
0000
0000
0000
0000
0000
0000
0000
0000
0600
1f80
0600
ENDCHAR
STARTCHAR U+0320
ENCODING 800
SWIDTH 1000 0
DWIDTH 12 0
BBX 12 12 0 -2
BITMAP 
0000
0000
0000
0000
0000
0000
0000
0000
0000
0000
1f80
0000
ENDCHAR
STARTCHAR U+0324
ENCODING 804
SWIDTH 1000 0
DWIDTH 12 0
BBX 12 12 0 -2
BITMAP 
0000
0000
0000
0000
0000
0000
0000
0000
0000
0000
1d80
1d80
ENDCHAR
STARTCHAR U+0325
ENCODING 805
SWIDTH 1000 0
DWIDTH 12 0
BBX 12 12 0 -2
BITMAP 
0000
0000
0000
0000
0000
0000
0000
0000
0e00
1b00
1b00
0e00
ENDCHAR
STARTCHAR U+0329
ENCODING 809
SWIDTH 1000 0
DWIDTH 12 0
BBX 12 12 0 -2
BITMAP 
0000
0000
0000
0000
0000
0000
0000
0000
0000
0600
0600
0600
ENDCHAR
STARTCHAR U+032A
ENCODING 810
SWIDTH 1000 0
DWIDTH 12 0
BBX 12 12 0 -2
BITMAP 
0000
0000
0000
0000
0000
0000
0000
0000
0000
1f80
1980
1980
ENDCHAR
STARTCHAR U+032C
ENCODING 812
SWIDTH 1000 0
DWIDTH 12 0
BBX 12 12 0 -2
BITMAP 
0000
0000
0000
0000
0000
0000
0000
0000
0000
1980
1980
0f00
ENDCHAR
STARTCHAR U+032F
ENCODING 815
SWIDTH 1000 0
DWIDTH 12 0
BBX 12 12 0 -2
BITMAP 
0000
0000
0000
0000
0000
0000
0000
0000
0000
0f00
1980
1980
ENDCHAR
STARTCHAR U+0330
ENCODING 816
SWIDTH 1000 0
DWIDTH 12 0
BBX 12 12 0 -2
BITMAP 
0000
0000
0000
0000
0000
0000
0000
0000
0000
0000
1d80
3700
ENDCHAR
STARTCHAR U+0334
ENCODING 820
SWIDTH 1000 0
DWIDTH 12 0
BBX 12 12 0 -2
BITMAP 
0000
0000
0000
0000
0000
0000
1d80
3700
0000
0000
0000
0000
ENDCHAR
STARTCHAR U+0339
ENCODING 825
SWIDTH 1000 0
DWIDTH 12 0
BBX 12 12 0 -2
BITMAP 
0000
0000
0000
0000
0000
0000
0000
0000
0000
0700
0180
0700
ENDCHAR
STARTCHAR U+033A
ENCODING 826
SWIDTH 1000 0
DWIDTH 12 0
BBX 12 12 0 -2
BITMAP 
0000
0000
0000
0000
0000
0000
0000
0000
0000
1980
1980
1f80
ENDCHAR
STARTCHAR U+033B
ENCODING 827
SWIDTH 1000 0
DWIDTH 12 0
BBX 12 12 0 -2
BITMAP 
0000
0000
0000
0000
0000
0000
0000
0000
1f80
1980
1980
1f80
ENDCHAR
STARTCHAR U+033C
ENCODING 828
SWIDTH 1000 0
DWIDTH 12 0
BBX 12 12 0 -2
BITMAP 
0000
0000
0000
0000
0000
0000
0000
0000
0000
0000
1d80
36c0
ENDCHAR
STARTCHAR U+033D
ENCODING 829
SWIDTH 1000 0
DWIDTH 12 0
BBX 12 12 0 -2
BITMAP 
0000
1d80
0600
1d80
0000
0000
0000
0000
0000
0000
0000
0000
ENDCHAR
STARTCHAR U+0361
ENCODING 865
SWIDTH 1000 0
DWIDTH 12 0
BBX 12 12 0 -2
BITMAP 
0000
1f80
30c0
6060
0000
0000
0000
0000
0000
0000
0000
0000
ENDCHAR
STARTCHAR U+0391
ENCODING 913
SWIDTH 1000 0
DWIDTH 12 0
BBX 12 12 0 -2
BITMAP 
0000
0c00
0c00
1a00
1a00
3300
3300
3f00
6180
6180
f3c0
0000
ENDCHAR
STARTCHAR U+0392
ENCODING 914
SWIDTH 1000 0
DWIDTH 12 0
BBX 12 12 0 -2
BITMAP 
0000
7e00
3300
3180
3300
3e00
3300
3180
3180
3300
7e00
0000
ENDCHAR
STARTCHAR U+0393
ENCODING 915
SWIDTH 1000 0
DWIDTH 12 0
BBX 12 12 0 -2
BITMAP 
0000
7f00
3300
3180
3000
3000
3000
3000
3000
3000
7800
0000
ENDCHAR
STARTCHAR U+0394
ENCODING 916
SWIDTH 1000 0
DWIDTH 12 0
BBX 12 12 0 -2
BITMAP 
0000
0c00
0c00
0c00
1a00
1a00
3300
3300
6180
6180
ffc0
0000
ENDCHAR
STARTCHAR U+0395
ENCODING 917
SWIDTH 1000 0
DWIDTH 12 0
BBX 12 12 0 -2
BITMAP 
0000
7f80
30c0
3000
3300
3f00
3300
3000
30c0
30c0
7f80
0000
ENDCHAR
STARTCHAR U+0396
ENCODING 918
SWIDTH 1000 0
DWIDTH 12 0
BBX 12 12 0 -2
BITMAP 
0000
7fc0
6180
c300
0600
0c00
0c00
1800
30c0
60c0
ffc0
0000
ENDCHAR
STARTCHAR U+0397
ENCODING 919
SWIDTH 1000 0
DWIDTH 12 0
BBX 12 12 0 -2
BITMAP 
0000
f3c0
6180
6180
6180
7f80
6180
6180
6180
6180
f3c0
0000
ENDCHAR
STARTCHAR U+0398
ENCODING 920
SWIDTH 1000 0
DWIDTH 12 0
BBX 12 12 0 -2
BITMAP 
0000
1e00
3300
6180
d340
df40
d340
c0c0
6180
3300
1e00
0000
ENDCHAR
STARTCHAR U+0399
ENCODING 921
SWIDTH 1000 0
DWIDTH 12 0
BBX 12 12 0 -2
BITMAP 
0000
1e00
0c00
0c00
0c00
0c00
0c00
0c00
0c00
0c00
1e00
0000
ENDCHAR
STARTCHAR U+039A
ENCODING 922
SWIDTH 1000 0
DWIDTH 12 0
BBX 12 12 0 -2
BITMAP 
0000
7b80
3300
3600
3400
3800
3400
3600
3300
3180
7bc0
0000
ENDCHAR
STARTCHAR U+039B
ENCODING 923
SWIDTH 1000 0
DWIDTH 12 0
BBX 12 12 0 -2
BITMAP 
0000
0c00
0c00
1a00
1a00
3300
3300
3300
6180
6180
f3c0
0000
ENDCHAR
STARTCHAR U+039C
ENCODING 924
SWIDTH 1000 0
DWIDTH 12 0
BBX 12 12 0 -2
BITMAP 
0000
c0e0
c0c0
e1c0
e1c0
d340
d340
dac0
dac0
ccc0
ede0
0000
ENDCHAR
STARTCHAR U+039D
ENCODING 925
SWIDTH 1000 0
DWIDTH 12 0
BBX 12 12 0 -2
BITMAP 
0000
73c0
3980
3580
3580
3680
3680
3380
3380
3180
7980
0000
ENDCHAR
STARTCHAR U+039E
ENCODING 926
SWIDTH 1000 0
DWIDTH 12 0
BBX 12 12 0 -2
BITMAP 
0000
7fc0
60c0
0000
3180
3f80
3180
0000
0000
60c0
7fc0
0000
ENDCHAR
STARTCHAR U+039F
ENCODING 927
SWIDTH 1000 0
DWIDTH 12 0
BBX 12 12 0 -2
BITMAP 
0000
1e00
3300
6180
c0c0
c0c0
c0c0
c0c0
6180
3300
1e00
0000
ENDCHAR
STARTCHAR U+03A0
ENCODING 928
SWIDTH 1000 0
DWIDTH 12 0
BBX 12 12 0 -2
BITMAP 
0000
ffc0
6180
6180
6180
6180
6180
6180
6180
6180
f3c0
0000
ENDCHAR
STARTCHAR U+03A1
ENCODING 929
SWIDTH 1000 0
DWIDTH 12 0
BBX 12 12 0 -2
BITMAP 
0000
7e00
3300
3180
3180
3300
3e00
3000
3000
3000
7800
0000
ENDCHAR
STARTCHAR U+03A3
ENCODING 931
SWIDTH 1000 0
DWIDTH 12 0
BBX 12 12 0 -2
BITMAP 
0000
ff00
6300
3180
1800
0c00
0c00
1800
30c0
60c0
ff80
0000
ENDCHAR
STARTCHAR U+03A4
ENCODING 932
SWIDTH 1000 0
DWIDTH 12 0
BBX 12 12 0 -2
BITMAP 
0000
ffc0
ccc0
ccc0
0c00
0c00
0c00
0c00
0c00
0c00
1e00
0000
ENDCHAR
STARTCHAR U+03A5
ENCODING 933
SWIDTH 1000 0
DWIDTH 12 0
BBX 12 12 0 -2
BITMAP 
0000
7b80
ccc0
ccc0
0c00
0c00
0c00
0c00
0c00
0c00
1e00
0000
ENDCHAR
STARTCHAR U+03A6
ENCODING 934
SWIDTH 1000 0
DWIDTH 12 0
BBX 12 12 0 -2
BITMAP 
0000
1e00
0c00
3f00
6d80
6d80
6d80
3f00
0c00
0c00
1e00
0000
ENDCHAR
STARTCHAR U+03A7
ENCODING 935
SWIDTH 1000 0
DWIDTH 12 0
BBX 12 12 0 -2
BITMAP 
0000
f3c0
6180
3300
1a00
0c00
0c00
1a00
3300
6180
f3c0
0000
ENDCHAR
STARTCHAR U+03A8
ENCODING 936
SWIDTH 1000 0
DWIDTH 12 0
BBX 12 12 0 -2
BITMAP 
0000
1e00
ccc0
6d80
6d80
6d80
3500
1e00
0c00
0c00
1e00
0000
ENDCHAR
STARTCHAR U+03A9
ENCODING 937
SWIDTH 1000 0
DWIDTH 12 0
BBX 12 12 0 -2
BITMAP 
0000
1e00
3300
6180
6180
6180
6180
3300
dac0
dac0
fbc0
0000
ENDCHAR
STARTCHAR U+03B1
ENCODING 945
SWIDTH 1000 0
DWIDTH 12 0
BBX 12 12 0 -2
BITMAP 
0000
0000
0000
0000
1d80
3680
6700
6600
6c00
6e00
3b80
0000
ENDCHAR
STARTCHAR U+03B2
ENCODING 946
SWIDTH 1000 0
DWIDTH 12 0
BBX 12 12 0 -2
BITMAP 
0000
0700
0d80
0d80
1b00
1a00
3300
3300
7600
6c00
c000
c000
ENDCHAR
STARTCHAR U+03B3
ENCODING 947
SWIDTH 1000 0
DWIDTH 12 0
BBX 12 12 0 -2
BITMAP 
0000
0000
0000
39c0
6d00
0600
0c00
0c00
1800
1800
3000
0000
ENDCHAR
STARTCHAR U+03B4
ENCODING 948
SWIDTH 1000 0
DWIDTH 12 0
BBX 12 12 0 -2
BITMAP 
0000
0e00
1b80
0c00
0600
0e00
1b00
3300
6300
6600
3c00
0000
ENDCHAR
STARTCHAR U+03B5
ENCODING 949
SWIDTH 1000 0
DWIDTH 12 0
BBX 12 12 0 -2
BITMAP 
0000
0000
0000
1e00
3300
3000
1c00
3000
6300
6600
3c00
0000
ENDCHAR
STARTCHAR U+03B6
ENCODING 950
SWIDTH 1000 0
DWIDTH 12 0
BBX 12 12 0 -2
BITMAP 
0000
1800
1b80
0f00
0c00
1800
3000
3000
3000
1c00
6600
3c00
ENDCHAR
STARTCHAR U+03B7
ENCODING 951
SWIDTH 1000 0
DWIDTH 12 0
BBX 12 12 0 -2
BITMAP 
0000
0000
0000
0000
3700
6d80
1980
3300
3300
6600
0600
0600
ENDCHAR
STARTCHAR U+03B8
ENCODING 952
SWIDTH 1000 0
DWIDTH 12 0
BBX 12 12 0 -2
BITMAP 
0000
0700
0d80
1980
3180
3f80
6300
6300
6600
6c00
3800
0000
ENDCHAR
STARTCHAR U+03B9
ENCODING 953
SWIDTH 1000 0
DWIDTH 12 0
BBX 12 12 0 -2
BITMAP 
0000
0000
0000
0600
0c00
1800
1800
3000
3180
3700
1c00
0000
ENDCHAR
STARTCHAR U+03BA
ENCODING 954
SWIDTH 1000 0
DWIDTH 12 0
BBX 12 12 0 -2
BITMAP 
0000
0000
0000
3180
1b00
1a00
3c00
3400
6d80
6d80
c700
0000
ENDCHAR
STARTCHAR U+03BB
ENCODING 955
SWIDTH 1000 0
DWIDTH 12 0
BBX 12 12 0 -2
BITMAP 
0000
0000
1c00
0600
0600
0600
0e00
1a00
3300
6300
61c0
0000
ENDCHAR
STARTCHAR U+03BC
ENCODING 956
SWIDTH 1000 0
DWIDTH 12 0
BBX 12 12 0 -2
BITMAP 
0000
0000
0000
1980
1980
3180
3300
6300
7700
6dc0
c000
c000
ENDCHAR
STARTCHAR U+03BD
ENCODING 957
SWIDTH 1000 0
DWIDTH 12 0
BBX 12 12 0 -2
BITMAP 
0000
0000
0000
0000
3180
1980
1b00
3300
3600
3400
7800
0000
ENDCHAR
STARTCHAR U+03BE
ENCODING 958
SWIDTH 1000 0
DWIDTH 12 0
BBX 12 12 0 -2
BITMAP 
0000
0c00
0780
0c00
1800
0e00
1800
3000
1e00
0300
3300
1e00
ENDCHAR
STARTCHAR U+03BF
ENCODING 959
SWIDTH 1000 0
DWIDTH 12 0
BBX 12 12 0 -2
BITMAP 
0000
0000
0000
0000
1e00
3300
6300
6300
6300
6600
3c00
0000
ENDCHAR
STARTCHAR U+03C0
ENCODING 960
SWIDTH 1000 0
DWIDTH 12 0
BBX 12 12 0 -2
BITMAP 
0000
0000
0000
00c0
3f80
6b00
1a00
3600
3400
6d80
c700
0000
ENDCHAR
STARTCHAR U+03C1
ENCODING 961
SWIDTH 1000 0
DWIDTH 12 0
BBX 12 12 0 -2
BITMAP 
0000
0000
0000
0f00
1980
3180
3180
3b00
3600
6000
6000
6000
ENDCHAR
STARTCHAR U+03C2
ENCODING 962
SWIDTH 1000 0
DWIDTH 12 0
BBX 12 12 0 -2
BITMAP 
0000
0000
0000
0000
0f80
18c0
30c0
30c0
1980
0c00
3600
1c00
ENDCHAR
STARTCHAR U+03C3
ENCODING 963
SWIDTH 1000 0
DWIDTH 12 0
BBX 12 12 0 -2
BITMAP 
0000
0000
0000
00c0
0f80
3a00
6300
6300
6300
3600
1c00
0000
ENDCHAR
STARTCHAR U+03C4
ENCODING 964
SWIDTH 1000 0
DWIDTH 12 0
BBX 12 12 0 -2
BITMAP 
0000
0000
0180
3f00
6c00
0c00
1800
1800
3000
3600
1c00
0000
ENDCHAR
STARTCHAR U+03C5
ENCODING 965
SWIDTH 1000 0
DWIDTH 12 0
BBX 12 12 0 -2
BITMAP 
0000
0000
0000
0000
6300
d180
3180
3300
6300
6e00
3800
0000
ENDCHAR
STARTCHAR U+03C6
ENCODING 966
SWIDTH 1000 0
DWIDTH 12 0
BBX 12 12 0 -2
BITMAP 
0000
0300
0300
0600
1f00
3680
66c0
6cc0
6d80
3f00
1800
1800
ENDCHAR
STARTCHAR U+03C7
ENCODING 967
SWIDTH 1000 0
DWIDTH 12 0
BBX 12 12 0 -2
BITMAP 
0000
0000
0180
3180
6b00
6e00
0c00
1c00
3400
6680
6300
0000
ENDCHAR
STARTCHAR U+03C8
ENCODING 968
SWIDTH 1000 0
DWIDTH 12 0
BBX 12 12 0 -2
BITMAP 
0000
0300
0300
6680
36c0
36c0
6cc0
6d80
3f00
1800
1800
1800
ENDCHAR
STARTCHAR U+03C9
ENCODING 969
SWIDTH 1000 0
DWIDTH 12 0
BBX 12 12 0 -2
BITMAP 
0000
0000
0000
0000
3180
60c0
60c0
ccc0
ccc0
dd80
7700
0000
ENDCHAR
STARTCHAR U+0401
ENCODING 1025
SWIDTH 1000 0
DWIDTH 12 0
BBX 12 12 0 -2
BITMAP 
3b80
0000
7f80
30c0
3000
3300
3f00
3300
30c0
30c0
7f80
0000
ENDCHAR
STARTCHAR U+0410
ENCODING 1040
SWIDTH 1000 0
DWIDTH 12 0
BBX 12 12 0 -2
BITMAP 
0000
0c00
0c00
1a00
1a00
3300
3300
3f00
6180
6180
f3c0
0000
ENDCHAR
STARTCHAR U+0411
ENCODING 1041
SWIDTH 1000 0
DWIDTH 12 0
BBX 12 12 0 -2
BITMAP 
0000
7f80
3180
3000
3000
3e00
3300
3180
3180
3300
7e00
0000
ENDCHAR
STARTCHAR U+0412
ENCODING 1042
SWIDTH 1000 0
DWIDTH 12 0
BBX 12 12 0 -2
BITMAP 
0000
7e00
3300
3180
3300
3e00
3300
3180
3180
3300
7e00
0000
ENDCHAR
STARTCHAR U+0413
ENCODING 1043
SWIDTH 1000 0
DWIDTH 12 0
BBX 12 12 0 -2
BITMAP 
0000
7f00
3300
3180
3000
3000
3000
3000
3000
3000
7800
0000
ENDCHAR
STARTCHAR U+0414
ENCODING 1044
SWIDTH 1000 0
DWIDTH 12 0
BBX 12 12 0 -2
BITMAP 
0000
3fc0
1b00
1b00
1b00
1b00
1b00
3300
3300
6300
ffc0
c0c0
ENDCHAR
STARTCHAR U+0415
ENCODING 1045
SWIDTH 1000 0
DWIDTH 12 0
BBX 12 12 0 -2
BITMAP 
0000
7f80
30c0
3000
3300
3f00
3300
3000
30c0
30c0
7f80
0000
ENDCHAR
STARTCHAR U+0416
ENCODING 1046
SWIDTH 1000 0
DWIDTH 12 0
BBX 12 12 0 -2
BITMAP 
0000
dec0
6d80
6d80
3500
1e00
3500
6d00
6d80
6d80
eec0
0000
ENDCHAR
STARTCHAR U+0417
ENCODING 1047
SWIDTH 1000 0
DWIDTH 12 0
BBX 12 12 0 -2
BITMAP 
0000
1e00
3300
6300
0300
0e00
0300
0180
6180
7300
6e00
0000
ENDCHAR
STARTCHAR U+0418
ENCODING 1048
SWIDTH 1000 0
DWIDTH 12 0
BBX 12 12 0 -2
BITMAP 
0000
79c0
3380
3680
3680
3580
3580
3980
3980
3180
7bc0
0000
ENDCHAR
STARTCHAR U+0419
ENCODING 1049
SWIDTH 1000 0
DWIDTH 12 0
BBX 12 12 0 -2
BITMAP 
1b00
0e00
79c0
3380
3680
3680
3580
3980
3980
3180
7bc0
0000
ENDCHAR
STARTCHAR U+041A
ENCODING 1050
SWIDTH 1000 0
DWIDTH 12 0
BBX 12 12 0 -2
BITMAP 
0000
7980
3340
3600
3400
3800
3400
3600
3300
3180
7bc0
0000
ENDCHAR
STARTCHAR U+041B
ENCODING 1051
SWIDTH 1000 0
DWIDTH 12 0
BBX 12 12 0 -2
BITMAP 
0000
3fc0
0d80
0d80
0d80
0d80
1980
1980
1980
d180
63c0
0000
ENDCHAR
STARTCHAR U+041C
ENCODING 1052
SWIDTH 1000 0
DWIDTH 12 0
BBX 12 12 0 -2
BITMAP 
0000
e1c0
6180
7380
7380
6a80
6a80
ccc0
ccc0
ccc0
e1e0
0000
ENDCHAR
STARTCHAR U+041D
ENCODING 1053
SWIDTH 1000 0
DWIDTH 12 0
BBX 12 12 0 -2
BITMAP 
0000
f3c0
6180
6180
6180
7f80
6180
6180
6180
6180
f3c0
0000
ENDCHAR
STARTCHAR U+041E
ENCODING 1054
SWIDTH 1000 0
DWIDTH 12 0
BBX 12 12 0 -2
BITMAP 
0000
1e00
3300
6180
c0c0
c0c0
c0c0
c0c0
6180
3300
1e00
0000
ENDCHAR
STARTCHAR U+041F
ENCODING 1055
SWIDTH 1000 0
DWIDTH 12 0
BBX 12 12 0 -2
BITMAP 
0000
ff80
6300
6300
6300
6300
6300
6300
6300
6300
f780
0000
ENDCHAR
STARTCHAR U+0420
ENCODING 1056
SWIDTH 1000 0
DWIDTH 12 0
BBX 12 12 0 -2
BITMAP 
0000
7e00
3300
3180
3180
3300
3e00
3000
3000
3000
7800
0000
ENDCHAR
STARTCHAR U+0421
ENCODING 1057
SWIDTH 1000 0
DWIDTH 12 0
BBX 12 12 0 -2
BITMAP 
0000
0f40
19c0
30c0
6000
6000
6000
6000
30c0
1980
0f00
0000
ENDCHAR
STARTCHAR U+0422
ENCODING 1058
SWIDTH 1000 0
DWIDTH 12 0
BBX 12 12 0 -2
BITMAP 
0000
ffc0
ccc0
ccc0
0c00
0c00
0c00
0c00
0c00
0c00
1e00
0000
ENDCHAR
STARTCHAR U+0423
ENCODING 1059
SWIDTH 1000 0
DWIDTH 12 0
BBX 12 12 0 -2
BITMAP 
0000
f3c0
6180
3300
3300
1a00
1a00
0c00
0c00
6c00
3800
0000
ENDCHAR
STARTCHAR U+0424
ENCODING 1060
SWIDTH 1000 0
DWIDTH 12 0
BBX 12 12 0 -2
BITMAP 
0000
1e00
0c00
3f00
6d80
ccc0
ccc0
6d80
3f00
0c00
1e00
0000
ENDCHAR
STARTCHAR U+0425
ENCODING 1061
SWIDTH 1000 0
DWIDTH 12 0
BBX 12 12 0 -2
BITMAP 
0000
f3c0
6180
3300
1a00
0c00
0c00
1a00
3300
6180
f3c0
0000
ENDCHAR
STARTCHAR U+0426
ENCODING 1062
SWIDTH 1000 0
DWIDTH 12 0
BBX 12 12 0 -2
BITMAP 
0000
f780
6300
6300
6300
6300
6300
6300
6300
6300
ffc0
00c0
ENDCHAR
STARTCHAR U+0427
ENCODING 1063
SWIDTH 1000 0
DWIDTH 12 0
BBX 12 12 0 -2
BITMAP 
0000
f780
6300
6300
6300
6300
3700
1d00
0300
0300
0780
0000
ENDCHAR
STARTCHAR U+0428
ENCODING 1064
SWIDTH 1000 0
DWIDTH 12 0
BBX 12 12 0 -2
BITMAP 
0000
eee0
ccc0
ccc0
ccc0
ccc0
ccc0
ccc0
ccc0
ccc0
ffe0
0000
ENDCHAR
STARTCHAR U+0429
ENCODING 1065
SWIDTH 1000 0
DWIDTH 12 0
BBX 12 12 0 -2
BITMAP 
0000
eee0
ccc0
ccc0
ccc0
ccc0
ccc0
ccc0
ccc0
ccc0
fff0
0030
ENDCHAR
STARTCHAR U+042A
ENCODING 1066
SWIDTH 1000 0
DWIDTH 12 0
BBX 12 12 0 -2
BITMAP 
0000
7800
d800
1800
1800
1f00
1980
18c0
18c0
1980
3f00
0000
ENDCHAR
STARTCHAR U+042B
ENCODING 1067
SWIDTH 1000 0
DWIDTH 12 0
BBX 12 12 0 -2
BITMAP 
0000
e3c0
6180
6180
6180
7980
6d80
6680
6680
6d80
fbc0
0000
ENDCHAR
STARTCHAR U+042C
ENCODING 1068
SWIDTH 1000 0
DWIDTH 12 0
BBX 12 12 0 -2
BITMAP 
0000
7000
3000
3000
3e00
3300
3180
3180
3180
3300
3e00
0000
ENDCHAR
STARTCHAR U+042D
ENCODING 1069
SWIDTH 1000 0
DWIDTH 12 0
BBX 12 12 0 -2
BITMAP 
0000
6e00
7300
6180
0180
1d80
3780
0180
6180
3300
1e00
0000
ENDCHAR
STARTCHAR U+042E
ENCODING 1070
SWIDTH 1000 0
DWIDTH 12 0
BBX 12 12 0 -2
BITMAP 
0000
e700
cd80
d8c0
d8c0
f8c0
d8c0
d8c0
d8c0
cd80
e700
0000
ENDCHAR
STARTCHAR U+042F
ENCODING 1071
SWIDTH 1000 0
DWIDTH 12 0
BBX 12 12 0 -2
BITMAP 
0000
1fc0
3180
6180
3180
1f80
0680
0d80
1980
3180
f3c0
0000
ENDCHAR
STARTCHAR U+0430
ENCODING 1072
SWIDTH 1000 0
DWIDTH 12 0
BBX 12 12 0 -2
BITMAP 
0000
0000
0000
0000
0e00
1b00
0f00
1b00
3300
3600
1d80
0000
ENDCHAR
STARTCHAR U+0431
ENCODING 1073
SWIDTH 1000 0
DWIDTH 12 0
BBX 12 12 0 -2
BITMAP 
0000
0700
1c00
3000
6000
6c00
7600
6300
6300
3600
1c00
0000
ENDCHAR
STARTCHAR U+0432
ENCODING 1074
SWIDTH 1000 0
DWIDTH 12 0
BBX 12 12 0 -2
BITMAP 
0000
0000
0000
0000
7e00
3300
3300
3e00
3300
3300
7e00
0000
ENDCHAR
STARTCHAR U+0433
ENCODING 1075
SWIDTH 1000 0
DWIDTH 12 0
BBX 12 12 0 -2
BITMAP 
0000
0000
0000
0000
7e00
3300
3000
3000
3000
3000
7800
0000
ENDCHAR
STARTCHAR U+0434
ENCODING 1076
SWIDTH 1000 0
DWIDTH 12 0
BBX 12 12 0 -2
BITMAP 
0000
0000
0000
0000
3f80
1b00
1b00
1b00
3300
3300
ff80
c180
ENDCHAR
STARTCHAR U+0435
ENCODING 1077
SWIDTH 1000 0
DWIDTH 12 0
BBX 12 12 0 -2
BITMAP 
0000
0000
0000
0000
1c00
3600
6300
7f00
6000
3300
1e00
0000
ENDCHAR
STARTCHAR U+0436
ENCODING 1078
SWIDTH 1000 0
DWIDTH 12 0
BBX 12 12 0 -2
BITMAP 
0000
0000
0000
0000
eec0
3500
3500
1e00
3500
6d80
eec0
0000
ENDCHAR
STARTCHAR U+0437
ENCODING 1079
SWIDTH 1000 0
DWIDTH 12 0
BBX 12 12 0 -2
BITMAP 
0000
0000
0000
0000
0f00
3980
0180
0f00
0180
3180
1f00
0000
ENDCHAR
STARTCHAR U+0438
ENCODING 1080
SWIDTH 1000 0
DWIDTH 12 0
BBX 12 12 0 -2
BITMAP 
0000
0000
0000
0000
7bc0
3380
3680
3580
3980
3180
7bc0
0000
ENDCHAR
STARTCHAR U+0439
ENCODING 1081
SWIDTH 1000 0
DWIDTH 12 0
BBX 12 12 0 -2
BITMAP 
0000
1b00
0e00
0000
7bc0
3380
3680
3580
3980
3180
7bc0
0000
ENDCHAR
STARTCHAR U+043A
ENCODING 1082
SWIDTH 1000 0
DWIDTH 12 0
BBX 12 12 0 -2
BITMAP 
0000
0000
0000
0000
7b00
3680
3400
3800
3400
3600
7b80
0000
ENDCHAR
STARTCHAR U+043B
ENCODING 1083
SWIDTH 1000 0
DWIDTH 12 0
BBX 12 12 0 -2
BITMAP 
0000
0000
0000
0000
3f00
1a00
1a00
1a00
3600
d600
6f00
0000
ENDCHAR
STARTCHAR U+043C
ENCODING 1084
SWIDTH 1000 0
DWIDTH 12 0
BBX 12 12 0 -2
BITMAP 
0000
0000
0000
0000
e1c0
7380
7380
6a80
6a80
6d80
f5c0
0000
ENDCHAR
STARTCHAR U+043D
ENCODING 1085
SWIDTH 1000 0
DWIDTH 12 0
BBX 12 12 0 -2
BITMAP 
0000
0000
0000
0000
7b80
3300
3300
3f00
3300
3300
7b80
0000
ENDCHAR
STARTCHAR U+043E
ENCODING 1086
SWIDTH 1000 0
DWIDTH 12 0
BBX 12 12 0 -2
BITMAP 
0000
0000
0000
0000
1e00
3300
6180
6180
6180
3300
1e00
0000
ENDCHAR
STARTCHAR U+043F
ENCODING 1087
SWIDTH 1000 0
DWIDTH 12 0
BBX 12 12 0 -2
BITMAP 
0000
0000
0000
0000
7f80
3300
3300
3300
3300
3300
7b80
0000
ENDCHAR
STARTCHAR U+0440
ENCODING 1088
SWIDTH 1000 0
DWIDTH 12 0
BBX 12 12 0 -2
BITMAP 
0000
0000
0000
0000
7600
3b00
3180
3180
3b00
3600
3000
7800
ENDCHAR
STARTCHAR U+0441
ENCODING 1089
SWIDTH 1000 0
DWIDTH 12 0
BBX 12 12 0 -2
BITMAP 
0000
0000
0000
0000
1e00
3300
6000
6000
6000
3300
1e00
0000
ENDCHAR
STARTCHAR U+0442
ENCODING 1090
SWIDTH 1000 0
DWIDTH 12 0
BBX 12 12 0 -2
BITMAP 
0000
0000
0000
0000
7f80
6d80
0c00
0c00
0c00
0c00
1e00
0000
ENDCHAR
STARTCHAR U+0443
ENCODING 1091
SWIDTH 1000 0
DWIDTH 12 0
BBX 12 12 0 -2
BITMAP 
0000
0000
0000
7bc0
3180
1980
0d00
0700
0600
0c00
6c00
3800
ENDCHAR
STARTCHAR U+0444
ENCODING 1092
SWIDTH 1000 0
DWIDTH 12 0
BBX 12 12 0 -2
BITMAP 
0000
1e00
0c00
3500
6e80
ccc0
ccc0
ccc0
6e80
3500
0c00
1e00
ENDCHAR
STARTCHAR U+0445
ENCODING 1093
SWIDTH 1000 0
DWIDTH 12 0
BBX 12 12 0 -2
BITMAP 
0000
0000
0000
0000
7b80
3300
1a00
0c00
1a00
3300
7b80
0000
ENDCHAR
STARTCHAR U+0446
ENCODING 1094
SWIDTH 1000 0
DWIDTH 12 0
BBX 12 12 0 -2
BITMAP 
0000
0000
0000
0000
7b80
3300
3300
3300
3300
3300
7f80
0180
ENDCHAR
STARTCHAR U+0447
ENCODING 1095
SWIDTH 1000 0
DWIDTH 12 0
BBX 12 12 0 -2
BITMAP 
0000
0000
0000
0000
7b80
3300
3300
1f00
0300
0300
0780
0000
ENDCHAR
STARTCHAR U+0448
ENCODING 1096
SWIDTH 1000 0
DWIDTH 12 0
BBX 12 12 0 -2
BITMAP 
0000
0000
0000
0000
6d80
6d80
6d80
6d80
6d80
6d80
7f80
0000
ENDCHAR
STARTCHAR U+0449
ENCODING 1097
SWIDTH 1000 0
DWIDTH 12 0
BBX 12 12 0 -2
BITMAP 
0000
0000
0000
0000
db00
db00
db00
db00
db00
db00
ffc0
00c0
ENDCHAR
STARTCHAR U+044A
ENCODING 1098
SWIDTH 1000 0
DWIDTH 12 0
BBX 12 12 0 -2
BITMAP 
0000
0000
0000
0000
7000
d000
3e00
3300
3300
3300
7e00
0000
ENDCHAR
STARTCHAR U+044B
ENCODING 1099
SWIDTH 1000 0
DWIDTH 12 0
BBX 12 12 0 -2
BITMAP 
0000
0000
0000
0000
f780
6300
6300
7b00
6d00
6d00
fb80
0000
ENDCHAR
STARTCHAR U+044C
ENCODING 1100
SWIDTH 1000 0
DWIDTH 12 0
BBX 12 12 0 -2
BITMAP 
0000
0000
0000
0000
7800
3000
3e00
3300
3300
3300
7e00
0000
ENDCHAR
STARTCHAR U+044D
ENCODING 1101
SWIDTH 1000 0
DWIDTH 12 0
BBX 12 12 0 -2
BITMAP 
0000
0000
0000
0000
3e00
6300
1b00
3500
0300
6300
3e00
0000
ENDCHAR
STARTCHAR U+044E
ENCODING 1102
SWIDTH 1000 0
DWIDTH 12 0
BBX 12 12 0 -2
BITMAP 
0000
0000
0000
0000
f700
6d80
68c0
78c0
68c0
6d80
f700
0000
ENDCHAR
STARTCHAR U+044F
ENCODING 1103
SWIDTH 1000 0
DWIDTH 12 0
BBX 12 12 0 -2
BITMAP 
0000
0000
0000
0000
1f80
3300
3300
1f00
1b00
3300
7b80
0000
ENDCHAR
STARTCHAR U+0451
ENCODING 1105
SWIDTH 1000 0
DWIDTH 12 0
BBX 12 12 0 -2
BITMAP 
0000
0000
3600
0000
1c00
3600
6300
7f00
6000
3300
1e00
0000
ENDCHAR
STARTCHAR U+1E3E
ENCODING 7742
SWIDTH 1000 0
DWIDTH 12 0
BBX 12 12 0 -2
BITMAP 
0000
0300
f6e0
75c0
7bc0
7bc0
6ac0
6ec0
6dc0
6dc0
f1e0
0000
ENDCHAR
STARTCHAR U+1E3F
ENCODING 7743
SWIDTH 1000 0
DWIDTH 12 0
BBX 12 12 0 -2
BITMAP 
0000
0000
0300
0600
0c00
76c0
3b60
3b60
3b60
3b60
7b70
0000
ENDCHAR
STARTCHAR U+1F70
ENCODING 8048
SWIDTH 1000 0
DWIDTH 12 0
BBX 12 12 0 -2
BITMAP 
0000
0000
0c00
0600
0300
1e80
3b80
3b80
3b80
3b80
1ec0
0000
ENDCHAR
STARTCHAR U+1F71
ENCODING 8049
SWIDTH 1000 0
DWIDTH 12 0
BBX 12 12 0 -2
BITMAP 
0000
0000
0300
0600
0c00
1e80
3b80
3b80
3b80
3b80
1ec0
0000
ENDCHAR
STARTCHAR U+1F72
ENCODING 8050
SWIDTH 1000 0
DWIDTH 12 0
BBX 12 12 0 -2
BITMAP 
0000
0000
0c00
0600
0300
1f80
38c0
1f00
3800
38c0
0f80
0000
ENDCHAR
STARTCHAR U+1F73
ENCODING 8051
SWIDTH 1000 0
DWIDTH 12 0
BBX 12 12 0 -2
BITMAP 
0000
0000
0300
0600
0c00
1f80
38c0
1f00
3800
38c0
0f80
0000
ENDCHAR
STARTCHAR U+2010
ENCODING 8208
SWIDTH 1000 0
DWIDTH 12 0
BBX 12 12 0 -2
BITMAP 
0000
0000
0000
0000
0000
0000
1f00
0000
0000
0000
0000
0000
ENDCHAR
STARTCHAR U+2013
ENCODING 8211
SWIDTH 1000 0
DWIDTH 12 0
BBX 12 12 0 -2
BITMAP 
0000
0000
0000
0000
0000
0000
1f80
0000
0000
0000
0000
0000
ENDCHAR
STARTCHAR U+2014
ENCODING 8212
SWIDTH 1000 0
DWIDTH 12 0
BBX 12 12 0 -2
BITMAP 
0000
0000
0000
0000
0000
0000
7fc0
0000
0000
0000
0000
0000
ENDCHAR
STARTCHAR U+2015
ENCODING 8213
SWIDTH 1000 0
DWIDTH 12 0
BBX 12 12 0 -2
BITMAP 
0000
0000
0000
0000
0000
0000
fff0
0000
0000
0000
0000
0000
ENDCHAR
STARTCHAR U+2016
ENCODING 8214
SWIDTH 1000 0
DWIDTH 12 0
BBX 12 12 0 -2
BITMAP 
1b00
1b00
1b00
1b00
1b00
1b00
1b00
1b00
1b00
1b00
1b00
1b00
ENDCHAR
STARTCHAR U+2018
ENCODING 8216
SWIDTH 1000 0
DWIDTH 12 0
BBX 12 12 0 -2
BITMAP 
0060
00c0
00c0
00e0
0000
0000
0000
0000
0000
0000
0000
0000
ENDCHAR
STARTCHAR U+2019
ENCODING 8217
SWIDTH 1000 0
DWIDTH 12 0
BBX 12 12 0 -2
BITMAP 
7000
3000
3000
6000
0000
0000
0000
0000
0000
0000
0000
0000
ENDCHAR
STARTCHAR U+201C
ENCODING 8220
SWIDTH 1000 0
DWIDTH 12 0
BBX 12 12 0 -2
BITMAP 
0360
06c0
06c0
0760
0000
0000
0000
0000
0000
0000
0000
0000
ENDCHAR
STARTCHAR U+201D
ENCODING 8221
SWIDTH 1000 0
DWIDTH 12 0
BBX 12 12 0 -2
BITMAP 
ec00
6c00
6c00
d800
0000
0000
0000
0000
0000
0000
0000
0000
ENDCHAR
STARTCHAR U+2020
ENCODING 8224
SWIDTH 1000 0
DWIDTH 12 0
BBX 12 12 0 -2
BITMAP 
0c00
1e00
6d80
ffc0
6d80
1e00
1e00
0c00
0c00
0c00
0c00
0c00
ENDCHAR
STARTCHAR U+2021
ENCODING 8225
SWIDTH 1000 0
DWIDTH 12 0
BBX 12 12 0 -2
BITMAP 
1e00
1e00
6d80
ffc0
6d80
0c00
0c00
6d80
ffc0
6d80
1e00
1e00
ENDCHAR
STARTCHAR U+2022
ENCODING 8226
SWIDTH 1000 0
DWIDTH 12 0
BBX 12 12 0 -2
BITMAP 
0000
0000
0000
0f00
1f80
1f80
1f80
0f00
0000
0000
0000
0000
ENDCHAR
STARTCHAR U+2025
ENCODING 8229
SWIDTH 1000 0
DWIDTH 12 0
BBX 12 12 0 -2
BITMAP 
0000
0000
0000
0000
0000
6180
6180
0000
0000
0000
0000
0000
ENDCHAR
STARTCHAR U+2026
ENCODING 8230
SWIDTH 1000 0
DWIDTH 12 0
BBX 12 12 0 -2
BITMAP 
0000
0000
0000
0000
0000
ccc0
ccc0
0000
0000
0000
0000
0000
ENDCHAR
STARTCHAR U+2030
ENCODING 8240
SWIDTH 1000 0
DWIDTH 12 0
BBX 12 12 0 -2
BITMAP 
7300
db00
da00
dc00
7400
1800
3000
34c0
6aa0
daa0
ccc0
0000
ENDCHAR
STARTCHAR U+2032
ENCODING 8242
SWIDTH 1000 0
DWIDTH 12 0
BBX 12 12 0 -2
BITMAP 
3800
1800
1800
3000
0000
0000
0000
0000
0000
0000
0000
0000
ENDCHAR
STARTCHAR U+2033
ENCODING 8243
SWIDTH 1000 0
DWIDTH 12 0
BBX 12 12 0 -2
BITMAP 
7600
3600
3600
6c00
0000
0000
0000
0000
0000
0000
0000
0000
ENDCHAR
STARTCHAR U+2035
ENCODING 8245
SWIDTH 1000 0
DWIDTH 12 0
BBX 12 12 0 -2
BITMAP 
0000
1c00
0600
0000
0000
0000
0000
0000
0000
0000
0000
0000
ENDCHAR
STARTCHAR U+203B
ENCODING 8251
SWIDTH 1000 0
DWIDTH 12 0
BBX 12 12 0 -2
BITMAP 
0000
ce60
6ec0
3180
1b00
eee0
eee0
1b00
3180
6ec0
ce60
0000
ENDCHAR
STARTCHAR U+203C
ENCODING 8252
SWIDTH 1000 0
DWIDTH 12 0
BBX 12 12 0 -2
BITMAP 
0000
1b00
1d80
1d80
1d80
1d00
1b00
1b00
0000
1d80
1d80
0000
ENDCHAR
STARTCHAR U+203E
ENCODING 8254
SWIDTH 1000 0
DWIDTH 12 0
BBX 12 12 0 -2
BITMAP 
0000
fff0
0000
0000
0000
0000
0000
0000
0000
0000
0000
0000
ENDCHAR
STARTCHAR U+203F
ENCODING 8255
SWIDTH 1000 0
DWIDTH 12 0
BBX 12 12 0 -2
BITMAP 
0000
0000
0000
0000
0000
0000
0000
0000
0000
6060
30c0
1f80
ENDCHAR
STARTCHAR U+2042
ENCODING 8258
SWIDTH 1000 0
DWIDTH 12 0
BBX 12 12 0 -2
BITMAP 
0000
0600
1a80
0f00
0f00
1a80
36c0
d550
79e0
79e0
d550
30c0
ENDCHAR
STARTCHAR U+2048
ENCODING 8264
SWIDTH 1000 0
DWIDTH 12 0
BBX 12 12 0 -2
BITMAP 
0000
1cc0
36e0
7760
7760
0ee0
18c0
18c0
0000
18c0
18c0
0000
ENDCHAR
STARTCHAR U+2049
ENCODING 8265
SWIDTH 1000 0
DWIDTH 12 0
BBX 12 12 0 -2
BITMAP 
0000
6380
76c0
76e0
76e0
71c0
6300
6300
0000
6300
6300
0000
ENDCHAR
STARTCHAR U+2074
ENCODING 8308
SWIDTH 1000 0
DWIDTH 12 0
BBX 12 12 0 -2
BITMAP 
3800
3800
6800
6800
7c00
1800
0000
0000
0000
0000
0000
0000
ENDCHAR
STARTCHAR U+207F
ENCODING 8319
SWIDTH 1000 0
DWIDTH 12 0
BBX 12 12 0 -2
BITMAP 
7800
6c00
6c00
6c00
6c00
0000
0000
0000
0000
0000
0000
0000
ENDCHAR
STARTCHAR U+2081
ENCODING 8321
SWIDTH 1000 0
DWIDTH 12 0
BBX 12 12 0 -2
BITMAP 
0000
0000
0000
0000
1800
3800
1800
1800
1800
1800
0000
0000
ENDCHAR
STARTCHAR U+2082
ENCODING 8322
SWIDTH 1000 0
DWIDTH 12 0
BBX 12 12 0 -2
BITMAP 
0000
0000
0000
0000
3800
6c00
0c00
1800
3000
7c00
0000
0000
ENDCHAR
STARTCHAR U+2083
ENCODING 8323
SWIDTH 1000 0
DWIDTH 12 0
BBX 12 12 0 -2
BITMAP 
0000
0000
0000
0000
3800
6c00
1800
0c00
6c00
3800
0000
0000
ENDCHAR
STARTCHAR U+2084
ENCODING 8324
SWIDTH 1000 0
DWIDTH 12 0
BBX 12 12 0 -2
BITMAP 
0000
0000
0000
0000
3800
3800
6800
6800
7c00
1800
0000
0000
ENDCHAR
STARTCHAR U+20AC
ENCODING 8364
SWIDTH 1000 0
DWIDTH 12 0
BBX 12 12 0 -2
BITMAP 
0000
0f00
19c0
38c0
ff80
7000
ff00
7000
38c0
19c0
0f00
0000
ENDCHAR
STARTCHAR U+2103
ENCODING 8451
SWIDTH 1000 0
DWIDTH 12 0
BBX 12 12 0 -2
BITMAP 
0000
6740
d5c0
68c0
3000
3000
3000
3000
30c0
1980
0f00
0000
ENDCHAR
STARTCHAR U+2105
ENCODING 8453
SWIDTH 1000 0
DWIDTH 12 0
BBX 12 12 0 -2
BITMAP 
0000
f0c0
8180
8300
8600
35c0
6860
3060
6c60
ccc0
8780
0000
ENDCHAR
STARTCHAR U+2109
ENCODING 8457
SWIDTH 1000 0
DWIDTH 12 0
BBX 12 12 0 -2
BITMAP 
37f0
6a00
6a00
3600
07e0
0600
0600
0600
0600
0600
0000
0000
ENDCHAR
STARTCHAR U+210F
ENCODING 8463
SWIDTH 1000 0
DWIDTH 12 0
BBX 12 12 0 -2
BITMAP 
0000
3e00
0f80
0e00
3c00
1f80
1cc0
19c0
3980
3ba0
31c0
0000
ENDCHAR
STARTCHAR U+2113
ENCODING 8467
SWIDTH 1000 0
DWIDTH 12 0
BBX 12 12 0 -2
BITMAP 
0300
0680
0680
0680
0680
0700
0600
0ec0
1b80
0000
0000
0000
ENDCHAR
STARTCHAR U+2116
ENCODING 8470
SWIDTH 1000 0
DWIDTH 12 0
BBX 12 12 0 -2
BITMAP 
6c00
6c00
7400
75c0
6d60
6d60
6d60
6d60
6dc0
0000
0000
0000
ENDCHAR
STARTCHAR U+2121
ENCODING 8481
SWIDTH 1000 0
DWIDTH 12 0
BBX 12 12 0 -2
BITMAP 
7e00
1800
1800
1bc0
1a60
1be0
1a00
1a60
1bc0
0000
0000
0000
ENDCHAR
STARTCHAR U+2122
ENCODING 8482
SWIDTH 1000 0
DWIDTH 12 0
BBX 12 12 0 -2
BITMAP 
7e80
19d0
19d0
19a0
19a0
1980
0000
0000
0000
0000
0000
0000
ENDCHAR
STARTCHAR U+2126
ENCODING 8486
SWIDTH 1000 0
DWIDTH 12 0
BBX 12 12 0 -2
BITMAP 
0780
0cc0
1860
1860
0cc0
0680
0680
1aa0
1ee0
0000
0000
0000
ENDCHAR
STARTCHAR U+2127
ENCODING 8487
SWIDTH 1000 0
DWIDTH 12 0
BBX 12 12 0 -2
BITMAP 
0000
7de0
6d60
1980
39c0
70e0
70e0
70e0
39c0
1980
0f00
0000
ENDCHAR
STARTCHAR U+212B
ENCODING 8491
SWIDTH 1000 0
DWIDTH 12 0
BBX 12 12 0 -2
BITMAP 
0c00
1a00
1a00
0c00
1a00
1a00
3300
3f00
6180
6180
f3c0
0000
ENDCHAR
STARTCHAR U+2135
ENCODING 8501
SWIDTH 1000 0
DWIDTH 12 0
BBX 12 12 0 -2
BITMAP 
0000
3300
3180
39c0
1de0
1f80
3f00
3380
31c0
39c0
71c0
0000
ENDCHAR
STARTCHAR U+2153
ENCODING 8531
SWIDTH 1000 0
DWIDTH 12 0
BBX 12 12 0 -2
BITMAP 
1800
3830
1860
18c0
1980
1b60
06b0
0c60
1830
31b0
60e0
0000
ENDCHAR
STARTCHAR U+2154
ENCODING 8532
SWIDTH 1000 0
DWIDTH 12 0
BBX 12 12 0 -2
BITMAP 
3800
6c30
0c60
18c0
3180
7d60
06b0
0c60
1830
31b0
60e0
0000
ENDCHAR
STARTCHAR U+2155
ENCODING 8533
SWIDTH 1000 0
DWIDTH 12 0
BBX 12 12 0 -2
BITMAP 
0000
1800
7800
18c0
1980
1b00
0600
0de0
1b00
33c0
6060
03c0
ENDCHAR
STARTCHAR U+215B
ENCODING 8539
SWIDTH 1000 0
DWIDTH 12 0
BBX 12 12 0 -2
BITMAP 
1800
3830
1860
18c0
1980
1b60
06b0
0ce0
19b0
31b0
60e0
0000
ENDCHAR
STARTCHAR U+215C
ENCODING 8540
SWIDTH 1000 0
DWIDTH 12 0
BBX 12 12 0 -2
BITMAP 
3800
6c30
1860
0cc0
6d80
3b60
06b0
0ce0
19b0
31b0
60e0
0000
ENDCHAR
STARTCHAR U+215D
ENCODING 8541
SWIDTH 1000 0
DWIDTH 12 0
BBX 12 12 0 -2
BITMAP 
7c00
6030
7860
0cc0
6d80
3b60
06b0
0ce0
19b0
31b0
60e0
0000
ENDCHAR
STARTCHAR U+215E
ENCODING 8542
SWIDTH 1000 0
DWIDTH 12 0
BBX 12 12 0 -2
BITMAP 
3e00
0630
0c60
0cc0
1980
1b60
06b0
0ce0
19b0
31b0
60e0
0000
ENDCHAR
STARTCHAR U+2160
ENCODING 8544
SWIDTH 1000 0
DWIDTH 12 0
BBX 12 12 0 -2
BITMAP 
0300
0300
0300
0300
0300
0300
0300
0300
0300
0000
0000
0000
ENDCHAR
STARTCHAR U+2161
ENCODING 8545
SWIDTH 1000 0
DWIDTH 12 0
BBX 12 12 0 -2
BITMAP 
0cc0
0cc0
0cc0
0cc0
0cc0
0cc0
0cc0
0cc0
0cc0
0000
0000
0000
ENDCHAR
STARTCHAR U+2162
ENCODING 8546
SWIDTH 1000 0
DWIDTH 12 0
BBX 12 12 0 -2
BITMAP 
1b60
1b60
1b60
1b60
1b60
1b60
1b60
1b60
1b60
0000
0000
0000
ENDCHAR
STARTCHAR U+2163
ENCODING 8547
SWIDTH 1000 0
DWIDTH 12 0
BBX 12 12 0 -2
BITMAP 
3660
3660
3660
3340
3340
3340
3180
3180
3180
0000
0000
0000
ENDCHAR
STARTCHAR U+2164
ENCODING 8548
SWIDTH 1000 0
DWIDTH 12 0
BBX 12 12 0 -2
BITMAP 
0cc0
0cc0
0cc0
0680
0680
0680
0300
0300
0300
0000
0000
0000
ENDCHAR
STARTCHAR U+2165
ENCODING 8549
SWIDTH 1000 0
DWIDTH 12 0
BBX 12 12 0 -2
BITMAP 
3360
3360
3360
1a60
1a60
1a60
0c60
0c60
0c60
0000
0000
0000
ENDCHAR
STARTCHAR U+2166
ENCODING 8550
SWIDTH 1000 0
DWIDTH 12 0
BBX 12 12 0 -2
BITMAP 
3350
3350
3350
1ad0
1ad0
1ad0
0cd0
0cd0
0cd0
0000
0000
0000
ENDCHAR
STARTCHAR U+2167
ENCODING 8551
SWIDTH 1000 0
DWIDTH 12 0
BBX 12 12 0 -2
BITMAP 
66a0
66a0
66a0
35a0
35a0
35a0
19a0
19a0
19a0
0000
0000
0000
ENDCHAR
STARTCHAR U+2168
ENCODING 8552
SWIDTH 1000 0
DWIDTH 12 0
BBX 12 12 0 -2
BITMAP 
3660
3660
3340
3340
3180
3340
3340
3660
3660
0000
0000
0000
ENDCHAR
STARTCHAR U+2169
ENCODING 8553
SWIDTH 1000 0
DWIDTH 12 0
BBX 12 12 0 -2
BITMAP 
0cc0
0cc0
0680
0680
0300
0680
0680
0cc0
0cc0
0000
0000
0000
ENDCHAR
STARTCHAR U+216A
ENCODING 8554
SWIDTH 1000 0
DWIDTH 12 0
BBX 12 12 0 -2
BITMAP 
0000
f7e0
76c0
75c0
3dc0
39c0
3dc0
6dc0
6ec0
cec0
efe0
0000
ENDCHAR
STARTCHAR U+216B
ENCODING 8555
SWIDTH 1000 0
DWIDTH 12 0
BBX 12 12 0 -2
BITMAP 
0000
f7e0
7740
7540
3d40
3b40
3d40
6d40
6f40
cf40
efe0
0000
ENDCHAR
STARTCHAR U+2170
ENCODING 8560
SWIDTH 1000 0
DWIDTH 12 0
BBX 12 12 0 -2
BITMAP 
0300
0000
0000
0300
0300
0300
0300
0300
0300
0000
0000
0000
ENDCHAR
STARTCHAR U+2171
ENCODING 8561
SWIDTH 1000 0
DWIDTH 12 0
BBX 12 12 0 -2
BITMAP 
0d80
0000
0000
0d80
0d80
0d80
0d80
0d80
0d80
0000
0000
0000
ENDCHAR
STARTCHAR U+2172
ENCODING 8562
SWIDTH 1000 0
DWIDTH 12 0
BBX 12 12 0 -2
BITMAP 
1b60
0000
0000
1b60
1b60
1b60
1b60
1b60
1b60
0000
0000
0000
ENDCHAR
STARTCHAR U+2173
ENCODING 8563
SWIDTH 1000 0
DWIDTH 12 0
BBX 12 12 0 -2
BITMAP 
0c00
0000
0000
0d40
0d40
0d40
0d40
0d80
0d80
0000
0000
0000
ENDCHAR
STARTCHAR U+2174
ENCODING 8564
SWIDTH 1000 0
DWIDTH 12 0
BBX 12 12 0 -2
BITMAP 
0000
0000
0000
0cc0
0cc0
0680
0680
0300
0300
0000
0000
0000
ENDCHAR
STARTCHAR U+2175
ENCODING 8565
SWIDTH 1000 0
DWIDTH 12 0
BBX 12 12 0 -2
BITMAP 
00c0
0000
0000
3340
3340
1ac0
1ac0
0cc0
0cc0
0000
0000
0000
ENDCHAR
STARTCHAR U+2176
ENCODING 8566
SWIDTH 1000 0
DWIDTH 12 0
BBX 12 12 0 -2
BITMAP 
01a0
0000
0000
1aa0
1aa0
1aa0
1aa0
0da0
0da0
0000
0000
0000
ENDCHAR
STARTCHAR U+2177
ENCODING 8567
SWIDTH 1000 0
DWIDTH 12 0
BBX 12 12 0 -2
BITMAP 
0350
0000
0000
3550
3550
3550
3550
1b50
1b50
0000
0000
0000
ENDCHAR
STARTCHAR U+2178
ENCODING 8568
SWIDTH 1000 0
DWIDTH 12 0
BBX 12 12 0 -2
BITMAP 
3000
0000
0000
3660
3340
3180
3180
3340
3660
0000
0000
0000
ENDCHAR
STARTCHAR U+2179
ENCODING 8569
SWIDTH 1000 0
DWIDTH 12 0
BBX 12 12 0 -2
BITMAP 
0000
0000
0000
0cc0
0680
0300
0300
0680
0cc0
0000
0000
0000
ENDCHAR
STARTCHAR U+217A
ENCODING 8570
SWIDTH 1000 0
DWIDTH 12 0
BBX 12 12 0 -2
BITMAP 
0000
0000
01c0
01c0
0000
7fc0
3ac0
1dc0
1ec0
37c0
7be0
0000
ENDCHAR
STARTCHAR U+217B
ENCODING 8571
SWIDTH 1000 0
DWIDTH 12 0
BBX 12 12 0 -2
BITMAP 
0000
0000
01a0
01a0
0000
fff0
75a0
39a0
3da0
6ea0
f7f0
0000
ENDCHAR
STARTCHAR U+2190
ENCODING 8592
SWIDTH 1000 0
DWIDTH 12 0
BBX 12 12 0 -2
BITMAP 
0000
0000
0000
1c00
7000
fff0
7000
1c00
0000
0000
0000
0000
ENDCHAR
STARTCHAR U+2191
ENCODING 8593
SWIDTH 1000 0
DWIDTH 12 0
BBX 12 12 0 -2
BITMAP 
0600
0600
0f00
0f00
1a80
1a80
0600
0600
0600
0600
0600
0600
ENDCHAR
STARTCHAR U+2192
ENCODING 8594
SWIDTH 1000 0
DWIDTH 12 0
BBX 12 12 0 -2
BITMAP 
0000
0000
0000
0700
01c0
fff0
01c0
0700
0000
0000
0000
0000
ENDCHAR
STARTCHAR U+2193
ENCODING 8595
SWIDTH 1000 0
DWIDTH 12 0
BBX 12 12 0 -2
BITMAP 
0600
0600
0600
0600
0600
0600
1a80
1a80
0f00
0f00
0600
0600
ENDCHAR
STARTCHAR U+2194
ENCODING 8596
SWIDTH 1000 0
DWIDTH 12 0
BBX 12 12 0 -2
BITMAP 
0000
0000
1860
3030
7ff0
3030
1860
0000
0000
0000
0000
0000
ENDCHAR
STARTCHAR U+2195
ENCODING 8597
SWIDTH 1000 0
DWIDTH 12 0
BBX 12 12 0 -2
BITMAP 
0300
0780
0d40
0300
0300
0300
0300
0300
0d40
0780
0300
0000
ENDCHAR
STARTCHAR U+2196
ENCODING 8598
SWIDTH 1000 0
DWIDTH 12 0
BBX 12 12 0 -2
BITMAP 
0000
3f00
3800
3400
3600
3300
0180
00c0
0060
0030
0000
0000
ENDCHAR
STARTCHAR U+2197
ENCODING 8599
SWIDTH 1000 0
DWIDTH 12 0
BBX 12 12 0 -2
BITMAP 
03f0
0070
00d0
01b0
0330
0600
0c00
1800
3000
0000
0000
0000
ENDCHAR
STARTCHAR U+2198
ENCODING 8600
SWIDTH 1000 0
DWIDTH 12 0
BBX 12 12 0 -2
BITMAP 
0000
3000
1800
0c00
0600
0330
01b0
00d0
0070
03f0
0000
0000
ENDCHAR
STARTCHAR U+2199
ENCODING 8601
SWIDTH 1000 0
DWIDTH 12 0
BBX 12 12 0 -2
BITMAP 
0030
0060
00c0
0180
3300
3600
3400
3800
3e00
0000
0000
0000
ENDCHAR
STARTCHAR U+21C4
ENCODING 8644
SWIDTH 1000 0
DWIDTH 12 0
BBX 12 12 0 -2
BITMAP 
0000
00c0
0060
fff0
0060
00c0
3000
6000
fff0
6000
3000
0000
ENDCHAR
STARTCHAR U+21D2
ENCODING 8658
SWIDTH 1000 0
DWIDTH 12 0
BBX 12 12 0 -2
BITMAP 
0000
0000
0180
00c0
ffe0
0030
ffe0
00c0
0180
0000
0000
0000
ENDCHAR
STARTCHAR U+21D4
ENCODING 8660
SWIDTH 1000 0
DWIDTH 12 0
BBX 12 12 0 -2
BITMAP 
0000
0000
3180
60c0
ffe0
8030
ffe0
60c0
3180
0000
0000
0000
ENDCHAR
STARTCHAR U+21E6
ENCODING 8678
SWIDTH 1000 0
DWIDTH 12 0
BBX 12 12 0 -2
BITMAP 
0000
0000
1800
3800
6ff0
c030
c030
6ff0
3800
1800
0000
0000
ENDCHAR
STARTCHAR U+21E7
ENCODING 8679
SWIDTH 1000 0
DWIDTH 12 0
BBX 12 12 0 -2
BITMAP 
0000
0e00
1b00
3180
7bc0
1b00
1b00
1b00
1b00
1b00
1b00
1f00
ENDCHAR
STARTCHAR U+21E8
ENCODING 8680
SWIDTH 1000 0
DWIDTH 12 0
BBX 12 12 0 -2
BITMAP 
0000
0000
0180
01c0
ffa0
c030
c030
ffa0
01c0
0180
0000
0000
ENDCHAR
STARTCHAR U+21E9
ENCODING 8681
SWIDTH 1000 0
DWIDTH 12 0
BBX 12 12 0 -2
BITMAP 
0000
1f00
1b00
1b00
1b00
1b00
1b00
1b00
7bc0
3180
1b00
0e00
ENDCHAR
STARTCHAR U+2200
ENCODING 8704
SWIDTH 1000 0
DWIDTH 12 0
BBX 12 12 0 -2
BITMAP 
0000
c0c0
c0c0
6180
7f80
3300
3300
1a00
1a00
0c00
0c00
0000
ENDCHAR
STARTCHAR U+2202
ENCODING 8706
SWIDTH 1000 0
DWIDTH 12 0
BBX 12 12 0 -2
BITMAP 
0000
0f00
1980
0180
0e80
1b80
3380
7300
7700
3600
1c00
0000
ENDCHAR
STARTCHAR U+2203
ENCODING 8707
SWIDTH 1000 0
DWIDTH 12 0
BBX 12 12 0 -2
BITMAP 
0000
7fc0
00c0
00c0
00c0
7fc0
00c0
00c0
00c0
7fc0
0000
0000
ENDCHAR
STARTCHAR U+2205
ENCODING 8709
SWIDTH 1000 0
DWIDTH 12 0
BBX 12 12 0 -2
BITMAP 
0000
0000
0060
0f40
1980
3340
36c0
34c0
1980
3700
6000
0000
ENDCHAR
STARTCHAR U+2207
ENCODING 8711
SWIDTH 1000 0
DWIDTH 12 0
BBX 12 12 0 -2
BITMAP 
0000
ffe0
ffc0
e0c0
6180
7180
3300
3b00
1a00
1e00
0c00
0c00
ENDCHAR
STARTCHAR U+2208
ENCODING 8712
SWIDTH 1000 0
DWIDTH 12 0
BBX 12 12 0 -2
BITMAP 
0000
0000
1fc0
3000
6000
7fc0
6000
3000
1fc0
0000
0000
0000
ENDCHAR
STARTCHAR U+2209
ENCODING 8713
SWIDTH 1000 0
DWIDTH 12 0
BBX 12 12 0 -2
BITMAP 
0000
0000
0600
1fc0
3600
3600
3fc0
3600
3600
1fc0
0600
0000
ENDCHAR
STARTCHAR U+220B
ENCODING 8715
SWIDTH 1000 0
DWIDTH 12 0
BBX 12 12 0 -2
BITMAP 
0000
0000
7f00
0180
00c0
7fc0
00c0
0180
7f00
0000
0000
0000
ENDCHAR
STARTCHAR U+220F
ENCODING 8719
SWIDTH 1000 0
DWIDTH 12 0
BBX 12 12 0 -2
BITMAP 
7ff0
18c0
18c0
18c0
18c0
18c0
18c0
18c0
18c0
18c0
0000
0000
ENDCHAR
STARTCHAR U+2211
ENCODING 8721
SWIDTH 1000 0
DWIDTH 12 0
BBX 12 12 0 -2
BITMAP 
3fe0
1800
0c00
0600
0300
0600
0c00
1800
3fe0
0000
0000
0000
ENDCHAR
STARTCHAR U+2212
ENCODING 8722
SWIDTH 1000 0
DWIDTH 12 0
BBX 12 12 0 -2
BITMAP 
0000
0000
0000
0000
0000
7fc0
0000
0000
0000
0000
0000
0000
ENDCHAR
STARTCHAR U+2213
ENCODING 8723
SWIDTH 1000 0
DWIDTH 12 0
BBX 12 12 0 -2
BITMAP 
0000
0000
7fe0
0000
0600
0600
0600
7fe0
0600
0600
0600
0000
ENDCHAR
STARTCHAR U+221A
ENCODING 8730
SWIDTH 1000 0
DWIDTH 12 0
BBX 12 12 0 -2
BITMAP 
07f0
0600
0600
0c00
0c00
0c00
1800
d800
e800
7000
3000
0000
ENDCHAR
STARTCHAR U+221D
ENCODING 8733
SWIDTH 1000 0
DWIDTH 12 0
BBX 12 12 0 -2
BITMAP 
0000
0000
0000
39c0
6d60
c600
c600
6d60
39c0
0000
0000
0000
ENDCHAR
STARTCHAR U+221E
ENCODING 8734
SWIDTH 1000 0
DWIDTH 12 0
BBX 12 12 0 -2
BITMAP 
0000
0000
0000
7380
dac0
8c60
8c60
dac0
7380
0000
0000
0000
ENDCHAR
STARTCHAR U+221F
ENCODING 8735
SWIDTH 1000 0
DWIDTH 12 0
BBX 12 12 0 -2
BITMAP 
0000
0000
6000
6000
6000
6000
6000
6000
6000
6000
7fe0
0000
ENDCHAR
STARTCHAR U+2220
ENCODING 8736
SWIDTH 1000 0
DWIDTH 12 0
BBX 12 12 0 -2
BITMAP 
0000
00c0
0180
0300
0600
0c00
1800
3000
6000
ffe0
0000
0000
ENDCHAR
STARTCHAR U+2223
ENCODING 8739
SWIDTH 1000 0
DWIDTH 12 0
BBX 12 12 0 -2
BITMAP 
0000
0e00
0e00
0e00
0e00
0e00
0e00
0e00
0e00
0e00
0e00
0e00
ENDCHAR
STARTCHAR U+2225
ENCODING 8741
SWIDTH 1000 0
DWIDTH 12 0
BBX 12 12 0 -2
BITMAP 
0d80
0d80
0d80
0d80
0d80
0d80
0d80
0d80
0d80
0000
0000
0000
ENDCHAR
STARTCHAR U+2226
ENCODING 8742
SWIDTH 1000 0
DWIDTH 12 0
BBX 12 12 0 -2
BITMAP 
0000
0300
0660
36c0
1cc0
0d80
1f80
1b00
3380
36c0
6600
0c00
ENDCHAR
STARTCHAR U+2227
ENCODING 8743
SWIDTH 1000 0
DWIDTH 12 0
BBX 12 12 0 -2
BITMAP 
0000
0c00
0c00
1a00
1a00
3300
3300
6180
6180
c0c0
c0c0
0000
ENDCHAR
STARTCHAR U+2228
ENCODING 8744
SWIDTH 1000 0
DWIDTH 12 0
BBX 12 12 0 -2
BITMAP 
0000
c0c0
c0c0
6180
6180
3300
3300
1a00
1a00
0c00
0c00
0000
ENDCHAR
STARTCHAR U+2229
ENCODING 8745
SWIDTH 1000 0
DWIDTH 12 0
BBX 12 12 0 -2
BITMAP 
0000
3e00
6300
c180
c180
c180
c180
c180
c180
c180
c180
0000
ENDCHAR
STARTCHAR U+222A
ENCODING 8746
SWIDTH 1000 0
DWIDTH 12 0
BBX 12 12 0 -2
BITMAP 
0000
c180
c180
c180
c180
c180
c180
c180
c180
6300
3e00
0000
ENDCHAR
STARTCHAR U+222B
ENCODING 8747
SWIDTH 1000 0
DWIDTH 12 0
BBX 12 12 0 -2
BITMAP 
01c0
0300
0600
0600
0700
0700
0300
0380
0380
0180
0300
0e00
ENDCHAR
STARTCHAR U+222C
ENCODING 8748
SWIDTH 1000 0
DWIDTH 12 0
BBX 12 12 0 -2
BITMAP 
0ee0
1980
3300
3300
3b80
3b80
1980
1dc0
1dc0
0cc0
1980
7700
ENDCHAR
STARTCHAR U+222E
ENCODING 8750
SWIDTH 1000 0
DWIDTH 12 0
BBX 12 12 0 -2
BITMAP 
0180
0340
0300
0300
0780
0d40
0780
0300
0300
0d00
0600
0000
ENDCHAR
STARTCHAR U+2234
ENCODING 8756
SWIDTH 1000 0
DWIDTH 12 0
BBX 12 12 0 -2
BITMAP 
0000
0000
0e00
0e00
0000
0000
0000
0000
71c0
71c0
0000
0000
ENDCHAR
STARTCHAR U+2235
ENCODING 8757
SWIDTH 1000 0
DWIDTH 12 0
BBX 12 12 0 -2
BITMAP 
0000
0000
e380
e380
0000
0000
0000
0000
1c00
1c00
0000
0000
ENDCHAR
STARTCHAR U+2236
ENCODING 8758
SWIDTH 1000 0
DWIDTH 12 0
BBX 12 12 0 -2
BITMAP 
0000
0000
0000
1c00
0c00
0000
0000
1c00
0000
0000
0000
0000
ENDCHAR
STARTCHAR U+2237
ENCODING 8759
SWIDTH 1000 0
DWIDTH 12 0
BBX 12 12 0 -2
BITMAP 
0000
0000
7180
7180
0000
0000
0000
0180
7380
0000
0000
0000
ENDCHAR
STARTCHAR U+223C
ENCODING 8764
SWIDTH 1000 0
DWIDTH 12 0
BBX 12 12 0 -2
BITMAP 
0000
0000
0000
0000
1e60
33c0
0000
0000
0000
0000
0000
0000
ENDCHAR
STARTCHAR U+223D
ENCODING 8765
SWIDTH 1000 0
DWIDTH 12 0
BBX 12 12 0 -2
BITMAP 
0000
0000
0000
3b80
66c0
c660
cc60
6cc0
3b80
0000
0000
0000
ENDCHAR
STARTCHAR U+2243
ENCODING 8771
SWIDTH 1000 0
DWIDTH 12 0
BBX 12 12 0 -2
BITMAP 
0000
0000
0000
3830
6f60
c1c0
0000
0000
7fe0
0000
0000
0000
ENDCHAR
STARTCHAR U+2245
ENCODING 8773
SWIDTH 1000 0
DWIDTH 12 0
BBX 12 12 0 -2
BITMAP 
0000
0000
0000
3830
6f60
c1c0
0000
7fe0
0000
7fe0
0000
0000
ENDCHAR
STARTCHAR U+2248
ENCODING 8776
SWIDTH 1000 0
DWIDTH 12 0
BBX 12 12 0 -2
BITMAP 
0000
0000
0000
3830
6f60
c1c0
3830
6f60
c1c0
0000
0000
0000
ENDCHAR
STARTCHAR U+224C
ENCODING 8780
SWIDTH 1000 0
DWIDTH 12 0
BBX 12 12 0 -2
BITMAP 
0000
0380
06c0
cc60
cc60
d8c0
7180
ffc0
0000
ffc0
0000
0000
ENDCHAR
STARTCHAR U+2252
ENCODING 8786
SWIDTH 1000 0
DWIDTH 12 0
BBX 12 12 0 -2
BITMAP 
0000
3800
3800
0000
ffe0
0000
0000
ffe0
0000
0380
0380
0000
ENDCHAR
STARTCHAR U+2260
ENCODING 8800
SWIDTH 1000 0
DWIDTH 12 0
BBX 12 12 0 -2
BITMAP 
0000
0300
0300
0600
ffc0
0c00
0c00
ffc0
1800
3000
3000
0000
ENDCHAR
STARTCHAR U+2261
ENCODING 8801
SWIDTH 1000 0
DWIDTH 12 0
BBX 12 12 0 -2
BITMAP 
0000
0000
0000
ffe0
0000
0000
ffe0
0000
0000
ffe0
0000
0000
ENDCHAR
STARTCHAR U+2262
ENCODING 8802
SWIDTH 1000 0
DWIDTH 12 0
BBX 12 12 0 -2
BITMAP 
0000
0180
0180
7fe0
0300
0600
7fe0
0600
0c00
7fe0
1800
1800
ENDCHAR
STARTCHAR U+2264
ENCODING 8804
SWIDTH 1000 0
DWIDTH 12 0
BBX 12 12 0 -2
BITMAP 
0000
01c0
0700
1c00
0700
01c0
0000
1fe0
0000
0000
0000
0000
ENDCHAR
STARTCHAR U+2265
ENCODING 8805
SWIDTH 1000 0
DWIDTH 12 0
BBX 12 12 0 -2
BITMAP 
0000
1c00
0700
01c0
0700
1c00
0000
3fc0
0000
0000
0000
0000
ENDCHAR
STARTCHAR U+2266
ENCODING 8806
SWIDTH 1000 0
DWIDTH 12 0
BBX 12 12 0 -2
BITMAP 
0000
00e0
0780
3c00
e000
3c00
0780
00e0
ffe0
0000
ffe0
0000
ENDCHAR
STARTCHAR U+2267
ENCODING 8807
SWIDTH 1000 0
DWIDTH 12 0
BBX 12 12 0 -2
BITMAP 
0000
e000
3c00
0780
00e0
0780
3c00
e000
ffe0
0000
ffe0
0000
ENDCHAR
STARTCHAR U+226A
ENCODING 8810
SWIDTH 1000 0
DWIDTH 12 0
BBX 12 12 0 -2
BITMAP 
0000
0000
0cc0
1980
3300
6600
cc00
6600
3300
1980
0cc0
0000
ENDCHAR
STARTCHAR U+226B
ENCODING 8811
SWIDTH 1000 0
DWIDTH 12 0
BBX 12 12 0 -2
BITMAP 
0000
0000
cc00
6600
3300
1980
0cc0
1980
3300
6600
cc00
0000
ENDCHAR
STARTCHAR U+226E
ENCODING 8814
SWIDTH 1000 0
DWIDTH 12 0
BBX 12 12 0 -2
BITMAP 
0000
1b80
1e00
1800
f800
9800
d800
3800
1e00
1b00
0000
0000
ENDCHAR
STARTCHAR U+226F
ENCODING 8815
SWIDTH 1000 0
DWIDTH 12 0
BBX 12 12 0 -2
BITMAP 
0000
7300
1d00
0700
03c0
0360
0340
0780
0d00
3300
6000
0000
ENDCHAR
STARTCHAR U+2276
ENCODING 8822
SWIDTH 1000 0
DWIDTH 12 0
BBX 12 12 0 -2
BITMAP 
0000
01e0
0f00
7800
0f00
01e0
7800
0f00
01e0
0f00
7800
0000
ENDCHAR
STARTCHAR U+2277
ENCODING 8823
SWIDTH 1000 0
DWIDTH 12 0
BBX 12 12 0 -2
BITMAP 
0000
7800
0f00
01e0
0f00
7800
01e0
0f00
7800
0f00
01e0
0000
ENDCHAR
STARTCHAR U+2282
ENCODING 8834
SWIDTH 1000 0
DWIDTH 12 0
BBX 12 12 0 -2
BITMAP 
0000
0000
3fe0
6000
c000
c000
c000
c000
6000
3fe0
0000
0000
ENDCHAR
STARTCHAR U+2283
ENCODING 8835
SWIDTH 1000 0
DWIDTH 12 0
BBX 12 12 0 -2
BITMAP 
0000
0000
ff80
00c0
0060
0060
0060
0060
00c0
ff80
0000
0000
ENDCHAR
STARTCHAR U+2284
ENCODING 8836
SWIDTH 1000 0
DWIDTH 12 0
BBX 12 12 0 -2
BITMAP 
0000
0000
00c0
1fe0
3180
6300
6700
6600
3400
1fe0
1800
0000
ENDCHAR
STARTCHAR U+2285
ENCODING 8837
SWIDTH 1000 0
DWIDTH 12 0
BBX 12 12 0 -2
BITMAP 
0000
0000
0180
7f80
0340
0660
0e60
0c60
18c0
7f80
3000
0000
ENDCHAR
STARTCHAR U+2286
ENCODING 8838
SWIDTH 1000 0
DWIDTH 12 0
BBX 12 12 0 -2
BITMAP 
0000
0000
3fe0
6000
c000
c000
6000
3fe0
0000
0000
7fe0
0000
ENDCHAR
STARTCHAR U+2287
ENCODING 8839
SWIDTH 1000 0
DWIDTH 12 0
BBX 12 12 0 -2
BITMAP 
0000
0000
ff80
00c0
0060
0060
00c0
ff80
0000
0000
ffc0
0000
ENDCHAR
STARTCHAR U+228A
ENCODING 8842
SWIDTH 1000 0
DWIDTH 12 0
BBX 12 12 0 -2
BITMAP 
0000
0000
1fe0
3000
6000
6000
3000
1fe0
0300
7fe0
0600
0600
ENDCHAR
STARTCHAR U+228B
ENCODING 8843
SWIDTH 1000 0
DWIDTH 12 0
BBX 12 12 0 -2
BITMAP 
0000
0000
7f80
00c0
0060
0060
00c0
7f80
0300
7fe0
0600
0600
ENDCHAR
STARTCHAR U+2295
ENCODING 8853
SWIDTH 1000 0
DWIDTH 12 0
BBX 12 12 0 -2
BITMAP 
0000
0f00
3ac0
6660
6660
c630
fff0
c630
6660
6660
3ac0
0f00
ENDCHAR
STARTCHAR U+2296
ENCODING 8854
SWIDTH 1000 0
DWIDTH 12 0
BBX 12 12 0 -2
BITMAP 
0000
0f00
39c0
6060
6060
c030
fff0
c030
6060
6060
39c0
0f00
ENDCHAR
STARTCHAR U+2297
ENCODING 8855
SWIDTH 1000 0
DWIDTH 12 0
BBX 12 12 0 -2
BITMAP 
0000
0f00
39c0
70e0
69a0
cd30
c630
cd30
69a0
70e0
39c0
0f00
ENDCHAR
STARTCHAR U+2299
ENCODING 8857
SWIDTH 1000 0
DWIDTH 12 0
BBX 12 12 0 -2
BITMAP 
07c0
0c60
1830
3000
3380
3380
3000
1830
0c60
07c0
0000
0000
ENDCHAR
STARTCHAR U+22A5
ENCODING 8869
SWIDTH 1000 0
DWIDTH 12 0
BBX 12 12 0 -2
BITMAP 
0000
0c00
0c00
0c00
0c00
0c00
0c00
0c00
0c00
ffe0
0000
0000
ENDCHAR
STARTCHAR U+22BF
ENCODING 8895
SWIDTH 1000 0
DWIDTH 12 0
BBX 12 12 0 -2
BITMAP 
0000
0000
0060
00e0
01a0
0360
0660
0c60
1860
3060
7fe0
0000
ENDCHAR
STARTCHAR U+22DA
ENCODING 8922
SWIDTH 1000 0
DWIDTH 12 0
BBX 12 12 0 -2
BITMAP 
0000
01e0
0f00
7800
0f00
01e0
7fe0
7800
0f00
01e0
0f00
7800
ENDCHAR
STARTCHAR U+22DB
ENCODING 8923
SWIDTH 1000 0
DWIDTH 12 0
BBX 12 12 0 -2
BITMAP 
0000
7800
0f00
01e0
0f00
7800
7fe0
01e0
0f00
7800
0f00
01e0
ENDCHAR
STARTCHAR U+2305
ENCODING 8965
SWIDTH 1000 0
DWIDTH 12 0
BBX 12 12 0 -2
BITMAP 
0000
0000
0000
0000
7fe0
0600
0d00
1980
30c0
0000
0000
0000
ENDCHAR
STARTCHAR U+2306
ENCODING 8966
SWIDTH 1000 0
DWIDTH 12 0
BBX 12 12 0 -2
BITMAP 
0000
0000
0000
7fe0
0000
7fe0
0600
0d00
1980
30c0
0000
0000
ENDCHAR
STARTCHAR U+2312
ENCODING 8978
SWIDTH 1000 0
DWIDTH 12 0
BBX 12 12 0 -2
BITMAP 
1f00
71c0
c060
0000
0000
0000
0000
0000
0000
0000
0000
0000
ENDCHAR
STARTCHAR U+2318
ENCODING 8984
SWIDTH 1000 0
DWIDTH 12 0
BBX 12 12 0 -2
BITMAP 
0000
71c0
db60
db60
7fe0
1b00
1b00
7fc0
db60
db60
71c0
0000
ENDCHAR
STARTCHAR U+2423
ENCODING 9251
SWIDTH 1000 0
DWIDTH 12 0
BBX 12 12 0 -2
BITMAP 
0000
0000
0000
0000
0000
0000
0000
0000
0000
60c0
60c0
7fc0
ENDCHAR
STARTCHAR U+2460
ENCODING 9312
SWIDTH 1000 0
DWIDTH 12 0
BBX 12 12 0 -2
BITMAP 
0fc0
1860
3330
6700
6300
6300
6300
6300
3330
1860
0fc0
0000
ENDCHAR
STARTCHAR U+2461
ENCODING 9313
SWIDTH 1000 0
DWIDTH 12 0
BBX 12 12 0 -2
BITMAP 
0fc0
1860
3730
6d80
6180
6300
6600
6c00
37b0
1860
0fc0
0000
ENDCHAR
STARTCHAR U+2462
ENCODING 9314
SWIDTH 1000 0
DWIDTH 12 0
BBX 12 12 0 -2
BITMAP 
0fc0
1860
3730
6d80
6180
6700
6180
6d80
3730
1860
0fc0
0000
ENDCHAR
STARTCHAR U+2463
ENCODING 9315
SWIDTH 1000 0
DWIDTH 12 0
BBX 12 12 0 -2
BITMAP 
0fc0
1860
31b0
6380
6680
6d80
6fc0
6180
31b0
1860
0fc0
0000
ENDCHAR
STARTCHAR U+2464
ENCODING 9316
SWIDTH 1000 0
DWIDTH 12 0
BBX 12 12 0 -2
BITMAP 
0fc0
1860
37b0
6c00
6f00
6d80
6180
6d80
3730
1860
0fc0
0000
ENDCHAR
STARTCHAR U+2465
ENCODING 9317
SWIDTH 1000 0
DWIDTH 12 0
BBX 12 12 0 -2
BITMAP 
0fc0
1860
3730
6d80
6c00
6f00
6d80
6d80
3730
1860
0fc0
0000
ENDCHAR
STARTCHAR U+2466
ENCODING 9318
SWIDTH 1000 0
DWIDTH 12 0
BBX 12 12 0 -2
BITMAP 
0fc0
1860
37b0
6180
6300
6300
6600
6600
3630
1860
0fc0
0000
ENDCHAR
STARTCHAR U+2467
ENCODING 9319
SWIDTH 1000 0
DWIDTH 12 0
BBX 12 12 0 -2
BITMAP 
0fc0
1860
3730
6d80
6d80
6700
6d80
6d80
3730
1860
0fc0
0000
ENDCHAR
STARTCHAR U+2468
ENCODING 9320
SWIDTH 1000 0
DWIDTH 12 0
BBX 12 12 0 -2
BITMAP 
0fc0
1860
3730
6d80
6d80
6780
6180
6d80
3730
1860
0fc0
0000
ENDCHAR
STARTCHAR U+2469
ENCODING 9321
SWIDTH 1000 0
DWIDTH 12 0
BBX 12 12 0 -2
BITMAP 
0fc0
1860
35d0
6d60
6d60
6d60
6d60
6d60
35d0
1860
0fc0
0000
ENDCHAR
STARTCHAR U+246A
ENCODING 9322
SWIDTH 1000 0
DWIDTH 12 0
BBX 12 12 0 -2
BITMAP 
0fc0
1860
36d0
6ec0
66c0
66c0
66c0
66c0
36d0
1860
0fc0
0000
ENDCHAR
STARTCHAR U+246B
ENCODING 9323
SWIDTH 1000 0
DWIDTH 12 0
BBX 12 12 0 -2
BITMAP 
0fc0
1860
35d0
6d60
6c60
6cc0
6d80
6d00
35f0
1860
0fc0
0000
ENDCHAR
STARTCHAR U+246C
ENCODING 9324
SWIDTH 1000 0
DWIDTH 12 0
BBX 12 12 0 -2
BITMAP 
0fc0
1860
35d0
6d60
6c60
6dc0
6c60
6d60
35d0
1860
0fc0
0000
ENDCHAR
STARTCHAR U+246D
ENCODING 9325
SWIDTH 1000 0
DWIDTH 12 0
BBX 12 12 0 -2
BITMAP 
0fc0
1860
35d0
6dc0
6d40
6d40
6de0
6cc0
34d0
1860
0fc0
0000
ENDCHAR
STARTCHAR U+246E
ENCODING 9326
SWIDTH 1000 0
DWIDTH 12 0
BBX 12 12 0 -2
BITMAP 
0fc0
1860
35f0
6d00
6dc0
6d60
6c60
6d60
35d0
1860
0fc0
0000
ENDCHAR
STARTCHAR U+246F
ENCODING 9327
SWIDTH 1000 0
DWIDTH 12 0
BBX 12 12 0 -2
BITMAP 
0000
3fc0
6060
dbb0
dad0
da30
dbb0
dad0
dad0
ddb0
6060
3fc0
ENDCHAR
STARTCHAR U+2470
ENCODING 9328
SWIDTH 1000 0
DWIDTH 12 0
BBX 12 12 0 -2
BITMAP 
0000
3fc0
6060
dbd0
dad0
d9b0
dbb0
db30
db30
dd30
6060
3fc0
ENDCHAR
STARTCHAR U+2471
ENCODING 9329
SWIDTH 1000 0
DWIDTH 12 0
BBX 12 12 0 -2
BITMAP 
0000
3fc0
6060
dbb0
dad0
dad0
dbb0
dad0
dad0
ddb0
6060
3fc0
ENDCHAR
STARTCHAR U+2472
ENCODING 9330
SWIDTH 1000 0
DWIDTH 12 0
BBX 12 12 0 -2
BITMAP 
0000
3fc0
6060
dbb0
dad0
dad0
dbd0
d8d0
dad0
dfb0
6060
3fc0
ENDCHAR
STARTCHAR U+2473
ENCODING 9331
SWIDTH 1000 0
DWIDTH 12 0
BBX 12 12 0 -2
BITMAP 
0000
3fc0
6060
ddd0
d750
cf50
dd50
db50
d350
dfd0
6060
3fc0
ENDCHAR
STARTCHAR U+2474
ENCODING 9332
SWIDTH 1000 0
DWIDTH 12 0
BBX 12 12 0 -2
BITMAP 
1860
3030
3330
6700
6300
6300
6300
6300
3330
3030
1860
0000
ENDCHAR
STARTCHAR U+2475
ENCODING 9333
SWIDTH 1000 0
DWIDTH 12 0
BBX 12 12 0 -2
BITMAP 
1860
3030
3730
6d80
6180
6300
6600
6c00
37b0
3030
1860
0000
ENDCHAR
STARTCHAR U+2476
ENCODING 9334
SWIDTH 1000 0
DWIDTH 12 0
BBX 12 12 0 -2
BITMAP 
1860
3030
3730
6d80
6180
6700
6180
6d80
3730
3030
1860
0000
ENDCHAR
STARTCHAR U+2477
ENCODING 9335
SWIDTH 1000 0
DWIDTH 12 0
BBX 12 12 0 -2
BITMAP 
1860
3030
31b0
6380
6680
6d80
6fc0
6180
31b0
3030
1860
0000
ENDCHAR
STARTCHAR U+2478
ENCODING 9336
SWIDTH 1000 0
DWIDTH 12 0
BBX 12 12 0 -2
BITMAP 
1860
3030
37b0
6c00
6f00
6d80
6180
6d80
3730
3030
1860
0000
ENDCHAR
STARTCHAR U+2479
ENCODING 9337
SWIDTH 1000 0
DWIDTH 12 0
BBX 12 12 0 -2
BITMAP 
1860
3030
3730
6d80
6c00
6f00
6d80
6d80
3730
3030
1860
0000
ENDCHAR
STARTCHAR U+247A
ENCODING 9338
SWIDTH 1000 0
DWIDTH 12 0
BBX 12 12 0 -2
BITMAP 
1860
3030
37b0
6180
6300
6300
6600
6600
3630
3030
1860
0000
ENDCHAR
STARTCHAR U+247B
ENCODING 9339
SWIDTH 1000 0
DWIDTH 12 0
BBX 12 12 0 -2
BITMAP 
1860
3030
3730
6d80
6d80
6700
6d80
6d80
3730
3030
1860
0000
ENDCHAR
STARTCHAR U+247C
ENCODING 9340
SWIDTH 1000 0
DWIDTH 12 0
BBX 12 12 0 -2
BITMAP 
1860
3030
3730
6d80
6d80
6780
6180
6d80
3730
3030
1860
0000
ENDCHAR
STARTCHAR U+247D
ENCODING 9341
SWIDTH 1000 0
DWIDTH 12 0
BBX 12 12 0 -2
BITMAP 
1860
3030
35d0
6d60
6d60
6d60
6d60
6d60
35d0
3030
1860
0000
ENDCHAR
STARTCHAR U+247E
ENCODING 9342
SWIDTH 1000 0
DWIDTH 12 0
BBX 12 12 0 -2
BITMAP 
1860
3030
36d0
6ec0
66c0
66c0
66c0
66c0
36d0
3030
1860
0000
ENDCHAR
STARTCHAR U+247F
ENCODING 9343
SWIDTH 1000 0
DWIDTH 12 0
BBX 12 12 0 -2
BITMAP 
1860
3030
35d0
6d60
6d60
6cc0
6d80
6d00
35f0
3030
1860
0000
ENDCHAR
STARTCHAR U+2480
ENCODING 9344
SWIDTH 1000 0
DWIDTH 12 0
BBX 12 12 0 -2
BITMAP 
1860
3030
35d0
6d60
6c60
6dc0
6c60
6d60
35d0
3030
1860
0000
ENDCHAR
STARTCHAR U+2481
ENCODING 9345
SWIDTH 1000 0
DWIDTH 12 0
BBX 12 12 0 -2
BITMAP 
1860
3030
35d0
6dc0
6d40
6d40
6de0
6cc0
34d0
3030
1860
0000
ENDCHAR
STARTCHAR U+2482
ENCODING 9346
SWIDTH 1000 0
DWIDTH 12 0
BBX 12 12 0 -2
BITMAP 
1860
3030
35f0
6d00
6dc0
6c60
6c60
6d60
35d0
3030
1860
0000
ENDCHAR
STARTCHAR U+2483
ENCODING 9347
SWIDTH 1000 0
DWIDTH 12 0
BBX 12 12 0 -2
BITMAP 
0000
8760
a1a0
a9a0
a860
ab60
ada0
a9a0
a9a0
a1a0
8760
0000
ENDCHAR
STARTCHAR U+2484
ENCODING 9348
SWIDTH 1000 0
DWIDTH 12 0
BBX 12 12 0 -2
BITMAP 
0000
8fa0
a9a0
a1a0
a360
a360
a060
a660
a660
a660
8060
0000
ENDCHAR
STARTCHAR U+2485
ENCODING 9349
SWIDTH 1000 0
DWIDTH 12 0
BBX 12 12 0 -2
BITMAP 
0000
8760
a1a0
a9a0
a9a0
af60
a9a0
a9a0
a9a0
a1a0
8760
0000
ENDCHAR
STARTCHAR U+2486
ENCODING 9350
SWIDTH 1000 0
DWIDTH 12 0
BBX 12 12 0 -2
BITMAP 
0000
8760
a1a0
a9a0
a9a0
a9a0
aea0
a1a0
a1a0
a1a0
8760
0000
ENDCHAR
STARTCHAR U+2487
ENCODING 9351
SWIDTH 1000 0
DWIDTH 12 0
BBX 12 12 0 -2
BITMAP 
0000
b3a0
9ae0
9ae0
9ae0
9ae0
b6e0
a6e0
c6e0
dae0
fba0
0000
ENDCHAR
STARTCHAR U+2488
ENCODING 9352
SWIDTH 1000 0
DWIDTH 12 0
BBX 12 12 0 -2
BITMAP 
0000
1800
3800
1800
1800
1800
1800
1800
1800
1800
1800
0000
ENDCHAR
STARTCHAR U+2489
ENCODING 9353
SWIDTH 1000 0
DWIDTH 12 0
BBX 12 12 0 -2
BITMAP 
0000
3c00
6600
0600
0600
0c00
1800
0000
6000
6600
7e00
0000
ENDCHAR
STARTCHAR U+248A
ENCODING 9354
SWIDTH 1000 0
DWIDTH 12 0
BBX 12 12 0 -2
BITMAP 
0000
3c00
6600
0600
0000
1800
0c00
0600
6600
6600
3c00
0000
ENDCHAR
STARTCHAR U+248B
ENCODING 9355
SWIDTH 1000 0
DWIDTH 12 0
BBX 12 12 0 -2
BITMAP 
0000
1c00
1c00
0c00
3400
3400
6c00
7e00
0c00
0c00
0c00
0c00
ENDCHAR
STARTCHAR U+248C
ENCODING 9356
SWIDTH 1000 0
DWIDTH 12 0
BBX 12 12 0 -2
BITMAP 
0000
7c00
6000
6000
6000
6c00
7600
0600
0600
6600
3c00
0000
ENDCHAR
STARTCHAR U+248D
ENCODING 9357
SWIDTH 1000 0
DWIDTH 12 0
BBX 12 12 0 -2
BITMAP 
0000
3c00
6600
6600
6000
6c00
7600
6600
6600
6600
3c00
0000
ENDCHAR
STARTCHAR U+248E
ENCODING 9358
SWIDTH 1000 0
DWIDTH 12 0
BBX 12 12 0 -2
BITMAP 
0000
7f00
6300
0600
0c00
0c00
1800
1800
1800
1800
1800
0000
ENDCHAR
STARTCHAR U+248F
ENCODING 9359
SWIDTH 1000 0
DWIDTH 12 0
BBX 12 12 0 -2
BITMAP 
0000
3c00
6600
6600
0000
1800
3400
6600
6600
6600
3c00
0000
ENDCHAR
STARTCHAR U+2490
ENCODING 9360
SWIDTH 1000 0
DWIDTH 12 0
BBX 12 12 0 -2
BITMAP 
0000
3c00
6600
6600
6600
6e00
3a00
0600
6600
6600
3c00
0000
ENDCHAR
STARTCHAR U+2491
ENCODING 9361
SWIDTH 1000 0
DWIDTH 12 0
BBX 12 12 0 -2
BITMAP 
0000
df00
db00
db00
db00
db00
db00
db00
db00
db00
df00
0000
ENDCHAR
STARTCHAR U+2492
ENCODING 9362
SWIDTH 1000 0
DWIDTH 12 0
BBX 12 12 0 -2
BITMAP 
0000
c600
c600
c600
c600
c600
c600
c600
c600
c600
c600
0000
ENDCHAR
STARTCHAR U+2493
ENCODING 9363
SWIDTH 1000 0
DWIDTH 12 0
BBX 12 12 0 -2
BITMAP 
0000
df00
db00
c300
c300
c300
ce00
d800
d800
db00
df00
0000
ENDCHAR
STARTCHAR U+2494
ENCODING 9364
SWIDTH 1000 0
DWIDTH 12 0
BBX 12 12 0 -2
BITMAP 
0000
df00
db00
c300
c300
ce00
c300
c300
c300
db00
df00
0000
ENDCHAR
STARTCHAR U+2495
ENCODING 9365
SWIDTH 1000 0
DWIDTH 12 0
BBX 12 12 0 -2
BITMAP 
0000
c700
cd00
cd00
db00
db00
db00
df80
c300
c300
c300
0000
ENDCHAR
STARTCHAR U+2496
ENCODING 9366
SWIDTH 1000 0
DWIDTH 12 0
BBX 12 12 0 -2
BITMAP 
0000
df00
d800
d800
d800
de00
db00
c300
c300
db00
df00
0000
ENDCHAR
STARTCHAR U+2497
ENCODING 9367
SWIDTH 1000 0
DWIDTH 12 0
BBX 12 12 0 -2
BITMAP 
0000
df00
db00
d800
d800
de00
db00
db00
db00
db00
df00
0000
ENDCHAR
STARTCHAR U+2498
ENCODING 9368
SWIDTH 1000 0
DWIDTH 12 0
BBX 12 12 0 -2
BITMAP 
0000
df80
d980
c300
c300
c300
c600
c600
c600
c600
c600
0000
ENDCHAR
STARTCHAR U+2499
ENCODING 9369
SWIDTH 1000 0
DWIDTH 12 0
BBX 12 12 0 -2
BITMAP 
0000
df00
db00
db00
db00
ce00
db00
db00
db00
db00
df00
0000
ENDCHAR
STARTCHAR U+249A
ENCODING 9370
SWIDTH 1000 0
DWIDTH 12 0
BBX 12 12 0 -2
BITMAP 
0000
df00
db00
db00
db00
db00
cf00
c300
c300
db00
df00
0000
ENDCHAR
STARTCHAR U+249B
ENCODING 9371
SWIDTH 1000 0
DWIDTH 12 0
BBX 12 12 0 -2
BITMAP 
0000
f780
dd80
1d80
1d80
7580
cd80
cd80
cd80
dd80
fb80
0000
ENDCHAR
STARTCHAR U+249C
ENCODING 9372
SWIDTH 1000 0
DWIDTH 12 0
BBX 12 12 0 -2
BITMAP 
1860
3030
3030
6700
6d80
6780
6d80
6740
3030
3030
1860
0000
ENDCHAR
STARTCHAR U+249D
ENCODING 9373
SWIDTH 1000 0
DWIDTH 12 0
BBX 12 12 0 -2
BITMAP 
1860
3030
3630
6600
6780
66c0
66c0
6780
3030
3030
1860
0000
ENDCHAR
STARTCHAR U+249E
ENCODING 9374
SWIDTH 1000 0
DWIDTH 12 0
BBX 12 12 0 -2
BITMAP 
1860
3030
3030
6700
6d80
6c00
6d80
6700
3030
3030
1860
0000
ENDCHAR
STARTCHAR U+249F
ENCODING 9375
SWIDTH 1000 0
DWIDTH 12 0
BBX 12 12 0 -2
BITMAP 
1860
3030
31b0
6180
6780
6d80
6d80
6780
3030
3030
1860
0000
ENDCHAR
STARTCHAR U+24A0
ENCODING 9376
SWIDTH 1000 0
DWIDTH 12 0
BBX 12 12 0 -2
BITMAP 
1860
3030
3030
6700
6d80
6f80
6c00
6780
3030
3030
1860
0000
ENDCHAR
STARTCHAR U+24A1
ENCODING 9377
SWIDTH 1000 0
DWIDTH 12 0
BBX 12 12 0 -2
BITMAP 
1860
3030
33b0
6600
6f80
6600
6600
6600
3030
3030
1860
0000
ENDCHAR
STARTCHAR U+24A2
ENCODING 9378
SWIDTH 1000 0
DWIDTH 12 0
BBX 12 12 0 -2
BITMAP 
1860
3030
3030
6780
6d80
6d80
6780
6180
3730
3030
1860
0000
ENDCHAR
STARTCHAR U+24A3
ENCODING 9379
SWIDTH 1000 0
DWIDTH 12 0
BBX 12 12 0 -2
BITMAP 
1860
3030
3630
6600
6780
66c0
66c0
66c0
3030
3030
1860
0000
ENDCHAR
STARTCHAR U+24A4
ENCODING 9380
SWIDTH 1000 0
DWIDTH 12 0
BBX 12 12 0 -2
BITMAP 
1860
3030
3330
6000
6300
6300
6300
6300
3030
3030
1860
0000
ENDCHAR
STARTCHAR U+24A5
ENCODING 9381
SWIDTH 1000 0
DWIDTH 12 0
BBX 12 12 0 -2
BITMAP 
1860
3030
3330
6000
6300
6300
6300
6d00
3630
3030
1860
0000
ENDCHAR
STARTCHAR U+24A6
ENCODING 9382
SWIDTH 1000 0
DWIDTH 12 0
BBX 12 12 0 -2
BITMAP 
1860
3030
3630
6600
6680
6700
6680
66c0
3030
3030
1860
0000
ENDCHAR
STARTCHAR U+24A7
ENCODING 9383
SWIDTH 1000 0
DWIDTH 12 0
BBX 12 12 0 -2
BITMAP 
1860
3030
3330
6300
6300
6300
6300
6300
3030
3030
1860
0000
ENDCHAR
STARTCHAR U+24A8
ENCODING 9384
SWIDTH 1000 0
DWIDTH 12 0
BBX 12 12 0 -2
BITMAP 
1860
3030
3030
6e80
6d40
6d40
6d40
6d40
3030
3030
1860
0000
ENDCHAR
STARTCHAR U+24A9
ENCODING 9385
SWIDTH 1000 0
DWIDTH 12 0
BBX 12 12 0 -2
BITMAP 
1860
3030
3030
6780
66c0
66c0
66c0
66c0
3030
3030
1860
0000
ENDCHAR
STARTCHAR U+24AA
ENCODING 9386
SWIDTH 1000 0
DWIDTH 12 0
BBX 12 12 0 -2
BITMAP 
1860
3030
3030
6780
6cc0
6cc0
6cc0
6780
3030
3030
1860
0000
ENDCHAR
STARTCHAR U+24AB
ENCODING 9387
SWIDTH 1000 0
DWIDTH 12 0
BBX 12 12 0 -2
BITMAP 
1860
3030
3030
6780
66c0
66c0
6780
6600
3630
3030
1860
0000
ENDCHAR
STARTCHAR U+24AC
ENCODING 9388
SWIDTH 1000 0
DWIDTH 12 0
BBX 12 12 0 -2
BITMAP 
1860
3030
3030
6780
6d80
6d80
6780
6180
31b0
3030
1860
0000
ENDCHAR
STARTCHAR U+24AD
ENCODING 9389
SWIDTH 1000 0
DWIDTH 12 0
BBX 12 12 0 -2
BITMAP 
1860
3030
3030
6680
6700
6600
6600
6600
3030
3030
1860
0000
ENDCHAR
STARTCHAR U+24AE
ENCODING 9390
SWIDTH 1000 0
DWIDTH 12 0
BBX 12 12 0 -2
BITMAP 
1860
3030
3030
6780
6c00
6700
6180
6f00
3030
3030
1860
0000
ENDCHAR
STARTCHAR U+24AF
ENCODING 9391
SWIDTH 1000 0
DWIDTH 12 0
BBX 12 12 0 -2
BITMAP 
1860
3030
3630
6600
6f80
6600
6600
6380
3030
3030
1860
0000
ENDCHAR
STARTCHAR U+24B0
ENCODING 9392
SWIDTH 1000 0
DWIDTH 12 0
BBX 12 12 0 -2
BITMAP 
1860
3030
3030
6d80
6d80
6d80
6d80
6780
3030
3030
1860
0000
ENDCHAR
STARTCHAR U+24B1
ENCODING 9393
SWIDTH 1000 0
DWIDTH 12 0
BBX 12 12 0 -2
BITMAP 
1860
3030
3030
6cc0
6cc0
6680
6680
6300
3030
3030
1860
0000
ENDCHAR
STARTCHAR U+24B2
ENCODING 9394
SWIDTH 1000 0
DWIDTH 12 0
BBX 12 12 0 -2
BITMAP 
1860
3030
3030
6d40
6d40
6d40
6680
6680
3030
3030
1860
0000
ENDCHAR
STARTCHAR U+24B3
ENCODING 9395
SWIDTH 1000 0
DWIDTH 12 0
BBX 12 12 0 -2
BITMAP 
1860
3030
3030
6cc0
6680
6300
6680
6cc0
3030
3030
1860
0000
ENDCHAR
STARTCHAR U+24B4
ENCODING 9396
SWIDTH 1000 0
DWIDTH 12 0
BBX 12 12 0 -2
BITMAP 
1860
3030
3030
6cc0
6680
6300
6300
6300
3030
3030
1860
0000
ENDCHAR
STARTCHAR U+24B5
ENCODING 9397
SWIDTH 1000 0
DWIDTH 12 0
BBX 12 12 0 -2
BITMAP 
1860
3030
3030
6fc0
6180
6300
6600
6fc0
3030
3030
1860
0000
ENDCHAR
STARTCHAR U+24D0
ENCODING 9424
SWIDTH 1000 0
DWIDTH 12 0
BBX 12 12 0 -2
BITMAP 
0fc0
1860
3030
6700
6d80
6780
6d80
6740
3030
1860
0fc0
0000
ENDCHAR
STARTCHAR U+24D1
ENCODING 9425
SWIDTH 1000 0
DWIDTH 12 0
BBX 12 12 0 -2
BITMAP 
0fc0
1860
3630
6600
6780
66c0
66c0
6780
3030
1860
0fc0
0000
ENDCHAR
STARTCHAR U+24D2
ENCODING 9426
SWIDTH 1000 0
DWIDTH 12 0
BBX 12 12 0 -2
BITMAP 
0fc0
1860
3030
6700
6d80
6c00
6d80
6700
3030
1860
0fc0
0000
ENDCHAR
STARTCHAR U+24D3
ENCODING 9427
SWIDTH 1000 0
DWIDTH 12 0
BBX 12 12 0 -2
BITMAP 
0fc0
1860
31b0
6180
6780
6d80
6d80
6780
3030
1860
0fc0
0000
ENDCHAR
STARTCHAR U+24D4
ENCODING 9428
SWIDTH 1000 0
DWIDTH 12 0
BBX 12 12 0 -2
BITMAP 
0fc0
1860
3030
6700
6d80
6f80
6c00
6780
3030
1860
0fc0
0000
ENDCHAR
STARTCHAR U+24D5
ENCODING 9429
SWIDTH 1000 0
DWIDTH 12 0
BBX 12 12 0 -2
BITMAP 
0fc0
1860
33b0
6600
6f80
6600
6600
6600
3030
1860
0fc0
0000
ENDCHAR
STARTCHAR U+24D6
ENCODING 9430
SWIDTH 1000 0
DWIDTH 12 0
BBX 12 12 0 -2
BITMAP 
0fc0
1860
3030
6780
6d80
6d80
6780
6180
3730
1860
0fc0
0000
ENDCHAR
STARTCHAR U+24D7
ENCODING 9431
SWIDTH 1000 0
DWIDTH 12 0
BBX 12 12 0 -2
BITMAP 
0fc0
1860
3630
6600
6780
66c0
66c0
66c0
3030
1860
0fc0
0000
ENDCHAR
STARTCHAR U+24D8
ENCODING 9432
SWIDTH 1000 0
DWIDTH 12 0
BBX 12 12 0 -2
BITMAP 
0fc0
1860
3330
6000
6300
6300
6300
6300
3030
1860
0fc0
0000
ENDCHAR
STARTCHAR U+24D9
ENCODING 9433
SWIDTH 1000 0
DWIDTH 12 0
BBX 12 12 0 -2
BITMAP 
0fc0
1860
3330
6000
6300
6300
6300
6d00
3630
1860
0fc0
0000
ENDCHAR
STARTCHAR U+24DA
ENCODING 9434
SWIDTH 1000 0
DWIDTH 12 0
BBX 12 12 0 -2
BITMAP 
0fc0
1860
3630
6600
6680
6700
6680
66c0
3030
1860
0fc0
0000
ENDCHAR
STARTCHAR U+24DB
ENCODING 9435
SWIDTH 1000 0
DWIDTH 12 0
BBX 12 12 0 -2
BITMAP 
0fc0
1860
3330
6300
6300
6300
6300
6300
3030
1860
0fc0
0000
ENDCHAR
STARTCHAR U+24DC
ENCODING 9436
SWIDTH 1000 0
DWIDTH 12 0
BBX 12 12 0 -2
BITMAP 
0fc0
1860
3030
6e80
6d40
6d40
6d40
6d40
3030
1860
0fc0
0000
ENDCHAR
STARTCHAR U+24DD
ENCODING 9437
SWIDTH 1000 0
DWIDTH 12 0
BBX 12 12 0 -2
BITMAP 
0fc0
1860
3030
6780
66c0
66c0
66c0
66c0
3030
1860
0fc0
0000
ENDCHAR
STARTCHAR U+24DE
ENCODING 9438
SWIDTH 1000 0
DWIDTH 12 0
BBX 12 12 0 -2
BITMAP 
0fc0
1860
3030
6780
6cc0
6cc0
6cc0
6780
3030
1860
0fc0
0000
ENDCHAR
STARTCHAR U+24DF
ENCODING 9439
SWIDTH 1000 0
DWIDTH 12 0
BBX 12 12 0 -2
BITMAP 
0fc0
1860
3030
6780
66c0
66c0
6780
6600
3630
1860
0fc0
0000
ENDCHAR
STARTCHAR U+24E0
ENCODING 9440
SWIDTH 1000 0
DWIDTH 12 0
BBX 12 12 0 -2
BITMAP 
0fc0
1860
3030
6780
6d80
6d80
6780
6180
31b0
1860
0fc0
0000
ENDCHAR
STARTCHAR U+24E1
ENCODING 9441
SWIDTH 1000 0
DWIDTH 12 0
BBX 12 12 0 -2
BITMAP 
0fc0
1860
3030
6680
6700
6600
6600
6600
3030
1860
0fc0
0000
ENDCHAR
STARTCHAR U+24E2
ENCODING 9442
SWIDTH 1000 0
DWIDTH 12 0
BBX 12 12 0 -2
BITMAP 
0fc0
1860
3030
6780
6c00
6700
6180
6f00
3030
1860
0fc0
0000
ENDCHAR
STARTCHAR U+24E3
ENCODING 9443
SWIDTH 1000 0
DWIDTH 12 0
BBX 12 12 0 -2
BITMAP 
0fc0
1860
3630
6600
6f80
6600
6600
6380
3030
1860
0fc0
0000
ENDCHAR
STARTCHAR U+24E4
ENCODING 9444
SWIDTH 1000 0
DWIDTH 12 0
BBX 12 12 0 -2
BITMAP 
0fc0
1860
3030
6d80
6d80
6d80
6d80
6780
3030
1860
0fc0
0000
ENDCHAR
STARTCHAR U+24E5
ENCODING 9445
SWIDTH 1000 0
DWIDTH 12 0
BBX 12 12 0 -2
BITMAP 
0fc0
1860
3030
6cc0
6cc0
6680
6680
6300
3030
1860
0fc0
0000
ENDCHAR
STARTCHAR U+24E6
ENCODING 9446
SWIDTH 1000 0
DWIDTH 12 0
BBX 12 12 0 -2
BITMAP 
0fc0
1860
3030
6d40
6d40
6d40
6680
6680
3030
1860
0fc0
0000
ENDCHAR
STARTCHAR U+24E7
ENCODING 9447
SWIDTH 1000 0
DWIDTH 12 0
BBX 12 12 0 -2
BITMAP 
0fc0
1860
3030
6cc0
6680
6300
6680
6cc0
3030
1860
0fc0
0000
ENDCHAR
STARTCHAR U+24E8
ENCODING 9448
SWIDTH 1000 0
DWIDTH 12 0
BBX 12 12 0 -2
BITMAP 
0fc0
1860
3030
6cc0
6680
6300
6300
6300
3030
1860
0fc0
0000
ENDCHAR
STARTCHAR U+24E9
ENCODING 9449
SWIDTH 1000 0
DWIDTH 12 0
BBX 12 12 0 -2
BITMAP 
0fc0
1860
3030
6fc0
6180
6300
6600
6fc0
3030
1860
0fc0
0000
ENDCHAR
STARTCHAR U+2500
ENCODING 9472
SWIDTH 1000 0
DWIDTH 12 0
BBX 12 12 0 -2
BITMAP 
0000
0000
0000
0000
0000
fff0
0000
0000
0000
0000
0000
0000
ENDCHAR
STARTCHAR U+2501
ENCODING 9473
SWIDTH 1000 0
DWIDTH 12 0
BBX 12 12 0 -2
BITMAP 
0000
0000
0000
0000
0000
fff0
fff0
0000
0000
0000
0000
0000
ENDCHAR
STARTCHAR U+2502
ENCODING 9474
SWIDTH 1000 0
DWIDTH 12 0
BBX 12 12 0 -2
BITMAP 
0c00
0c00
0c00
0c00
0c00
0c00
0c00
0c00
0c00
0c00
0c00
0c00
ENDCHAR
STARTCHAR U+2503
ENCODING 9475
SWIDTH 1000 0
DWIDTH 12 0
BBX 12 12 0 -2
BITMAP 
0e00
0e00
0e00
0e00
0e00
0e00
0e00
0e00
0e00
0e00
0e00
0e00
ENDCHAR
STARTCHAR U+2504
ENCODING 9476
SWIDTH 1000 0
DWIDTH 12 0
BBX 12 12 0 -2
BITMAP 
0000
0000
0000
0000
0000
eec0
0000
0000
0000
0000
0000
0000
ENDCHAR
STARTCHAR U+2505
ENCODING 9477
SWIDTH 1000 0
DWIDTH 12 0
BBX 12 12 0 -2
BITMAP 
0000
0000
0000
0000
0000
eec0
eec0
0000
0000
0000
0000
0000
ENDCHAR
STARTCHAR U+2506
ENCODING 9478
SWIDTH 1000 0
DWIDTH 12 0
BBX 12 12 0 -2
BITMAP 
0000
0c00
0c00
0000
0000
0c00
0c00
0000
0c00
0c00
0000
0000
ENDCHAR
STARTCHAR U+2507
ENCODING 9479
SWIDTH 1000 0
DWIDTH 12 0
BBX 12 12 0 -2
BITMAP 
0000
0e00
0e00
0000
0000
0e00
0e00
0000
0e00
0e00
0000
0000
ENDCHAR
STARTCHAR U+2508
ENCODING 9480
SWIDTH 1000 0
DWIDTH 12 0
BBX 12 12 0 -2
BITMAP 
0000
0000
0000
0000
0000
db60
0000
0000
0000
0000
0000
0000
ENDCHAR
STARTCHAR U+2509
ENCODING 9481
SWIDTH 1000 0
DWIDTH 12 0
BBX 12 12 0 -2
BITMAP 
0000
0000
0000
0000
0000
db60
db60
0000
0000
0000
0000
0000
ENDCHAR
STARTCHAR U+250A
ENCODING 9482
SWIDTH 1000 0
DWIDTH 12 0
BBX 12 12 0 -2
BITMAP 
0c00
0c00
0000
0c00
0c00
0000
0c00
0c00
0000
0c00
0c00
0000
ENDCHAR
STARTCHAR U+250B
ENCODING 9483
SWIDTH 1000 0
DWIDTH 12 0
BBX 12 12 0 -2
BITMAP 
0e00
0e00
0000
0e00
0e00
0000
0e00
0e00
0000
0e00
0e00
0000
ENDCHAR
STARTCHAR U+250C
ENCODING 9484
SWIDTH 1000 0
DWIDTH 12 0
BBX 12 12 0 -2
BITMAP 
0000
0000
0000
0000
0000
0ff0
0c00
0c00
0c00
0c00
0c00
0c00
ENDCHAR
STARTCHAR U+250D
ENCODING 9485
SWIDTH 1000 0
DWIDTH 12 0
BBX 12 12 0 -2
BITMAP 
0000
0000
0000
0000
03f0
03f0
0300
0300
0300
0300
0300
0000
ENDCHAR
STARTCHAR U+250E
ENCODING 9486
SWIDTH 1000 0
DWIDTH 12 0
BBX 12 12 0 -2
BITMAP 
0000
0000
0000
0000
07f0
0700
0700
0700
0700
0700
0700
0000
ENDCHAR
STARTCHAR U+250F
ENCODING 9487
SWIDTH 1000 0
DWIDTH 12 0
BBX 12 12 0 -2
BITMAP 
0000
0000
0000
0000
0000
0ff0
0ff0
0e00
0e00
0e00
0e00
0e00
ENDCHAR
STARTCHAR U+2510
ENCODING 9488
SWIDTH 1000 0
DWIDTH 12 0
BBX 12 12 0 -2
BITMAP 
0000
0000
0000
0000
0000
fc00
0c00
0c00
0c00
0c00
0c00
0c00
ENDCHAR
STARTCHAR U+2511
ENCODING 9489
SWIDTH 1000 0
DWIDTH 12 0
BBX 12 12 0 -2
BITMAP 
0000
0000
0000
0000
ff00
ff00
0300
0300
0300
0300
0300
0000
ENDCHAR
STARTCHAR U+2512
ENCODING 9490
SWIDTH 1000 0
DWIDTH 12 0
BBX 12 12 0 -2
BITMAP 
0000
0000
0000
0000
ff00
0700
0700
0700
0700
0700
0700
0000
ENDCHAR
STARTCHAR U+2513
ENCODING 9491
SWIDTH 1000 0
DWIDTH 12 0
BBX 12 12 0 -2
BITMAP 
0000
0000
0000
0000
0000
fe00
fe00
0e00
0e00
0e00
0e00
0e00
ENDCHAR
STARTCHAR U+2514
ENCODING 9492
SWIDTH 1000 0
DWIDTH 12 0
BBX 12 12 0 -2
BITMAP 
0c00
0c00
0c00
0c00
0c00
0ff0
0000
0000
0000
0000
0000
0000
ENDCHAR
STARTCHAR U+2515
ENCODING 9493
SWIDTH 1000 0
DWIDTH 12 0
BBX 12 12 0 -2
BITMAP 
0300
0300
0300
0300
0300
03f0
03f0
0000
0000
0000
0000
0000
ENDCHAR
STARTCHAR U+2516
ENCODING 9494
SWIDTH 1000 0
DWIDTH 12 0
BBX 12 12 0 -2
BITMAP 
0700
0700
0700
0700
0700
07f0
0000
0000
0000
0000
0000
0000
ENDCHAR
STARTCHAR U+2517
ENCODING 9495
SWIDTH 1000 0
DWIDTH 12 0
BBX 12 12 0 -2
BITMAP 
0e00
0e00
0e00
0e00
0e00
0ff0
0ff0
0000
0000
0000
0000
0000
ENDCHAR
STARTCHAR U+2518
ENCODING 9496
SWIDTH 1000 0
DWIDTH 12 0
BBX 12 12 0 -2
BITMAP 
0c00
0c00
0c00
0c00
0c00
fc00
0000
0000
0000
0000
0000
0000
ENDCHAR
STARTCHAR U+2519
ENCODING 9497
SWIDTH 1000 0
DWIDTH 12 0
BBX 12 12 0 -2
BITMAP 
0300
0300
0300
0300
0300
ff00
ff00
0000
0000
0000
0000
0000
ENDCHAR
STARTCHAR U+251A
ENCODING 9498
SWIDTH 1000 0
DWIDTH 12 0
BBX 12 12 0 -2
BITMAP 
0700
0700
0700
0700
0700
ff00
0000
0000
0000
0000
0000
0000
ENDCHAR
STARTCHAR U+251B
ENCODING 9499
SWIDTH 1000 0
DWIDTH 12 0
BBX 12 12 0 -2
BITMAP 
0e00
0e00
0e00
0e00
0e00
fe00
fe00
0000
0000
0000
0000
0000
ENDCHAR
STARTCHAR U+251C
ENCODING 9500
SWIDTH 1000 0
DWIDTH 12 0
BBX 12 12 0 -2
BITMAP 
0c00
0c00
0c00
0c00
0c00
0ff0
0c00
0c00
0c00
0c00
0c00
0c00
ENDCHAR
STARTCHAR U+251D
ENCODING 9501
SWIDTH 1000 0
DWIDTH 12 0
BBX 12 12 0 -2
BITMAP 
0c00
0c00
0c00
0c00
0c00
0ff0
0ff0
0c00
0c00
0c00
0c00
0c00
ENDCHAR
STARTCHAR U+251E
ENCODING 9502
SWIDTH 1000 0
DWIDTH 12 0
BBX 12 12 0 -2
BITMAP 
0700
0700
0700
0700
0700
07f0
0300
0300
0300
0300
0300
0300
ENDCHAR
STARTCHAR U+251F
ENCODING 9503
SWIDTH 1000 0
DWIDTH 12 0
BBX 12 12 0 -2
BITMAP 
0300
0300
0300
0300
0300
07f0
0700
0700
0700
0700
0700
0700
ENDCHAR
STARTCHAR U+2520
ENCODING 9504
SWIDTH 1000 0
DWIDTH 12 0
BBX 12 12 0 -2
BITMAP 
0e00
0e00
0e00
0e00
0e00
0ff0
0e00
0e00
0e00
0e00
0e00
0e00
ENDCHAR
STARTCHAR U+2521
ENCODING 9505
SWIDTH 1000 0
DWIDTH 12 0
BBX 12 12 0 -2
BITMAP 
0700
0700
0700
0700
0700
07f0
07f0
0300
0300
0300
0300
0300
ENDCHAR
STARTCHAR U+2522
ENCODING 9506
SWIDTH 1000 0
DWIDTH 12 0
BBX 12 12 0 -2
BITMAP 
0300
0300
0300
0300
0300
07f0
07f0
0700
0700
0700
0700
0700
ENDCHAR
STARTCHAR U+2523
ENCODING 9507
SWIDTH 1000 0
DWIDTH 12 0
BBX 12 12 0 -2
BITMAP 
0e00
0e00
0e00
0e00
0e00
0ff0
0ff0
0e00
0e00
0e00
0e00
0e00
ENDCHAR
STARTCHAR U+2524
ENCODING 9508
SWIDTH 1000 0
DWIDTH 12 0
BBX 12 12 0 -2
BITMAP 
0c00
0c00
0c00
0c00
0c00
fc00
0c00
0c00
0c00
0c00
0c00
0c00
ENDCHAR
STARTCHAR U+2525
ENCODING 9509
SWIDTH 1000 0
DWIDTH 12 0
BBX 12 12 0 -2
BITMAP 
0c00
0c00
0c00
0c00
0c00
fc00
fc00
0c00
0c00
0c00
0c00
0c00
ENDCHAR
STARTCHAR U+2526
ENCODING 9510
SWIDTH 1000 0
DWIDTH 12 0
BBX 12 12 0 -2
BITMAP 
0700
0700
0700
0700
0700
ff00
0300
0300
0300
0300
0300
0300
ENDCHAR
STARTCHAR U+2527
ENCODING 9511
SWIDTH 1000 0
DWIDTH 12 0
BBX 12 12 0 -2
BITMAP 
0300
0300
0300
0300
0300
ff00
0700
0700
0700
0700
0700
0700
ENDCHAR
STARTCHAR U+2528
ENCODING 9512
SWIDTH 1000 0
DWIDTH 12 0
BBX 12 12 0 -2
BITMAP 
0e00
0e00
0e00
0e00
0e00
fe00
0e00
0e00
0e00
0e00
0e00
0e00
ENDCHAR
STARTCHAR U+2529
ENCODING 9513
SWIDTH 1000 0
DWIDTH 12 0
BBX 12 12 0 -2
BITMAP 
0700
0700
0700
0700
0700
ff00
ff00
0300
0300
0300
0300
0300
ENDCHAR
STARTCHAR U+252A
ENCODING 9514
SWIDTH 1000 0
DWIDTH 12 0
BBX 12 12 0 -2
BITMAP 
0300
0300
0300
0300
0300
ff00
ff00
0700
0700
0700
0700
0700
ENDCHAR
STARTCHAR U+252B
ENCODING 9515
SWIDTH 1000 0
DWIDTH 12 0
BBX 12 12 0 -2
BITMAP 
0e00
0e00
0e00
0e00
0e00
fe00
fe00
0e00
0e00
0e00
0e00
0e00
ENDCHAR
STARTCHAR U+252C
ENCODING 9516
SWIDTH 1000 0
DWIDTH 12 0
BBX 12 12 0 -2
BITMAP 
0000
0000
0000
0000
0000
fff0
0c00
0c00
0c00
0c00
0c00
0c00
ENDCHAR
STARTCHAR U+252D
ENCODING 9517
SWIDTH 1000 0
DWIDTH 12 0
BBX 12 12 0 -2
BITMAP 
0000
0000
0000
0000
fff0
ff00
0300
0300
0300
0300
0300
0000
ENDCHAR
STARTCHAR U+252E
ENCODING 9518
SWIDTH 1000 0
DWIDTH 12 0
BBX 12 12 0 -2
BITMAP 
0000
0000
0000
0000
fff0
03f0
0300
0300
0300
0300
0300
0000
ENDCHAR
STARTCHAR U+252F
ENCODING 9519
SWIDTH 1000 0
DWIDTH 12 0
BBX 12 12 0 -2
BITMAP 
0000
0000
0000
0000
0000
fff0
fff0
0c00
0c00
0c00
0c00
0c00
ENDCHAR
STARTCHAR U+2530
ENCODING 9520
SWIDTH 1000 0
DWIDTH 12 0
BBX 12 12 0 -2
BITMAP 
0000
0000
0000
0000
0000
fff0
0e00
0e00
0e00
0e00
0e00
0e00
ENDCHAR
STARTCHAR U+2531
ENCODING 9521
SWIDTH 1000 0
DWIDTH 12 0
BBX 12 12 0 -2
BITMAP 
0000
0000
0000
0000
fff0
ff00
0700
0700
0700
0700
0700
0000
ENDCHAR
STARTCHAR U+2532
ENCODING 9522
SWIDTH 1000 0
DWIDTH 12 0
BBX 12 12 0 -2
BITMAP 
0000
0000
0000
0000
fff0
07f0
0700
0700
0700
0700
0700
0000
ENDCHAR
STARTCHAR U+2533
ENCODING 9523
SWIDTH 1000 0
DWIDTH 12 0
BBX 12 12 0 -2
BITMAP 
0000
0000
0000
0000
0000
fff0
fff0
0e00
0e00
0e00
0e00
0e00
ENDCHAR
STARTCHAR U+2534
ENCODING 9524
SWIDTH 1000 0
DWIDTH 12 0
BBX 12 12 0 -2
BITMAP 
0c00
0c00
0c00
0c00
0c00
fff0
0000
0000
0000
0000
0000
0000
ENDCHAR
STARTCHAR U+2535
ENCODING 9525
SWIDTH 1000 0
DWIDTH 12 0
BBX 12 12 0 -2
BITMAP 
0300
0300
0300
0300
0300
fff0
ff00
0000
0000
0000
0000
0000
ENDCHAR
STARTCHAR U+2536
ENCODING 9526
SWIDTH 1000 0
DWIDTH 12 0
BBX 12 12 0 -2
BITMAP 
0300
0300
0300
0300
0300
fff0
03f0
0000
0000
0000
0000
0000
ENDCHAR
STARTCHAR U+2537
ENCODING 9527
SWIDTH 1000 0
DWIDTH 12 0
BBX 12 12 0 -2
BITMAP 
0c00
0c00
0c00
0c00
0c00
fff0
fff0
0000
0000
0000
0000
0000
ENDCHAR
STARTCHAR U+2538
ENCODING 9528
SWIDTH 1000 0
DWIDTH 12 0
BBX 12 12 0 -2
BITMAP 
0e00
0e00
0e00
0e00
0e00
fff0
0000
0000
0000
0000
0000
0000
ENDCHAR
STARTCHAR U+2539
ENCODING 9529
SWIDTH 1000 0
DWIDTH 12 0
BBX 12 12 0 -2
BITMAP 
0700
0700
0700
0700
0700
fff0
ff00
0000
0000
0000
0000
0000
ENDCHAR
STARTCHAR U+253A
ENCODING 9530
SWIDTH 1000 0
DWIDTH 12 0
BBX 12 12 0 -2
BITMAP 
0700
0700
0700
0700
0700
fff0
07f0
0000
0000
0000
0000
0000
ENDCHAR
STARTCHAR U+253B
ENCODING 9531
SWIDTH 1000 0
DWIDTH 12 0
BBX 12 12 0 -2
BITMAP 
0e00
0e00
0e00
0e00
0e00
fff0
fff0
0000
0000
0000
0000
0000
ENDCHAR
STARTCHAR U+253C
ENCODING 9532
SWIDTH 1000 0
DWIDTH 12 0
BBX 12 12 0 -2
BITMAP 
0c00
0c00
0c00
0c00
0c00
fff0
0c00
0c00
0c00
0c00
0c00
0c00
ENDCHAR
STARTCHAR U+253D
ENCODING 9533
SWIDTH 1000 0
DWIDTH 12 0
BBX 12 12 0 -2
BITMAP 
0300
0300
0300
0300
0300
fff0
ff00
0300
0300
0300
0300
0300
ENDCHAR
STARTCHAR U+253E
ENCODING 9534
SWIDTH 1000 0
DWIDTH 12 0
BBX 12 12 0 -2
BITMAP 
0300
0300
0300
0300
0300
fff0
03f0
0300
0300
0300
0300
0300
ENDCHAR
STARTCHAR U+253F
ENCODING 9535
SWIDTH 1000 0
DWIDTH 12 0
BBX 12 12 0 -2
BITMAP 
0c00
0c00
0c00
0c00
0c00
fff0
fff0
0c00
0c00
0c00
0c00
0c00
ENDCHAR
STARTCHAR U+2540
ENCODING 9536
SWIDTH 1000 0
DWIDTH 12 0
BBX 12 12 0 -2
BITMAP 
0700
0700
0700
0700
0700
fff0
0300
0300
0300
0300
0300
0300
ENDCHAR
STARTCHAR U+2541
ENCODING 9537
SWIDTH 1000 0
DWIDTH 12 0
BBX 12 12 0 -2
BITMAP 
0300
0300
0300
0300
0300
fff0
0700
0700
0700
0700
0700
0700
ENDCHAR
STARTCHAR U+2542
ENCODING 9538
SWIDTH 1000 0
DWIDTH 12 0
BBX 12 12 0 -2
BITMAP 
0e00
0e00
0e00
0e00
0e00
fff0
0e00
0e00
0e00
0e00
0e00
0e00
ENDCHAR
STARTCHAR U+2543
ENCODING 9539
SWIDTH 1000 0
DWIDTH 12 0
BBX 12 12 0 -2
BITMAP 
0700
0700
0700
0700
0700
ff00
ff00
0300
0300
0300
0300
0300
ENDCHAR
STARTCHAR U+2544
ENCODING 9540
SWIDTH 1000 0
DWIDTH 12 0
BBX 12 12 0 -2
BITMAP 
0700
0700
0700
0700
0700
fff0
07f0
0300
0300
0300
0300
0300
ENDCHAR
STARTCHAR U+2545
ENCODING 9541
SWIDTH 1000 0
DWIDTH 12 0
BBX 12 12 0 -2
BITMAP 
0300
0300
0300
0300
0300
fff0
ff00
0700
0700
0700
0700
0700
ENDCHAR
STARTCHAR U+2546
ENCODING 9542
SWIDTH 1000 0
DWIDTH 12 0
BBX 12 12 0 -2
BITMAP 
0300
0300
0300
0300
0300
fff0
07f0
0700
0700
0700
0700
0700
ENDCHAR
STARTCHAR U+2547
ENCODING 9543
SWIDTH 1000 0
DWIDTH 12 0
BBX 12 12 0 -2
BITMAP 
0700
0700
0700
0700
0700
fff0
fff0
0300
0300
0300
0300
0300
ENDCHAR
STARTCHAR U+2548
ENCODING 9544
SWIDTH 1000 0
DWIDTH 12 0
BBX 12 12 0 -2
BITMAP 
0300
0300
0300
0300
0300
fff0
fff0
0700
0700
0700
0700
0700
ENDCHAR
STARTCHAR U+2549
ENCODING 9545
SWIDTH 1000 0
DWIDTH 12 0
BBX 12 12 0 -2
BITMAP 
0700
0700
0700
0700
0700
fff0
ff00
0700
0700
0700
0700
0700
ENDCHAR
STARTCHAR U+254A
ENCODING 9546
SWIDTH 1000 0
DWIDTH 12 0
BBX 12 12 0 -2
BITMAP 
0700
0700
0700
0700
0700
fff0
07f0
0700
0700
0700
0700
0700
ENDCHAR
STARTCHAR U+254B
ENCODING 9547
SWIDTH 1000 0
DWIDTH 12 0
BBX 12 12 0 -2
BITMAP 
0e00
0e00
0e00
0e00
0e00
fff0
fff0
0e00
0e00
0e00
0e00
0e00
ENDCHAR
STARTCHAR U+2550
ENCODING 9552
SWIDTH 1000 0
DWIDTH 12 0
BBX 12 12 0 -2
BITMAP 
0000
0000
0000
fff0
fff0
0000
0000
0000
fff0
fff0
0000
0000
ENDCHAR
STARTCHAR U+255E
ENCODING 9566
SWIDTH 1000 0
DWIDTH 12 0
BBX 12 12 0 -2
BITMAP 
0000
0e00
0e00
0ff0
0ff0
0e00
0e00
0e00
0ff0
0ff0
0e00
0e00
ENDCHAR
STARTCHAR U+2561
ENCODING 9569
SWIDTH 1000 0
DWIDTH 12 0
BBX 12 12 0 -2
BITMAP 
0000
0e00
0e00
fe00
fe00
0e00
0e00
0e00
fe00
fe00
0e00
0e00
ENDCHAR
STARTCHAR U+256A
ENCODING 9578
SWIDTH 1000 0
DWIDTH 12 0
BBX 12 12 0 -2
BITMAP 
0000
0e00
0e00
fff0
fff0
0e00
0e00
0e00
fff0
fff0
0e00
0e00
ENDCHAR
STARTCHAR U+256D
ENCODING 9581
SWIDTH 1000 0
DWIDTH 12 0
BBX 12 12 0 -2
BITMAP 
0000
0000
0000
0000
0000
0000
01e0
07e0
0700
0e00
0e00
0e00
ENDCHAR
STARTCHAR U+256E
ENCODING 9582
SWIDTH 1000 0
DWIDTH 12 0
BBX 12 12 0 -2
BITMAP 
0000
0000
0000
0000
0000
0000
e000
f800
1800
1c00
1c00
1c00
ENDCHAR
STARTCHAR U+256F
ENCODING 9583
SWIDTH 1000 0
DWIDTH 12 0
BBX 12 12 0 -2
BITMAP 
0000
1c00
1c00
1800
f800
e000
0000
0000
0000
0000
0000
0000
ENDCHAR
STARTCHAR U+2570
ENCODING 9584
SWIDTH 1000 0
DWIDTH 12 0
BBX 12 12 0 -2
BITMAP 
0000
0e00
0e00
0700
07e0
01e0
0000
0000
0000
0000
0000
0000
ENDCHAR
STARTCHAR U+2571
ENCODING 9585
SWIDTH 1000 0
DWIDTH 12 0
BBX 12 12 0 -2
BITMAP 
0000
0070
00e0
01c0
0380
0700
0e00
1c00
3800
7000
e000
c000
ENDCHAR
STARTCHAR U+2572
ENCODING 9586
SWIDTH 1000 0
DWIDTH 12 0
BBX 12 12 0 -2
BITMAP 
0000
c000
e000
7000
3800
1c00
0e00
0700
0380
01c0
00e0
0070
ENDCHAR
STARTCHAR U+2573
ENCODING 9587
SWIDTH 1000 0
DWIDTH 12 0
BBX 12 12 0 -2
BITMAP 
0000
c070
e0e0
71c0
3b80
1f00
0e00
1f00
3b80
71c0
e0e0
c070
ENDCHAR
STARTCHAR U+2581
ENCODING 9601
SWIDTH 1000 0
DWIDTH 12 0
BBX 12 12 0 -2
BITMAP 
0000
0000
0000
0000
0000
0000
0000
0000
0000
0000
fff0
fff0
ENDCHAR
STARTCHAR U+2582
ENCODING 9602
SWIDTH 1000 0
DWIDTH 12 0
BBX 12 12 0 -2
BITMAP 
0000
0000
0000
0000
0000
0000
0000
0000
0000
fff0
fff0
fff0
ENDCHAR
STARTCHAR U+2583
ENCODING 9603
SWIDTH 1000 0
DWIDTH 12 0
BBX 12 12 0 -2
BITMAP 
0000
0000
0000
0000
0000
0000
0000
fff0
fff0
fff0
fff0
fff0
ENDCHAR
STARTCHAR U+2584
ENCODING 9604
SWIDTH 1000 0
DWIDTH 12 0
BBX 12 12 0 -2
BITMAP 
0000
0000
0000
0000
0000
0000
fff0
fff0
fff0
fff0
fff0
fff0
ENDCHAR
STARTCHAR U+2585
ENCODING 9605
SWIDTH 1000 0
DWIDTH 12 0
BBX 12 12 0 -2
BITMAP 
0000
0000
0000
0000
fff0
fff0
fff0
fff0
fff0
fff0
fff0
fff0
ENDCHAR
STARTCHAR U+2586
ENCODING 9606
SWIDTH 1000 0
DWIDTH 12 0
BBX 12 12 0 -2
BITMAP 
0000
0000
0000
fff0
fff0
fff0
fff0
fff0
fff0
fff0
fff0
fff0
ENDCHAR
STARTCHAR U+2587
ENCODING 9607
SWIDTH 1000 0
DWIDTH 12 0
BBX 12 12 0 -2
BITMAP 
0000
fff0
fff0
fff0
fff0
fff0
fff0
fff0
fff0
fff0
fff0
fff0
ENDCHAR
STARTCHAR U+2588
ENCODING 9608
SWIDTH 1000 0
DWIDTH 12 0
BBX 12 12 0 -2
BITMAP 
0000
fff0
fff0
fff0
fff0
fff0
fff0
fff0
fff0
fff0
fff0
fff0
ENDCHAR
STARTCHAR U+2589
ENCODING 9609
SWIDTH 1000 0
DWIDTH 12 0
BBX 12 12 0 -2
BITMAP 
0000
ffe0
ffe0
ffe0
ffe0
ffe0
ffe0
ffe0
ffe0
ffe0
ffe0
ffe0
ENDCHAR
STARTCHAR U+258A
ENCODING 9610
SWIDTH 1000 0
DWIDTH 12 0
BBX 12 12 0 -2
BITMAP 
0000
ff80
ff80
ff80
ff80
ff80
ff80
ff80
ff80
ff80
ff80
ff80
ENDCHAR
STARTCHAR U+258B
ENCODING 9611
SWIDTH 1000 0
DWIDTH 12 0
BBX 12 12 0 -2
BITMAP 
0000
ff00
ff00
ff00
ff00
ff00
ff00
ff00
ff00
ff00
ff00
ff00
ENDCHAR
STARTCHAR U+258C
ENCODING 9612
SWIDTH 1000 0
DWIDTH 12 0
BBX 12 12 0 -2
BITMAP 
0000
fc00
fc00
fc00
fc00
fc00
fc00
fc00
fc00
fc00
fc00
fc00
ENDCHAR
STARTCHAR U+258D
ENCODING 9613
SWIDTH 1000 0
DWIDTH 12 0
BBX 12 12 0 -2
BITMAP 
0000
f800
f800
f800
f800
f800
f800
f800
f800
f800
f800
f800
ENDCHAR
STARTCHAR U+258E
ENCODING 9614
SWIDTH 1000 0
DWIDTH 12 0
BBX 12 12 0 -2
BITMAP 
0000
e000
e000
e000
e000
e000
e000
e000
e000
e000
e000
e000
ENDCHAR
STARTCHAR U+258F
ENCODING 9615
SWIDTH 1000 0
DWIDTH 12 0
BBX 12 12 0 -2
BITMAP 
0000
c000
c000
c000
c000
c000
c000
c000
c000
c000
c000
c000
ENDCHAR
STARTCHAR U+2592
ENCODING 9618
SWIDTH 1000 0
DWIDTH 12 0
BBX 12 12 0 -2
BITMAP 
7ff0
6db0
6030
6b70
6030
6db0
6030
6b70
6030
7ff0
0000
0000
ENDCHAR
STARTCHAR U+2594
ENCODING 9620
SWIDTH 1000 0
DWIDTH 12 0
BBX 12 12 0 -2
BITMAP 
0000
fff0
0000
0000
0000
0000
0000
0000
0000
0000
0000
0000
ENDCHAR
STARTCHAR U+2595
ENCODING 9621
SWIDTH 1000 0
DWIDTH 12 0
BBX 12 12 0 -2
BITMAP 
0000
0070
0070
0070
0070
0070
0070
0070
0070
0070
0070
0070
ENDCHAR
STARTCHAR U+25A0
ENCODING 9632
SWIDTH 1000 0
DWIDTH 12 0
BBX 12 12 0 -2
BITMAP 
0000
ffe0
ffe0
ffe0
ffe0
ffe0
ffe0
ffe0
ffe0
ffe0
ffe0
ffe0
ENDCHAR
STARTCHAR U+25A1
ENCODING 9633
SWIDTH 1000 0
DWIDTH 12 0
BBX 12 12 0 -2
BITMAP 
0000
ffe0
8060
8060
8060
8060
8060
8060
8060
8060
8060
ffe0
ENDCHAR
STARTCHAR U+25A3
ENCODING 9635
SWIDTH 1000 0
DWIDTH 12 0
BBX 12 12 0 -2
BITMAP 
7ff0
6030
6030
6fb0
6fb0
6fb0
6fb0
6030
6030
7ff0
0000
0000
ENDCHAR
STARTCHAR U+25A4
ENCODING 9636
SWIDTH 1000 0
DWIDTH 12 0
BBX 12 12 0 -2
BITMAP 
7ff0
6030
6030
7ff0
6030
6030
7ff0
6030
6030
7ff0
0000
0000
ENDCHAR
STARTCHAR U+25A5
ENCODING 9637
SWIDTH 1000 0
DWIDTH 12 0
BBX 12 12 0 -2
BITMAP 
7ff0
6db0
6db0
6db0
6db0
6db0
6db0
6db0
6db0
7ff0
0000
0000
ENDCHAR
STARTCHAR U+25A6
ENCODING 9638
SWIDTH 1000 0
DWIDTH 12 0
BBX 12 12 0 -2
BITMAP 
7ff0
6db0
6db0
7ff0
6db0
6db0
7ff0
6db0
6db0
7ff0
0000
0000
ENDCHAR
STARTCHAR U+25A7
ENCODING 9639
SWIDTH 1000 0
DWIDTH 12 0
BBX 12 12 0 -2
BITMAP 
7ff0
7330
69b0
6cd0
6670
7330
69b0
6cd0
6670
7ff0
0000
0000
ENDCHAR
STARTCHAR U+25A8
ENCODING 9640
SWIDTH 1000 0
DWIDTH 12 0
BBX 12 12 0 -2
BITMAP 
7ff0
6670
6cd0
69b0
7330
6670
6cd0
69b0
7330
7ff0
0000
0000
ENDCHAR
STARTCHAR U+25A9
ENCODING 9641
SWIDTH 1000 0
DWIDTH 12 0
BBX 12 12 0 -2
BITMAP 
7ff0
6ab0
6cd0
6ab0
7330
6ab0
6cd0
6ab0
7330
7ff0
0000
0000
ENDCHAR
STARTCHAR U+25B1
ENCODING 9649
SWIDTH 1000 0
DWIDTH 12 0
BBX 12 12 0 -2
BITMAP 
0000
0000
0000
1ff0
3030
3060
6060
60c0
c0c0
ff80
0000
0000
ENDCHAR
STARTCHAR U+25B2
ENCODING 9650
SWIDTH 1000 0
DWIDTH 12 0
BBX 12 12 0 -2
BITMAP 
0c00
0c00
1e00
1e00
3f00
3f00
7f80
7f80
ffc0
ffc0
ffe0
0000
ENDCHAR
STARTCHAR U+25B3
ENCODING 9651
SWIDTH 1000 0
DWIDTH 12 0
BBX 12 12 0 -2
BITMAP 
0c00
0c00
1a00
1a00
3300
3300
6180
6180
c0c0
c0c0
ffe0
0000
ENDCHAR
STARTCHAR U+25B6
ENCODING 9654
SWIDTH 1000 0
DWIDTH 12 0
BBX 12 12 0 -2
BITMAP 
6000
7800
7e00
7f80
7fe0
7ff0
7fe0
7f80
7e00
7800
6000
0000
ENDCHAR
STARTCHAR U+25B7
ENCODING 9655
SWIDTH 1000 0
DWIDTH 12 0
BBX 12 12 0 -2
BITMAP 
6000
7800
6e00
6380
60e0
6030
60e0
6380
6e00
7800
6000
0000
ENDCHAR
STARTCHAR U+25BC
ENCODING 9660
SWIDTH 1000 0
DWIDTH 12 0
BBX 12 12 0 -2
BITMAP 
0000
ffe0
ffc0
ffc0
7f80
7f80
3f00
3f00
1e00
1e00
0c00
0c00
ENDCHAR
STARTCHAR U+25BD
ENCODING 9661
SWIDTH 1000 0
DWIDTH 12 0
BBX 12 12 0 -2
BITMAP 
0000
ffe0
c0c0
c0c0
6180
6180
3300
3300
1a00
1a00
0c00
0c00
ENDCHAR
STARTCHAR U+25C0
ENCODING 9664
SWIDTH 1000 0
DWIDTH 12 0
BBX 12 12 0 -2
BITMAP 
0030
00f0
03f0
0ff0
3ff0
7ff0
3ff0
0ff0
03f0
00f0
0030
0000
ENDCHAR
STARTCHAR U+25C1
ENCODING 9665
SWIDTH 1000 0
DWIDTH 12 0
BBX 12 12 0 -2
BITMAP 
0030
00f0
03b0
0e30
3830
6030
3830
0e30
03b0
00f0
0030
0000
ENDCHAR
STARTCHAR U+25C6
ENCODING 9670
SWIDTH 1000 0
DWIDTH 12 0
BBX 12 12 0 -2
BITMAP 
0000
0c00
1e00
3f00
7f80
ffc0
ffe0
ffc0
7f80
3f00
1e00
0c00
ENDCHAR
STARTCHAR U+25C7
ENCODING 9671
SWIDTH 1000 0
DWIDTH 12 0
BBX 12 12 0 -2
BITMAP 
0000
0c00
1a00
3300
6180
c0c0
8060
c0c0
6180
3300
1a00
0c00
ENDCHAR
STARTCHAR U+25C8
ENCODING 9672
SWIDTH 1000 0
DWIDTH 12 0
BBX 12 12 0 -2
BITMAP 
0300
0680
0d40
1ba0
37d0
6fe0
37d0
1ba0
0d40
0680
0300
0000
ENDCHAR
STARTCHAR U+25C9
ENCODING 9673
SWIDTH 1000 0
DWIDTH 12 0
BBX 12 12 0 -2
BITMAP 
0000
0f00
39c0
6f60
6fa0
dfd0
dfd0
dfd0
6fa0
6f60
39c0
0f00
ENDCHAR
STARTCHAR U+25CB
ENCODING 9675
SWIDTH 1000 0
DWIDTH 12 0
BBX 12 12 0 -2
BITMAP 
0000
1e00
7380
c0c0
c0c0
8060
8060
8060
c0c0
c0c0
7380
1e00
ENDCHAR
STARTCHAR U+25CE
ENCODING 9678
SWIDTH 1000 0
DWIDTH 12 0
BBX 12 12 0 -2
BITMAP 
0000
1e00
7380
dec0
d340
a1a0
a1a0
a1a0
d340
dec0
7380
1e00
ENDCHAR
STARTCHAR U+25CF
ENCODING 9679
SWIDTH 1000 0
DWIDTH 12 0
BBX 12 12 0 -2
BITMAP 
0000
1e00
7f80
ffc0
ffc0
ffe0
ffe0
ffe0
ffc0
ffc0
7f80
1e00
ENDCHAR
STARTCHAR U+25D0
ENCODING 9680
SWIDTH 1000 0
DWIDTH 12 0
BBX 12 12 0 -2
BITMAP 
0f80
1ec0
3e60
7e30
7e30
7e30
7e30
3e60
1ec0
0f80
0000
0000
ENDCHAR
STARTCHAR U+25D1
ENCODING 9681
SWIDTH 1000 0
DWIDTH 12 0
BBX 12 12 0 -2
BITMAP 
0f80
1bc0
33e0
63f0
63f0
63f0
63f0
33e0
1bc0
0f80
0000
0000
ENDCHAR
STARTCHAR U+25D2
ENCODING 9682
SWIDTH 1000 0
DWIDTH 12 0
BBX 12 12 0 -2
BITMAP 
0000
0f00
39c0
6060
6060
c030
fff0
fff0
7fe0
7fe0
3fc0
0f00
ENDCHAR
STARTCHAR U+25D3
ENCODING 9683
SWIDTH 1000 0
DWIDTH 12 0
BBX 12 12 0 -2
BITMAP 
0000
0f00
3fc0
7fe0
7fe0
fff0
fff0
c030
6060
6060
39c0
0f00
ENDCHAR
STARTCHAR U+25E2
ENCODING 9698
SWIDTH 1000 0
DWIDTH 12 0
BBX 12 12 0 -2
BITMAP 
0000
0030
0070
00f0
01f0
03f0
07f0
0ff0
1ff0
3ff0
7ff0
fff0
ENDCHAR
STARTCHAR U+25E3
ENCODING 9699
SWIDTH 1000 0
DWIDTH 12 0
BBX 12 12 0 -2
BITMAP 
0000
8000
c000
e000
f000
f800
fc00
fe00
ff00
ff80
ffc0
ffe0
ENDCHAR
STARTCHAR U+25E4
ENCODING 9700
SWIDTH 1000 0
DWIDTH 12 0
BBX 12 12 0 -2
BITMAP 
0000
ffe0
ffc0
ff80
ff00
fe00
fc00
f800
f000
e000
c000
8000
ENDCHAR
STARTCHAR U+25E5
ENCODING 9701
SWIDTH 1000 0
DWIDTH 12 0
BBX 12 12 0 -2
BITMAP 
0000
fff0
7ff0
3ff0
1ff0
0ff0
07f0
03f0
01f0
00f0
0070
0030
ENDCHAR
STARTCHAR U+25E6
ENCODING 9702
SWIDTH 1000 0
DWIDTH 12 0
BBX 12 12 0 -2
BITMAP 
0000
0000
0000
0f00
1d80
1980
1d80
0f00
0000
0000
0000
0000
ENDCHAR
STARTCHAR U+25EF
ENCODING 9711
SWIDTH 1000 0
DWIDTH 12 0
BBX 12 12 0 -2
BITMAP 
1f00
71c0
c060
c060
8030
8030
8030
8030
c060
c060
71c0
1f00
ENDCHAR
STARTCHAR U+2600
ENCODING 9728
SWIDTH 1000 0
DWIDTH 12 0
BBX 12 12 0 -2
BITMAP 
0000
0600
6660
30c0
0f00
1f80
efb0
1f80
0f00
30c0
6660
0600
ENDCHAR
STARTCHAR U+2601
ENCODING 9729
SWIDTH 1000 0
DWIDTH 12 0
BBX 12 12 0 -2
BITMAP 
0000
0000
1e00
3f00
7fe0
fff0
ffe0
fff0
7be0
03c0
0000
0000
ENDCHAR
STARTCHAR U+2602
ENCODING 9730
SWIDTH 1000 0
DWIDTH 12 0
BBX 12 12 0 -2
BITMAP 
0000
0600
0600
3fc0
7fe0
fff0
dab0
0600
0600
0600
3600
1c00
ENDCHAR
STARTCHAR U+2603
ENCODING 9731
SWIDTH 1000 0
DWIDTH 12 0
BBX 12 12 0 -2
BITMAP 
0000
1bd0
6fe0
dbd0
6de0
6da0
d550
6660
c030
c630
c630
7fe0
ENDCHAR
STARTCHAR U+2605
ENCODING 9733
SWIDTH 1000 0
DWIDTH 12 0
BBX 12 12 0 -2
BITMAP 
0000
0c00
0c00
1e00
ffe0
ffc0
7f80
3f00
7f80
7b80
e1c0
0000
ENDCHAR
STARTCHAR U+2606
ENCODING 9734
SWIDTH 1000 0
DWIDTH 12 0
BBX 12 12 0 -2
BITMAP 
0000
0c00
0c00
1a00
fbe0
c0c0
6180
3300
6d80
7b80
e1c0
0000
ENDCHAR
STARTCHAR U+2609
ENCODING 9737
SWIDTH 1000 0
DWIDTH 12 0
BBX 12 12 0 -2
BITMAP 
0000
3f80
60c0
c060
c060
ce60
ce60
c060
c060
60c0
3f80
0000
ENDCHAR
STARTCHAR U+260E
ENCODING 9742
SWIDTH 1000 0
DWIDTH 12 0
BBX 12 12 0 -2
BITMAP 
1fe0
3ff0
7cf0
7ff0
7bb0
1ee0
1ce0
3cf0
3ef0
3ff0
0000
0000
ENDCHAR
STARTCHAR U+260F
ENCODING 9743
SWIDTH 1000 0
DWIDTH 12 0
BBX 12 12 0 -2
BITMAP 
1fe0
3030
6fc0
6cc0
7b70
1aa0
36b0
3330
3030
3ff0
0000
0000
ENDCHAR
STARTCHAR U+261C
ENCODING 9756
SWIDTH 1000 0
DWIDTH 12 0
BBX 12 12 0 -2
BITMAP 
3fe0
6030
3f30
1830
0f30
1830
0f30
1830
0fe0
0000
0000
0000
ENDCHAR
STARTCHAR U+261E
ENCODING 9758
SWIDTH 1000 0
DWIDTH 12 0
BBX 12 12 0 -2
BITMAP 
6ff0
7000
73f0
7060
73c0
7060
73c0
7060
6fc0
0000
0000
0000
ENDCHAR
STARTCHAR U+2640
ENCODING 9792
SWIDTH 1000 0
DWIDTH 12 0
BBX 12 12 0 -2
BITMAP 
0000
1e00
3300
3300
3300
1e00
0c00
0c00
7f80
0c00
0c00
0c00
ENDCHAR
STARTCHAR U+2641
ENCODING 9793
SWIDTH 1000 0
DWIDTH 12 0
BBX 12 12 0 -2
BITMAP 
0000
3f80
76c0
eee0
ce60
ffe0
ffe0
ce60
eee0
76c0
3f80
0000
ENDCHAR
STARTCHAR U+2642
ENCODING 9794
SWIDTH 1000 0
DWIDTH 12 0
BBX 12 12 0 -2
BITMAP 
0000
07e0
00e0
01a0
0360
0660
7c00
cc00
cc00
cc00
7800
0000
ENDCHAR
STARTCHAR U+2660
ENCODING 9824
SWIDTH 1000 0
DWIDTH 12 0
BBX 12 12 0 -2
BITMAP 
0300
0780
0fc0
1fe0
3ff0
7ff0
7ff0
3ff0
1d60
0300
0780
0000
ENDCHAR
STARTCHAR U+2661
ENCODING 9825
SWIDTH 1000 0
DWIDTH 12 0
BBX 12 12 0 -2
BITMAP 
1ce0
36b0
6300
6000
6000
3030
3030
1860
0cc0
0680
0300
0000
ENDCHAR
STARTCHAR U+2662
ENCODING 9826
SWIDTH 1000 0
DWIDTH 12 0
BBX 12 12 0 -2
BITMAP 
0000
0600
0d00
1980
30c0
6060
6060
30c0
1980
0d00
0600
0000
ENDCHAR
STARTCHAR U+2663
ENCODING 9827
SWIDTH 1000 0
DWIDTH 12 0
BBX 12 12 0 -2
BITMAP 
0780
0fc0
0fc0
0fc0
3bb0
7ff0
7ff0
7ff0
3d70
0300
0780
0000
ENDCHAR
STARTCHAR U+2664
ENCODING 9828
SWIDTH 1000 0
DWIDTH 12 0
BBX 12 12 0 -2
BITMAP 
0300
0680
0cc0
1860
3030
6000
6300
37b0
1d60
0300
0780
0000
ENDCHAR
STARTCHAR U+2665
ENCODING 9829
SWIDTH 1000 0
DWIDTH 12 0
BBX 12 12 0 -2
BITMAP 
1ce0
3ef0
7ff0
7ff0
7ff0
3ff0
3ff0
1fe0
0fc0
0780
0300
0000
ENDCHAR
STARTCHAR U+2666
ENCODING 9830
SWIDTH 1000 0
DWIDTH 12 0
BBX 12 12 0 -2
BITMAP 
0000
0600
0f00
1f80
3fc0
7fe0
7fe0
3fc0
1f80
0f00
0600
0000
ENDCHAR
STARTCHAR U+2667
ENCODING 9831
SWIDTH 1000 0
DWIDTH 12 0
BBX 12 12 0 -2
BITMAP 
0780
0cc0
0cc0
0cc0
3ab0
6ec0
6000
6680
3d70
0300
0780
0000
ENDCHAR
STARTCHAR U+2668
ENCODING 9832
SWIDTH 1000 0
DWIDTH 12 0
BBX 12 12 0 -2
BITMAP 
0d40
1a80
1a80
1a80
0d40
3550
6a80
6000
7870
3ff0
0fc0
0000
ENDCHAR
STARTCHAR U+2669
ENCODING 9833
SWIDTH 1000 0
DWIDTH 12 0
BBX 12 12 0 -2
BITMAP 
0300
0300
0300
0300
0300
0300
0300
0300
0700
0f00
0e00
0000
ENDCHAR
STARTCHAR U+266A
ENCODING 9834
SWIDTH 1000 0
DWIDTH 12 0
BBX 12 12 0 -2
BITMAP 
0600
0700
0780
06c0
06c0
06c0
0680
0600
3e00
7e00
3c00
0000
ENDCHAR
STARTCHAR U+266B
ENCODING 9835
SWIDTH 1000 0
DWIDTH 12 0
BBX 12 12 0 -2
BITMAP 
0000
1f00
1fe0
19e0
1860
1860
1860
1860
7860
f9e0
73e0
03c0
ENDCHAR
STARTCHAR U+266C
ENCODING 9836
SWIDTH 1000 0
DWIDTH 12 0
BBX 12 12 0 -2
BITMAP 
01e0
0760
1c60
19e0
1b60
1c60
1860
18e0
39e0
79c0
7000
0000
ENDCHAR
STARTCHAR U+266D
ENCODING 9837
SWIDTH 1000 0
DWIDTH 12 0
BBX 12 12 0 -2
BITMAP 
1800
1800
1800
1800
1800
1b00
1d80
1b80
1b00
1a00
1c00
0000
ENDCHAR
STARTCHAR U+266E
ENCODING 9838
SWIDTH 1000 0
DWIDTH 12 0
BBX 12 12 0 -2
BITMAP 
0000
1800
18c0
1bc0
1fc0
1ec0
18c0
1bc0
1fc0
1ec0
18c0
00c0
ENDCHAR
STARTCHAR U+266F
ENCODING 9839
SWIDTH 1000 0
DWIDTH 12 0
BBX 12 12 0 -2
BITMAP 
0300
0300
1bc0
1fc0
7f00
7b00
1bc0
1fc0
7f00
7b00
1800
1800
ENDCHAR
STARTCHAR U+2713
ENCODING 10003
SWIDTH 1000 0
DWIDTH 12 0
BBX 12 12 0 -2
BITMAP 
0000
0000
0060
00c0
0180
0300
0600
e600
3400
1800
1800
0000
ENDCHAR
STARTCHAR U+2756
ENCODING 10070
SWIDTH 1000 0
DWIDTH 12 0
BBX 12 12 0 -2
BITMAP 
0000
0e00
1f00
1f00
3680
7bc0
ffe0
7bc0
3680
1f00
1f00
0e00
ENDCHAR
STARTCHAR U+2776
ENCODING 10102
SWIDTH 1000 0
DWIDTH 12 0
BBX 12 12 0 -2
BITMAP 
0000
3fc0
7fe0
fdf0
fbf0
fdf0
fdf0
fdf0
fdf0
f0f0
7fe0
3fc0
ENDCHAR
STARTCHAR U+2777
ENCODING 10103
SWIDTH 1000 0
DWIDTH 12 0
BBX 12 12 0 -2
BITMAP 
0000
3fc0
7fe0
f9f0
f770
fef0
fdf0
fbf0
f7f0
f0f0
7fe0
3fc0
ENDCHAR
STARTCHAR U+2778
ENCODING 10104
SWIDTH 1000 0
DWIDTH 12 0
BBX 12 12 0 -2
BITMAP 
0000
3fc0
7fe0
f9f0
f770
ff70
fdf0
ff70
f770
f9f0
7fe0
3fc0
ENDCHAR
STARTCHAR U+2779
ENCODING 10105
SWIDTH 1000 0
DWIDTH 12 0
BBX 12 12 0 -2
BITMAP 
0000
3fc0
7fe0
fdf0
fbf0
f5f0
edf0
e0f0
fdf0
f9f0
7fe0
3fc0
ENDCHAR
STARTCHAR U+277A
ENCODING 10106
SWIDTH 1000 0
DWIDTH 12 0
BBX 12 12 0 -2
BITMAP 
0000
3fc0
7fe0
f0f0
f7f0
f7f0
f1f0
ff70
f770
f9f0
7fe0
3fc0
ENDCHAR
STARTCHAR U+277B
ENCODING 10107
SWIDTH 1000 0
DWIDTH 12 0
BBX 12 12 0 -2
BITMAP 
0000
3fc0
7fe0
f9f0
f770
f7f0
f1f0
f770
f770
f9f0
7fe0
3fc0
ENDCHAR
STARTCHAR U+277C
ENCODING 10108
SWIDTH 1000 0
DWIDTH 12 0
BBX 12 12 0 -2
BITMAP 
0000
3fc0
7fe0
f0f0
f770
fef0
fef0
fdf0
fdf0
fdf0
7fe0
3fc0
ENDCHAR
STARTCHAR U+277D
ENCODING 10109
SWIDTH 1000 0
DWIDTH 12 0
BBX 12 12 0 -2
BITMAP 
0000
3fc0
7fe0
f9f0
f770
f770
f9f0
f770
f770
f9f0
7fe0
3fc0
ENDCHAR
STARTCHAR U+277E
ENCODING 10110
SWIDTH 1000 0
DWIDTH 12 0
BBX 12 12 0 -2
BITMAP 
0000
3fc0
7fe0
f9f0
f770
f770
f8f0
ff70
f770
f9f0
7fe0
3fc0
ENDCHAR
STARTCHAR U+277F
ENCODING 10111
SWIDTH 1000 0
DWIDTH 12 0
BBX 12 12 0 -2
BITMAP 
0000
3fc0
7fe0
f6f0
edb0
f5b0
f5b0
f5b0
f5b0
e6f0
7fe0
3fc0
ENDCHAR
STARTCHAR U+3000
ENCODING 12288
SWIDTH 1000 0
DWIDTH 12 0
BBX 12 12 0 -2
BITMAP 
0000
0000
0000
0000
0000
0000
0000
0000
0000
0000
0000
0000
ENDCHAR
STARTCHAR U+3001
ENCODING 12289
SWIDTH 1000 0
DWIDTH 12 0
BBX 12 12 0 -2
BITMAP 
0000
0000
0000
0000
0000
0000
0000
0000
0000
c000
6000
6000
ENDCHAR
STARTCHAR U+3002
ENCODING 12290
SWIDTH 1000 0
DWIDTH 12 0
BBX 12 12 0 -2
BITMAP 
0000
0000
0000
0000
0000
0000
0000
0000
0000
7000
d800
7000
ENDCHAR
STARTCHAR U+3003
ENCODING 12291
SWIDTH 1000 0
DWIDTH 12 0
BBX 12 12 0 -2
BITMAP 
0000
0000
0000
1b00
1b00
1b00
3600
3600
6c00
0000
0000
0000
ENDCHAR
STARTCHAR U+3005
ENCODING 12293
SWIDTH 1000 0
DWIDTH 12 0
BBX 12 12 0 -2
BITMAP 
0000
0000
1800
1f80
1980
3300
6300
da00
0e00
0300
0180
0000
ENDCHAR
STARTCHAR U+3006
ENCODING 12294
SWIDTH 1000 0
DWIDTH 12 0
BBX 12 12 0 -2
BITMAP 
0000
00c0
00c0
0180
0300
3a00
6e00
db00
d000
e000
0000
0000
ENDCHAR
STARTCHAR U+3007
ENCODING 12295
SWIDTH 1000 0
DWIDTH 12 0
BBX 12 12 0 -2
BITMAP 
0000
1e00
7380
c0c0
c0c0
8060
8060
8060
c0c0
c0c0
7380
1e00
ENDCHAR
STARTCHAR U+3008
ENCODING 12296
SWIDTH 1000 0
DWIDTH 12 0
BBX 12 12 0 -2
BITMAP 
00c0
0180
0180
0300
0300
0600
0600
0300
0300
0180
0180
00c0
ENDCHAR
STARTCHAR U+3009
ENCODING 12297
SWIDTH 1000 0
DWIDTH 12 0
BBX 12 12 0 -2
BITMAP 
6000
3000
3000
1800
1800
0c00
0c00
1800
1800
3000
3000
6000
ENDCHAR
STARTCHAR U+300A
ENCODING 12298
SWIDTH 1000 0
DWIDTH 12 0
BBX 12 12 0 -2
BITMAP 
06c0
0d80
0d80
1b00
1b00
3600
3600
1b00
1b00
0d80
0d80
06c0
ENDCHAR
STARTCHAR U+300B
ENCODING 12299
SWIDTH 1000 0
DWIDTH 12 0
BBX 12 12 0 -2
BITMAP 
6c00
3600
3600
1b00
1b00
0d80
0d80
1b00
1b00
3600
3600
6c00
ENDCHAR
STARTCHAR U+300C
ENCODING 12300
SWIDTH 1000 0
DWIDTH 12 0
BBX 12 12 0 -2
BITMAP 
07c0
0600
0600
0600
0600
0600
0600
0600
0000
0000
0000
0000
ENDCHAR
STARTCHAR U+300D
ENCODING 12301
SWIDTH 1000 0
DWIDTH 12 0
BBX 12 12 0 -2
BITMAP 
0000
0000
0000
0000
0c00
0c00
0c00
0c00
0c00
0c00
0c00
7c00
ENDCHAR
STARTCHAR U+300E
ENCODING 12302
SWIDTH 1000 0
DWIDTH 12 0
BBX 12 12 0 -2
BITMAP 
0fc0
0cc0
0dc0
0d00
0d00
0d00
0d00
0f00
0000
0000
0000
0000
ENDCHAR
STARTCHAR U+300F
ENCODING 12303
SWIDTH 1000 0
DWIDTH 12 0
BBX 12 12 0 -2
BITMAP 
0000
0000
0000
0000
1e00
1a00
1a00
1a00
1a00
7a00
6600
7e00
ENDCHAR
STARTCHAR U+3010
ENCODING 12304
SWIDTH 1000 0
DWIDTH 12 0
BBX 12 12 0 -2
BITMAP 
07c0
0780
0780
0700
0700
0700
0700
0700
0700
0780
0780
07c0
ENDCHAR
STARTCHAR U+3011
ENCODING 12305
SWIDTH 1000 0
DWIDTH 12 0
BBX 12 12 0 -2
BITMAP 
7c00
3c00
3c00
1c00
1c00
1c00
1c00
1c00
1c00
3c00
3c00
7c00
ENDCHAR
STARTCHAR U+3012
ENCODING 12306
SWIDTH 1000 0
DWIDTH 12 0
BBX 12 12 0 -2
BITMAP 
0000
ffe0
ffe0
0000
fff0
fff0
0e00
0e00
0e00
0e00
0e00
0e00
ENDCHAR
STARTCHAR U+3013
ENCODING 12307
SWIDTH 1000 0
DWIDTH 12 0
BBX 12 12 0 -2
BITMAP 
0000
0000
0000
fff0
fff0
0000
0000
fff0
fff0
0000
0000
0000
ENDCHAR
STARTCHAR U+3014
ENCODING 12308
SWIDTH 1000 0
DWIDTH 12 0
BBX 12 12 0 -2
BITMAP 
01c0
0700
0600
0600
0600
0600
0600
0600
0600
0600
0700
01c0
ENDCHAR
STARTCHAR U+3015
ENCODING 12309
SWIDTH 1000 0
DWIDTH 12 0
BBX 12 12 0 -2
BITMAP 
7000
1c00
0c00
0c00
0c00
0c00
0c00
0c00
0c00
0c00
1c00
7000
ENDCHAR
STARTCHAR U+3016
ENCODING 12310
SWIDTH 1000 0
DWIDTH 12 0
BBX 12 12 0 -2
BITMAP 
07e0
06c0
0680
0680
0700
0700
0700
0700
0680
0680
06c0
07e0
ENDCHAR
STARTCHAR U+3017
ENCODING 12311
SWIDTH 1000 0
DWIDTH 12 0
BBX 12 12 0 -2
BITMAP 
7e00
3600
1a00
1a00
0e00
0e00
0e00
0e00
1a00
1a00
3600
7e00
ENDCHAR
STARTCHAR U+3018
ENCODING 12312
SWIDTH 1000 0
DWIDTH 12 0
BBX 12 12 0 -2
BITMAP 
00e0
0780
06e0
0680
0680
0680
0680
0680
0680
06e0
0780
00e0
ENDCHAR
STARTCHAR U+3019
ENCODING 12313
SWIDTH 1000 0
DWIDTH 12 0
BBX 12 12 0 -2
BITMAP 
7000
1e00
7600
1a00
1a00
1a00
1a00
1a00
1a00
7600
1e00
7000
ENDCHAR
STARTCHAR U+301C
ENCODING 12316
SWIDTH 1000 0
DWIDTH 12 0
BBX 12 12 0 -2
BITMAP 
0000
0000
0000
0000
7800
cc00
0660
03c0
0000
0000
0000
0000
ENDCHAR
STARTCHAR U+301D
ENCODING 12317
SWIDTH 1000 0
DWIDTH 12 0
BBX 12 12 0 -2
BITMAP 
0000
01c0
0ec0
0660
0300
0000
0000
0000
0000
0000
0000
0000
ENDCHAR
STARTCHAR U+301E
ENCODING 12318
SWIDTH 1000 0
DWIDTH 12 0
BBX 12 12 0 -2
BITMAP 
0000
0760
06c0
0d80
0000
0000
0000
0000
0000
0000
0000
0000
ENDCHAR
STARTCHAR U+301F
ENCODING 12319
SWIDTH 1000 0
DWIDTH 12 0
BBX 12 12 0 -2
BITMAP 
0000
0000
0000
0000
0000
0000
0000
0000
1800
cc00
6e00
7000
ENDCHAR
STARTCHAR U+3020
ENCODING 12320
SWIDTH 1000 0
DWIDTH 12 0
BBX 12 12 0 -2
BITMAP 
0000
7fe0
0000
7fe0
6660
dad0
ef70
dad0
69a0
6f60
30c0
1f80
ENDCHAR
STARTCHAR U+3021
ENCODING 12321
SWIDTH 1000 0
DWIDTH 12 0
BBX 12 12 0 -2
BITMAP 
0000
0e00
0e00
0e00
0e00
0e00
0e00
0e00
0e00
0e00
0e00
0600
ENDCHAR
STARTCHAR U+3022
ENCODING 12322
SWIDTH 1000 0
DWIDTH 12 0
BBX 12 12 0 -2
BITMAP 
0000
0300
1b00
1b00
1b00
1b00
1b00
1b00
1b00
1b00
0300
0300
ENDCHAR
STARTCHAR U+3023
ENCODING 12323
SWIDTH 1000 0
DWIDTH 12 0
BBX 12 12 0 -2
BITMAP 
0000
01c0
71c0
76c0
76c0
76c0
76c0
76c0
76c0
76c0
01c0
00c0
ENDCHAR
STARTCHAR U+3024
ENCODING 12324
SWIDTH 1000 0
DWIDTH 12 0
BBX 12 12 0 -2
BITMAP 
0000
c0c0
e1c0
7380
3b00
1e00
1e00
3b00
7380
e1c0
c0c0
0000
ENDCHAR
STARTCHAR U+3025
ENCODING 12325
SWIDTH 1000 0
DWIDTH 12 0
BBX 12 12 0 -2
BITMAP 
0000
0000
0ec0
1d80
1f00
0f00
1d00
1b80
1b80
1b80
1f00
0000
ENDCHAR
STARTCHAR U+3026
ENCODING 12326
SWIDTH 1000 0
DWIDTH 12 0
BBX 12 12 0 -2
BITMAP 
0000
0000
0c00
0e00
0e00
0ec0
ffe0
7fe0
0000
0000
0000
0000
ENDCHAR
STARTCHAR U+3027
ENCODING 12327
SWIDTH 1000 0
DWIDTH 12 0
BBX 12 12 0 -2
BITMAP 
0000
0000
0e00
0e00
ffc0
ffe0
0000
3f80
7fc0
0000
0000
0000
ENDCHAR
STARTCHAR U+3028
ENCODING 12328
SWIDTH 1000 0
DWIDTH 12 0
BBX 12 12 0 -2
BITMAP 
0000
1c00
1c00
1d00
ff80
0000
0000
7f00
0000
00c0
ffe0
0000
ENDCHAR
STARTCHAR U+3029
ENCODING 12329
SWIDTH 1000 0
DWIDTH 12 0
BBX 12 12 0 -2
BITMAP 
0000
0c00
1800
3fc0
7fc0
3180
1b00
0e00
0e00
1b80
71e0
0000
ENDCHAR
STARTCHAR U+3033
ENCODING 12339
SWIDTH 1000 0
DWIDTH 12 0
BBX 12 12 0 -2
BITMAP 
0000
0000
0000
0000
3800
6e00
0380
00c0
0060
0030
0000
0000
ENDCHAR
STARTCHAR U+3034
ENCODING 12340
SWIDTH 1000 0
DWIDTH 12 0
BBX 12 12 0 -2
BITMAP 
0000
0700
0c00
0380
3a00
6e00
0380
00c0
0060
0030
0000
0000
ENDCHAR
STARTCHAR U+3035
ENCODING 12341
SWIDTH 1000 0
DWIDTH 12 0
BBX 12 12 0 -2
BITMAP 
0000
0000
0000
0000
03c0
0600
1c00
7000
c000
8000
0000
0000
ENDCHAR
STARTCHAR U+3041
ENCODING 12353
SWIDTH 1000 0
DWIDTH 12 0
BBX 12 12 0 -2
BITMAP 
0000
0000
0000
0000
1800
3e00
1a00
3f00
3d80
6980
3300
0000
ENDCHAR
STARTCHAR U+3042
ENCODING 12354
SWIDTH 1000 0
DWIDTH 12 0
BBX 12 12 0 -2
BITMAP 
1800
1800
7f00
1800
1f00
3680
76c0
d4c0
dcc0
d980
7700
0000
ENDCHAR
STARTCHAR U+3043
ENCODING 12355
SWIDTH 1000 0
DWIDTH 12 0
BBX 12 12 0 -2
BITMAP 
0000
0000
0000
0000
0000
3000
3600
6300
6b00
3000
0000
0000
ENDCHAR
STARTCHAR U+3044
ENCODING 12356
SWIDTH 1000 0
DWIDTH 12 0
BBX 12 12 0 -2
BITMAP 
0000
0000
6000
6300
c180
c180
c0c0
d8c0
68c0
3000
0000
0000
ENDCHAR
STARTCHAR U+3045
ENCODING 12357
SWIDTH 1000 0
DWIDTH 12 0
BBX 12 12 0 -2
BITMAP 
0000
0000
0000
0000
3000
1c00
3c00
6600
0600
0c00
3800
0000
ENDCHAR
STARTCHAR U+3046
ENCODING 12358
SWIDTH 1000 0
DWIDTH 12 0
BBX 12 12 0 -2
BITMAP 
1800
0e00
0000
1e00
7300
0180
0180
0180
0300
0e00
3800
0000
ENDCHAR
STARTCHAR U+3047
ENCODING 12359
SWIDTH 1000 0
DWIDTH 12 0
BBX 12 12 0 -2
BITMAP 
0000
0000
0000
0000
3000
1800
7e00
0c00
3800
6c00
cf00
0000
ENDCHAR
STARTCHAR U+3048
ENCODING 12360
SWIDTH 1000 0
DWIDTH 12 0
BBX 12 12 0 -2
BITMAP 
1800
0e00
0000
3f00
0300
0600
0c00
1c00
3600
6600
c3c0
0000
ENDCHAR
STARTCHAR U+3049
ENCODING 12361
SWIDTH 1000 0
DWIDTH 12 0
BBX 12 12 0 -2
BITMAP 
0000
0000
0000
0000
1800
7d00
1980
1e00
3b00
6b00
3600
0000
ENDCHAR
STARTCHAR U+304A
ENCODING 12362
SWIDTH 1000 0
DWIDTH 12 0
BBX 12 12 0 -2
BITMAP 
1800
1800
1ec0
f860
1860
1f00
3980
68c0
d8c0
d980
7700
0000
ENDCHAR
STARTCHAR U+304B
ENCODING 12363
SWIDTH 1000 0
DWIDTH 12 0
BBX 12 12 0 -2
BITMAP 
0000
3000
3180
fcc0
36c0
3660
3660
6600
6600
d600
1c00
0000
ENDCHAR
STARTCHAR U+304C
ENCODING 12364
SWIDTH 1000 0
DWIDTH 12 0
BBX 12 12 0 -2
BITMAP 
0000
31a0
31a0
fcc0
36c0
3660
3660
6600
6600
d600
1c00
0000
ENDCHAR
STARTCHAR U+304D
ENCODING 12365
SWIDTH 1000 0
DWIDTH 12 0
BBX 12 12 0 -2
BITMAP 
0c00
0f00
7c00
0780
7e00
0300
1e80
3380
6000
3000
1f00
0000
ENDCHAR
STARTCHAR U+304E
ENCODING 12366
SWIDTH 1000 0
DWIDTH 12 0
BBX 12 12 0 -2
BITMAP 
0d40
0f40
7c00
0780
7e00
0300
1e80
3380
6000
3000
1f00
0000
ENDCHAR
STARTCHAR U+304F
ENCODING 12367
SWIDTH 1000 0
DWIDTH 12 0
BBX 12 12 0 -2
BITMAP 
0000
0600
0600
0c00
1800
3000
3000
1800
0c00
0600
0600
0000
ENDCHAR
STARTCHAR U+3050
ENCODING 12368
SWIDTH 1000 0
DWIDTH 12 0
BBX 12 12 0 -2
BITMAP 
0000
0c00
0e80
1a80
3000
6000
6000
3000
1800
0c00
0c00
0000
ENDCHAR
STARTCHAR U+3051
ENCODING 12369
SWIDTH 1000 0
DWIDTH 12 0
BBX 12 12 0 -2
BITMAP 
0180
6180
61e0
6f80
c180
c180
c180
d180
6180
0300
0e00
0000
ENDCHAR
STARTCHAR U+3052
ENCODING 12370
SWIDTH 1000 0
DWIDTH 12 0
BBX 12 12 0 -2
BITMAP 
0350
6350
61e0
6f80
c180
c180
c180
d180
6180
0300
0e00
0000
ENDCHAR
STARTCHAR U+3053
ENCODING 12371
SWIDTH 1000 0
DWIDTH 12 0
BBX 12 12 0 -2
BITMAP 
0000
3000
1f80
0000
0000
0000
0000
6000
60c0
3f80
0000
0000
ENDCHAR
STARTCHAR U+3054
ENCODING 12372
SWIDTH 1000 0
DWIDTH 12 0
BBX 12 12 0 -2
BITMAP 
0000
6340
3f40
0000
0000
0000
0000
c000
c180
7f00
0000
0000
ENDCHAR
STARTCHAR U+3055
ENCODING 12373
SWIDTH 1000 0
DWIDTH 12 0
BBX 12 12 0 -2
BITMAP 
0c00
0c00
06c0
7f00
0600
0300
3e80
6380
6000
3800
0f00
0000
ENDCHAR
STARTCHAR U+3056
ENCODING 12374
SWIDTH 1000 0
DWIDTH 12 0
BBX 12 12 0 -2
BITMAP 
1b40
1b40
0d80
fe00
0c00
0600
7d00
c700
c000
7000
1e00
0000
ENDCHAR
STARTCHAR U+3057
ENCODING 12375
SWIDTH 1000 0
DWIDTH 12 0
BBX 12 12 0 -2
BITMAP 
0000
3000
3000
3000
3000
3000
3000
3000
30c0
1b80
0e00
0000
ENDCHAR
STARTCHAR U+3058
ENCODING 12376
SWIDTH 1000 0
DWIDTH 12 0
BBX 12 12 0 -2
BITMAP 
0000
3000
3340
3340
3000
3000
3000
3000
30c0
1b80
0e00
0000
ENDCHAR
STARTCHAR U+3059
ENCODING 12377
SWIDTH 1000 0
DWIDTH 12 0
BBX 12 12 0 -2
BITMAP 
0600
0600
ffc0
0600
1e00
3600
3600
1e00
0600
0c00
3800
0000
ENDCHAR
STARTCHAR U+305A
ENCODING 12378
SWIDTH 1000 0
DWIDTH 12 0
BBX 12 12 0 -2
BITMAP 
06a0
06a0
ffc0
0600
1e00
3600
3600
1e00
0600
0c00
3800
0000
ENDCHAR
STARTCHAR U+305B
ENCODING 12379
SWIDTH 1000 0
DWIDTH 12 0
BBX 12 12 0 -2
BITMAP 
0000
0300
3300
33e0
ff00
3300
3300
3600
3000
1800
0f80
0000
ENDCHAR
STARTCHAR U+305C
ENCODING 12380
SWIDTH 1000 0
DWIDTH 12 0
BBX 12 12 0 -2
BITMAP 
0000
06a0
66a0
6780
fe00
6600
6600
6c00
6000
3000
1f00
0000
ENDCHAR
STARTCHAR U+305D
ENCODING 12381
SWIDTH 1000 0
DWIDTH 12 0
BBX 12 12 0 -2
BITMAP 
0000
3f00
0600
0c00
1bc0
fe00
0c00
1800
1800
0c00
0700
0000
ENDCHAR
STARTCHAR U+305E
ENCODING 12382
SWIDTH 1000 0
DWIDTH 12 0
BBX 12 12 0 -2
BITMAP 
0000
3fa0
06a0
0c00
1bc0
fe00
0c00
1800
1800
0c00
0700
0000
ENDCHAR
STARTCHAR U+305F
ENCODING 12383
SWIDTH 1000 0
DWIDTH 12 0
BBX 12 12 0 -2
BITMAP 
1800
1800
fe00
3000
31c0
3700
6000
6000
6c00
cc00
c7c0
0000
ENDCHAR
STARTCHAR U+3060
ENCODING 12384
SWIDTH 1000 0
DWIDTH 12 0
BBX 12 12 0 -2
BITMAP 
1800
19a0
fea0
3000
31c0
3700
6000
6000
6c00
cc00
c7c0
0000
ENDCHAR
STARTCHAR U+3061
ENCODING 12385
SWIDTH 1000 0
DWIDTH 12 0
BBX 12 12 0 -2
BITMAP 
3000
3000
ff00
3000
3000
6e00
7b00
6180
0180
0700
3c00
0000
ENDCHAR
STARTCHAR U+3062
ENCODING 12386
SWIDTH 1000 0
DWIDTH 12 0
BBX 12 12 0 -2
BITMAP 
3000
3340
ff40
3000
3000
6e00
7b00
6180
0180
0700
3c00
0000
ENDCHAR
STARTCHAR U+3063
ENCODING 12387
SWIDTH 1000 0
DWIDTH 12 0
BBX 12 12 0 -2
BITMAP 
0000
0000
0000
0000
0000
0000
1e00
7300
0300
0600
1c00
0000
ENDCHAR
STARTCHAR U+3064
ENCODING 12388
SWIDTH 1000 0
DWIDTH 12 0
BBX 12 12 0 -2
BITMAP 
0000
0000
1f00
f180
00c0
00c0
0180
0700
1c00
0000
0000
0000
ENDCHAR
STARTCHAR U+3065
ENCODING 12389
SWIDTH 1000 0
DWIDTH 12 0
BBX 12 12 0 -2
BITMAP 
0000
01a0
3ea0
e300
0180
0180
0300
0e00
3800
0000
0000
0000
ENDCHAR
STARTCHAR U+3066
ENCODING 12390
SWIDTH 1000 0
DWIDTH 12 0
BBX 12 12 0 -2
BITMAP 
0000
03c0
fe00
0600
0c00
1800
1800
1800
0c00
0780
0000
0000
ENDCHAR
STARTCHAR U+3067
ENCODING 12391
SWIDTH 1000 0
DWIDTH 12 0
BBX 12 12 0 -2
BITMAP 
0000
0780
fc00
0d40
1b40
3000
3000
3000
1800
0f00
0000
0000
ENDCHAR
STARTCHAR U+3068
ENCODING 12392
SWIDTH 1000 0
DWIDTH 12 0
BBX 12 12 0 -2
BITMAP 
0000
1800
1800
1800
0dc0
0f00
1c00
3000
6000
3000
1fc0
0000
ENDCHAR
STARTCHAR U+3069
ENCODING 12393
SWIDTH 1000 0
DWIDTH 12 0
BBX 12 12 0 -2
BITMAP 
0000
19a0
19a0
1800
0dc0
0f00
1c00
3000
6000
3000
1fc0
0000
ENDCHAR
STARTCHAR U+306A
ENCODING 12394
SWIDTH 1000 0
DWIDTH 12 0
BBX 12 12 0 -2
BITMAP 
1800
1800
7ec0
31a0
3180
6180
6180
cf80
19c0
19a0
0f00
0000
ENDCHAR
STARTCHAR U+306B
ENCODING 12395
SWIDTH 1000 0
DWIDTH 12 0
BBX 12 12 0 -2
BITMAP 
0000
6000
6380
6e00
c000
c000
c000
cc00
cc00
d7c0
6000
0000
ENDCHAR
STARTCHAR U+306C
ENCODING 12396
SWIDTH 1000 0
DWIDTH 12 0
BBX 12 12 0 -2
BITMAP 
0000
0600
6600
6f80
76c0
6660
7460
d460
dba0
dac0
73c0
0000
ENDCHAR
STARTCHAR U+306D
ENCODING 12397
SWIDTH 1000 0
DWIDTH 12 0
BBX 12 12 0 -2
BITMAP 
3000
3000
3000
fb80
34c0
38c0
30c0
70c0
73c0
d6e0
3380
0000
ENDCHAR
STARTCHAR U+306E
ENCODING 12398
SWIDTH 1000 0
DWIDTH 12 0
BBX 12 12 0 -2
BITMAP 
0000
1f00
3580
6cc0
cc60
cc60
d860
d8c0
7180
0700
0000
0000
ENDCHAR
STARTCHAR U+306F
ENCODING 12399
SWIDTH 1000 0
DWIDTH 12 0
BBX 12 12 0 -2
BITMAP 
0000
6180
61e0
6f80
c180
c180
c180
cf80
d9c0
d9a0
6f00
0000
ENDCHAR
STARTCHAR U+3070
ENCODING 12400
SWIDTH 1000 0
DWIDTH 12 0
BBX 12 12 0 -2
BITMAP 
00d0
61d0
6180
6fc0
c180
c180
c180
cf80
d9c0
d9a0
6f00
0000
ENDCHAR
STARTCHAR U+3071
ENCODING 12401
SWIDTH 1000 0
DWIDTH 12 0
BBX 12 12 0 -2
BITMAP 
00e0
61b0
61e0
6f80
c180
c180
c180
cf80
d9c0
d9a0
6f00
0000
ENDCHAR
STARTCHAR U+3072
ENCODING 12402
SWIDTH 1000 0
DWIDTH 12 0
BBX 12 12 0 -2
BITMAP 
0000
0600
3c00
1980
3180
31c0
61a0
6180
6180
3300
1e00
0000
ENDCHAR
STARTCHAR U+3073
ENCODING 12403
SWIDTH 1000 0
DWIDTH 12 0
BBX 12 12 0 -2
BITMAP 
0000
0cd0
78d0
3300
6300
6380
c340
c300
c300
6600
3c00
0000
ENDCHAR
STARTCHAR U+3074
ENCODING 12404
SWIDTH 1000 0
DWIDTH 12 0
BBX 12 12 0 -2
BITMAP 
00e0
19b0
f0e0
3300
6300
6380
c340
c300
c300
6600
3c00
0000
ENDCHAR
STARTCHAR U+3075
ENCODING 12405
SWIDTH 1000 0
DWIDTH 12 0
BBX 12 12 0 -2
BITMAP 
0000
1800
0f00
0000
0c00
0d80
36c0
3660
6360
d300
1e00
0000
ENDCHAR
STARTCHAR U+3076
ENCODING 12406
SWIDTH 1000 0
DWIDTH 12 0
BBX 12 12 0 -2
BITMAP 
0000
19a0
0fa0
0000
0c00
0d80
36c0
3660
6360
d300
1e00
0000
ENDCHAR
STARTCHAR U+3077
ENCODING 12407
SWIDTH 1000 0
DWIDTH 12 0
BBX 12 12 0 -2
BITMAP 
0000
18e0
0fb0
00e0
0c00
0d80
36c0
3660
6360
d300
1e00
0000
ENDCHAR
STARTCHAR U+3078
ENCODING 12408
SWIDTH 1000 0
DWIDTH 12 0
BBX 12 12 0 -2
BITMAP 
0000
0000
0000
1c00
3600
e300
0180
00c0
0060
0000
0000
0000
ENDCHAR
STARTCHAR U+3079
ENCODING 12409
SWIDTH 1000 0
DWIDTH 12 0
BBX 12 12 0 -2
BITMAP 
0000
01a0
01a0
1c00
3600
e300
0180
00c0
0060
0000
0000
0000
ENDCHAR
STARTCHAR U+307A
ENCODING 12410
SWIDTH 1000 0
DWIDTH 12 0
BBX 12 12 0 -2
BITMAP 
0000
01c0
0360
1dc0
3600
6300
c180
00c0
0060
0000
0000
0000
ENDCHAR
STARTCHAR U+307B
ENCODING 12411
SWIDTH 1000 0
DWIDTH 12 0
BBX 12 12 0 -2
BITMAP 
0000
6fe0
6180
6180
cfc0
c180
c180
cf80
d9c0
d9a0
6f00
0000
ENDCHAR
STARTCHAR U+307C
ENCODING 12412
SWIDTH 1000 0
DWIDTH 12 0
BBX 12 12 0 -2
BITMAP 
00d0
6fd0
6180
6180
cfc0
c180
c180
cf80
d9c0
d9a0
6f00
0000
ENDCHAR
STARTCHAR U+307D
ENCODING 12413
SWIDTH 1000 0
DWIDTH 12 0
BBX 12 12 0 -2
BITMAP 
00e0
6fb0
61e0
6180
cfc0
c180
c180
cf80
d9c0
d9a0
6f00
0000
ENDCHAR
STARTCHAR U+307E
ENCODING 12414
SWIDTH 1000 0
DWIDTH 12 0
BBX 12 12 0 -2
BITMAP 
0600
0600
7fc0
0600
0780
7e00
0600
3e00
6780
66c0
3c00
0000
ENDCHAR
STARTCHAR U+307F
ENCODING 12415
SWIDTH 1000 0
DWIDTH 12 0
BBX 12 12 0 -2
BITMAP 
0000
7c00
0c00
0d80
0d80
3f80
69c0
d9a0
d180
6300
0600
0000
ENDCHAR
STARTCHAR U+3080
ENCODING 12416
SWIDTH 1000 0
DWIDTH 12 0
BBX 12 12 0 -2
BITMAP 
1800
1800
fdc0
1860
7800
d800
d800
d0c0
70c0
30c0
1f80
0000
ENDCHAR
STARTCHAR U+3081
ENCODING 12417
SWIDTH 1000 0
DWIDTH 12 0
BBX 12 12 0 -2
BITMAP 
0000
0600
6f00
6a80
76c0
6c60
d460
d860
d8c0
7180
0700
0000
ENDCHAR
STARTCHAR U+3082
ENCODING 12418
SWIDTH 1000 0
DWIDTH 12 0
BBX 12 12 0 -2
BITMAP 
1800
1800
7e00
1800
3300
fe00
3000
3180
3180
1b00
0e00
0000
ENDCHAR
STARTCHAR U+3083
ENCODING 12419
SWIDTH 1000 0
DWIDTH 12 0
BBX 12 12 0 -2
BITMAP 
0000
0000
0000
0000
1a00
1b80
7d40
18c0
0d80
0c00
0c00
0000
ENDCHAR
STARTCHAR U+3084
ENCODING 12420
SWIDTH 1000 0
DWIDTH 12 0
BBX 12 12 0 -2
BITMAP 
0c00
6c00
6780
36c0
7a60
d0c0
1b80
1800
1800
0c00
0c00
0000
ENDCHAR
STARTCHAR U+3085
ENCODING 12421
SWIDTH 1000 0
DWIDTH 12 0
BBX 12 12 0 -2
BITMAP 
0000
0000
0000
0000
0600
3780
36c0
3ac0
3780
0600
0c00
0000
ENDCHAR
STARTCHAR U+3086
ENCODING 12422
SWIDTH 1000 0
DWIDTH 12 0
BBX 12 12 0 -2
BITMAP 
0600
0600
cf80
dac0
d660
e660
eac0
cf80
c600
0c00
1800
0000
ENDCHAR
STARTCHAR U+3087
ENCODING 12423
SWIDTH 1000 0
DWIDTH 12 0
BBX 12 12 0 -2
BITMAP 
0000
0000
0000
0000
0c00
0f00
0c00
0c00
3e00
6d80
3800
0000
ENDCHAR
STARTCHAR U+3088
ENCODING 12424
SWIDTH 1000 0
DWIDTH 12 0
BBX 12 12 0 -2
BITMAP 
0c00
0c00
0c00
0f80
0c00
0c00
0c00
7c00
cf00
cdc0
7800
0000
ENDCHAR
STARTCHAR U+3089
ENCODING 12425
SWIDTH 1000 0
DWIDTH 12 0
BBX 12 12 0 -2
BITMAP 
1800
0e00
0000
6000
6000
6f00
7180
6180
0180
0700
3c00
0000
ENDCHAR
STARTCHAR U+308A
ENCODING 12426
SWIDTH 1000 0
DWIDTH 12 0
BBX 12 12 0 -2
BITMAP 
0300
1980
1980
3180
3180
3180
3580
1980
0180
0300
0e00
0000
ENDCHAR
STARTCHAR U+308B
ENCODING 12427
SWIDTH 1000 0
DWIDTH 12 0
BBX 12 12 0 -2
BITMAP 
0000
3f00
0600
0c00
1f00
3980
60c0
c0c0
1d80
3700
1e00
0000
ENDCHAR
STARTCHAR U+308C
ENCODING 12428
SWIDTH 1000 0
DWIDTH 12 0
BBX 12 12 0 -2
BITMAP 
3000
3000
3700
3580
f980
3180
3180
7180
7180
d0e0
3000
0000
ENDCHAR
STARTCHAR U+308D
ENCODING 12429
SWIDTH 1000 0
DWIDTH 12 0
BBX 12 12 0 -2
BITMAP 
0000
3f00
0600
0c00
1f00
3980
60c0
c0c0
0180
0300
1e00
0000
ENDCHAR
STARTCHAR U+308E
ENCODING 12430
SWIDTH 1000 0
DWIDTH 12 0
BBX 12 12 0 -2
BITMAP 
0000
0000
0000
0000
1800
3c00
1b80
1cc0
38c0
6980
1b00
0000
ENDCHAR
STARTCHAR U+308F
ENCODING 12431
SWIDTH 1000 0
DWIDTH 12 0
BBX 12 12 0 -2
BITMAP 
3000
3000
3000
3b80
f4c0
3860
3060
7060
d0c0
3380
3000
0000
ENDCHAR
STARTCHAR U+3090
ENCODING 12432
SWIDTH 1000 0
DWIDTH 12 0
BBX 12 12 0 -2
BITMAP 
0000
3e00
0600
0600
1f80
34c0
6c60
d860
db60
75c0
0780
0000
ENDCHAR
STARTCHAR U+3091
ENCODING 12433
SWIDTH 1000 0
DWIDTH 12 0
BBX 12 12 0 -2
BITMAP 
0000
3f80
0600
1f80
30c0
6ec0
1b80
0e00
0000
6dc0
c760
0000
ENDCHAR
STARTCHAR U+3092
ENCODING 12434
SWIDTH 1000 0
DWIDTH 12 0
BBX 12 12 0 -2
BITMAP 
0c00
0c00
7f00
1800
31c0
7b00
ce00
1a00
3600
3000
1f80
0000
ENDCHAR
STARTCHAR U+3093
ENCODING 12435
SWIDTH 1000 0
DWIDTH 12 0
BBX 12 12 0 -2
BITMAP 
0000
0c00
0c00
1800
1800
3000
3c00
6600
6660
c6c0
c380
0000
ENDCHAR
STARTCHAR U+3094
ENCODING 12436
SWIDTH 1000 0
DWIDTH 12 0
BBX 12 12 0 -2
BITMAP 
0000
19a0
0ed0
00d0
6f00
3980
0180
0180
0300
0300
0600
0c00
ENDCHAR
STARTCHAR U+309B
ENCODING 12443
SWIDTH 1000 0
DWIDTH 12 0
BBX 12 12 0 -2
BITMAP 
6000
b000
d000
c000
0000
0000
0000
0000
0000
0000
0000
0000
ENDCHAR
STARTCHAR U+309C
ENCODING 12444
SWIDTH 1000 0
DWIDTH 12 0
BBX 12 12 0 -2
BITMAP 
0000
c000
a000
a000
c000
0000
0000
0000
0000
0000
0000
0000
ENDCHAR
STARTCHAR U+309D
ENCODING 12445
SWIDTH 1000 0
DWIDTH 12 0
BBX 12 12 0 -2
BITMAP 
0000
0000
0000
0000
3800
0e00
0300
0780
0c00
0000
0000
0000
ENDCHAR
STARTCHAR U+309E
ENCODING 12446
SWIDTH 1000 0
DWIDTH 12 0
BBX 12 12 0 -2
BITMAP 
0000
0300
0d80
0600
7000
1c00
0600
0f00
1800
0000
0000
0000
ENDCHAR
STARTCHAR U+30A1
ENCODING 12449
SWIDTH 1000 0
DWIDTH 12 0
BBX 12 12 0 -2
BITMAP 
0000
0000
0000
0000
0000
7f00
1b00
1e00
1800
1800
3000
0000
ENDCHAR
STARTCHAR U+30A2
ENCODING 12450
SWIDTH 1000 0
DWIDTH 12 0
BBX 12 12 0 -2
BITMAP 
0000
0000
ffc0
00c0
1980
1b00
1e00
1800
1800
3000
6000
0000
ENDCHAR
STARTCHAR U+30A3
ENCODING 12451
SWIDTH 1000 0
DWIDTH 12 0
BBX 12 12 0 -2
BITMAP 
0000
0000
0000
0000
0600
0600
0c00
1c00
7400
0c00
0c00
0000
ENDCHAR
STARTCHAR U+30A4
ENCODING 12452
SWIDTH 1000 0
DWIDTH 12 0
BBX 12 12 0 -2
BITMAP 
0000
0180
0180
0300
0600
1e00
7600
0600
0600
0600
0600
0000
ENDCHAR
STARTCHAR U+30A5
ENCODING 12453
SWIDTH 1000 0
DWIDTH 12 0
BBX 12 12 0 -2
BITMAP 
0000
0000
0000
0000
1800
1800
7f00
6300
6600
0c00
3800
0000
ENDCHAR
STARTCHAR U+30A6
ENCODING 12454
SWIDTH 1000 0
DWIDTH 12 0
BBX 12 12 0 -2
BITMAP 
0c00
0c00
0c00
ffc0
c0c0
c0c0
c180
0180
0300
0e00
3800
0000
ENDCHAR
STARTCHAR U+30A7
ENCODING 12455
SWIDTH 1000 0
DWIDTH 12 0
BBX 12 12 0 -2
BITMAP 
0000
0000
0000
0000
0000
0000
3f00
0c00
0c00
7f80
0000
0000
ENDCHAR
STARTCHAR U+30A8
ENCODING 12456
SWIDTH 1000 0
DWIDTH 12 0
BBX 12 12 0 -2
BITMAP 
0000
0000
0000
7fc0
0c00
0c00
0c00
0c00
0c00
ffe0
0000
0000
ENDCHAR
STARTCHAR U+30A9
ENCODING 12457
SWIDTH 1000 0
DWIDTH 12 0
BBX 12 12 0 -2
BITMAP 
0000
0000
0000
0000
0600
0600
7f80
0e00
1a00
7600
0e00
0000
ENDCHAR
STARTCHAR U+30AA
ENCODING 12458
SWIDTH 1000 0
DWIDTH 12 0
BBX 12 12 0 -2
BITMAP 
0300
0300
0300
7fe0
0700
0700
0d00
1b00
7300
0300
0700
0000
ENDCHAR
STARTCHAR U+30AB
ENCODING 12459
SWIDTH 1000 0
DWIDTH 12 0
BBX 12 12 0 -2
BITMAP 
0c00
0c00
0c00
7fc0
0cc0
0cc0
0cc0
18c0
18c0
30c0
6380
0000
ENDCHAR
STARTCHAR U+30AC
ENCODING 12460
SWIDTH 1000 0
DWIDTH 12 0
BBX 12 12 0 -2
BITMAP 
0da0
0da0
0c00
7fc0
0cc0
0cc0
0cc0
18c0
18c0
30c0
6380
0000
ENDCHAR
STARTCHAR U+30AD
ENCODING 12461
SWIDTH 1000 0
DWIDTH 12 0
BBX 12 12 0 -2
BITMAP 
0c00
0c00
0f80
fc00
0c00
0fc0
fe00
0600
0600
0600
0600
0000
ENDCHAR
STARTCHAR U+30AE
ENCODING 12462
SWIDTH 1000 0
DWIDTH 12 0
BBX 12 12 0 -2
BITMAP 
0da0
0da0
0f80
fc00
0c00
0fc0
fe00
0600
0600
0600
0600
0000
ENDCHAR
STARTCHAR U+30AF
ENCODING 12463
SWIDTH 1000 0
DWIDTH 12 0
BBX 12 12 0 -2
BITMAP 
0000
0c00
0fc0
0cc0
18c0
3180
6180
0300
0600
1c00
7000
0000
ENDCHAR
STARTCHAR U+30B0
ENCODING 12464
SWIDTH 1000 0
DWIDTH 12 0
BBX 12 12 0 -2
BITMAP 
00d0
0cd0
0fc0
0cc0
18c0
3180
6180
0300
0600
1c00
7000
0000
ENDCHAR
STARTCHAR U+30B1
ENCODING 12465
SWIDTH 1000 0
DWIDTH 12 0
BBX 12 12 0 -2
BITMAP 
0000
3000
3000
3fe0
3300
6300
c300
0300
0600
0c00
3800
0000
ENDCHAR
STARTCHAR U+30B2
ENCODING 12466
SWIDTH 1000 0
DWIDTH 12 0
BBX 12 12 0 -2
BITMAP 
0000
30d0
30d0
3fc0
3300
6300
c300
0300
0600
0c00
3800
0000
ENDCHAR
STARTCHAR U+30B3
ENCODING 12467
SWIDTH 1000 0
DWIDTH 12 0
BBX 12 12 0 -2
BITMAP 
0000
0000
7fc0
00c0
00c0
00c0
00c0
00c0
7fc0
00c0
0000
0000
ENDCHAR
STARTCHAR U+30B4
ENCODING 12468
SWIDTH 1000 0
DWIDTH 12 0
BBX 12 12 0 -2
BITMAP 
0000
01a0
01a0
ff80
0180
0180
0180
0180
0180
ff80
0180
0000
ENDCHAR
STARTCHAR U+30B5
ENCODING 12469
SWIDTH 1000 0
DWIDTH 12 0
BBX 12 12 0 -2
BITMAP 
0000
1980
1980
1980
ffe0
1980
1980
1980
0300
0600
1c00
0000
ENDCHAR
STARTCHAR U+30B6
ENCODING 12470
SWIDTH 1000 0
DWIDTH 12 0
BBX 12 12 0 -2
BITMAP 
0000
3350
3350
3300
ffc0
3300
3300
3300
0600
0c00
3800
0000
ENDCHAR
STARTCHAR U+30B7
ENCODING 12471
SWIDTH 1000 0
DWIDTH 12 0
BBX 12 12 0 -2
BITMAP 
0000
7000
1800
00c0
e0c0
3180
0180
0300
0600
1c00
f000
0000
ENDCHAR
STARTCHAR U+30B8
ENCODING 12472
SWIDTH 1000 0
DWIDTH 12 0
BBX 12 12 0 -2
BITMAP 
0000
71a0
19a0
0000
e0c0
30c0
0180
0300
0600
1c00
f000
0000
ENDCHAR
STARTCHAR U+30B9
ENCODING 12473
SWIDTH 1000 0
DWIDTH 12 0
BBX 12 12 0 -2
BITMAP 
0000
0000
7f80
0180
0180
0300
0300
0680
0cc0
3860
e060
0000
ENDCHAR
STARTCHAR U+30BA
ENCODING 12474
SWIDTH 1000 0
DWIDTH 12 0
BBX 12 12 0 -2
BITMAP 
0000
01a0
7fa0
0180
0180
0300
0300
0680
0cc0
3860
e060
0000
ENDCHAR
STARTCHAR U+30BB
ENCODING 12475
SWIDTH 1000 0
DWIDTH 12 0
BBX 12 12 0 -2
BITMAP 
0000
3000
3000
33c0
3ec0
f180
3300
3600
3000
3000
1f80
0000
ENDCHAR
STARTCHAR U+30BC
ENCODING 12476
SWIDTH 1000 0
DWIDTH 12 0
BBX 12 12 0 -2
BITMAP 
0000
31a0
31a0
33c0
3ec0
f180
3300
3600
3000
3000
1f80
0000
ENDCHAR
STARTCHAR U+30BD
ENCODING 12477
SWIDTH 1000 0
DWIDTH 12 0
BBX 12 12 0 -2
BITMAP 
0000
0000
60c0
30c0
30c0
0180
0180
0300
0600
1c00
7000
0000
ENDCHAR
STARTCHAR U+30BE
ENCODING 12478
SWIDTH 1000 0
DWIDTH 12 0
BBX 12 12 0 -2
BITMAP 
0000
01a0
61a0
30c0
30c0
0180
0180
0300
0600
1c00
7000
0000
ENDCHAR
STARTCHAR U+30BF
ENCODING 12479
SWIDTH 1000 0
DWIDTH 12 0
BBX 12 12 0 -2
BITMAP 
0000
0c00
0fc0
18c0
30c0
ee80
0380
0300
0600
1c00
7000
0000
ENDCHAR
STARTCHAR U+30C0
ENCODING 12480
SWIDTH 1000 0
DWIDTH 12 0
BBX 12 12 0 -2
BITMAP 
0000
0cd0
0fd0
18c0
30c0
ee80
0380
0300
0600
1c00
7000
0000
ENDCHAR
STARTCHAR U+30C1
ENCODING 12481
SWIDTH 1000 0
DWIDTH 12 0
BBX 12 12 0 -2
BITMAP 
0000
0380
7e00
0600
0600
ffe0
0600
0600
0600
0c00
3800
0000
ENDCHAR
STARTCHAR U+30C2
ENCODING 12482
SWIDTH 1000 0
DWIDTH 12 0
BBX 12 12 0 -2
BITMAP 
0000
03d0
7ed0
0600
0600
ffe0
0600
0600
0600
0c00
3800
0000
ENDCHAR
STARTCHAR U+30C3
ENCODING 12483
SWIDTH 1000 0
DWIDTH 12 0
BBX 12 12 0 -2
BITMAP 
0000
0000
0000
0000
1800
6d80
3580
3300
0300
0e00
3800
0000
ENDCHAR
STARTCHAR U+30C4
ENCODING 12484
SWIDTH 1000 0
DWIDTH 12 0
BBX 12 12 0 -2
BITMAP 
0000
1800
ccc0
6cc0
6cc0
6180
0180
0300
0600
1c00
7000
0000
ENDCHAR
STARTCHAR U+30C5
ENCODING 12485
SWIDTH 1000 0
DWIDTH 12 0
BBX 12 12 0 -2
BITMAP 
01a0
19a0
cc00
6cc0
6cc0
6180
0180
0300
0600
1c00
7000
0000
ENDCHAR
STARTCHAR U+30C6
ENCODING 12486
SWIDTH 1000 0
DWIDTH 12 0
BBX 12 12 0 -2
BITMAP 
0000
0000
3f80
0000
0000
ffe0
0600
0600
0c00
1800
7000
0000
ENDCHAR
STARTCHAR U+30C7
ENCODING 12487
SWIDTH 1000 0
DWIDTH 12 0
BBX 12 12 0 -2
BITMAP 
0000
01a0
3fa0
0000
0000
ffe0
0600
0600
0c00
1800
7000
0000
ENDCHAR
STARTCHAR U+30C8
ENCODING 12488
SWIDTH 1000 0
DWIDTH 12 0
BBX 12 12 0 -2
BITMAP 
3000
3000
3000
3000
3c00
3700
3180
3000
3000
3000
3000
0000
ENDCHAR
STARTCHAR U+30C9
ENCODING 12489
SWIDTH 1000 0
DWIDTH 12 0
BBX 12 12 0 -2
BITMAP 
3000
3340
3340
3000
3c00
3700
3180
3000
3000
3000
3000
0000
ENDCHAR
STARTCHAR U+30CA
ENCODING 12490
SWIDTH 1000 0
DWIDTH 12 0
BBX 12 12 0 -2
BITMAP 
0600
0600
0600
ffe0
0600
0600
0600
0c00
0c00
1800
7000
0000
ENDCHAR
STARTCHAR U+30CB
ENCODING 12491
SWIDTH 1000 0
DWIDTH 12 0
BBX 12 12 0 -2
BITMAP 
0000
0000
0000
3f80
0000
0000
0000
0000
ffe0
0000
0000
0000
ENDCHAR
STARTCHAR U+30CC
ENCODING 12492
SWIDTH 1000 0
DWIDTH 12 0
BBX 12 12 0 -2
BITMAP 
0000
0000
3fc0
00c0
0180
1d80
0700
0680
0cc0
3860
e000
0000
ENDCHAR
STARTCHAR U+30CD
ENCODING 12493
SWIDTH 1000 0
DWIDTH 12 0
BBX 12 12 0 -2
BITMAP 
0c00
0c00
7f80
0180
0300
0e00
3d80
ece0
0c00
0c00
0c00
0000
ENDCHAR
STARTCHAR U+30CE
ENCODING 12494
SWIDTH 1000 0
DWIDTH 12 0
BBX 12 12 0 -2
BITMAP 
0000
0000
00c0
00c0
0180
0180
0300
0600
1c00
7000
0000
0000
ENDCHAR
STARTCHAR U+30CF
ENCODING 12495
SWIDTH 1000 0
DWIDTH 12 0
BBX 12 12 0 -2
BITMAP 
0000
0000
0000
1b00
1980
1980
30c0
30c0
3060
6060
c060
0000
ENDCHAR
STARTCHAR U+30D0
ENCODING 12496
SWIDTH 1000 0
DWIDTH 12 0
BBX 12 12 0 -2
BITMAP 
0000
00d0
00d0
1b00
1980
1980
30c0
30c0
3060
6060
c060
0000
ENDCHAR
STARTCHAR U+30D1
ENCODING 12497
SWIDTH 1000 0
DWIDTH 12 0
BBX 12 12 0 -2
BITMAP 
0000
00e0
01b0
1b60
1980
1980
30c0
30c0
3060
6060
c060
0000
ENDCHAR
STARTCHAR U+30D2
ENCODING 12498
SWIDTH 1000 0
DWIDTH 12 0
BBX 12 12 0 -2
BITMAP 
0000
6000
6000
6000
6380
7e00
6000
6000
6000
3fc0
0000
0000
ENDCHAR
STARTCHAR U+30D3
ENCODING 12499
SWIDTH 1000 0
DWIDTH 12 0
BBX 12 12 0 -2
BITMAP 
0000
61a0
61a0
6000
6780
7c00
6000
6000
6000
3fc0
0000
0000
ENDCHAR
STARTCHAR U+30D4
ENCODING 12500
SWIDTH 1000 0
DWIDTH 12 0
BBX 12 12 0 -2
BITMAP 
0000
61c0
6360
61c0
6780
7c00
6000
6000
6000
3fc0
0000
0000
ENDCHAR
STARTCHAR U+30D5
ENCODING 12501
SWIDTH 1000 0
DWIDTH 12 0
BBX 12 12 0 -2
BITMAP 
0000
0000
ffc0
00c0
00c0
0180
0180
0300
0600
1c00
7000
0000
ENDCHAR
STARTCHAR U+30D6
ENCODING 12502
SWIDTH 1000 0
DWIDTH 12 0
BBX 12 12 0 -2
BITMAP 
0340
0340
ff80
0180
0180
0300
0300
0600
0c00
3800
e000
0000
ENDCHAR
STARTCHAR U+30D7
ENCODING 12503
SWIDTH 1000 0
DWIDTH 12 0
BBX 12 12 0 -2
BITMAP 
01c0
0360
ffc0
0180
0180
0300
0300
0600
0c00
3800
e000
0000
ENDCHAR
STARTCHAR U+30D8
ENCODING 12504
SWIDTH 1000 0
DWIDTH 12 0
BBX 12 12 0 -2
BITMAP 
0000
0000
0000
1c00
3600
6300
c180
00c0
0060
0000
0000
0000
ENDCHAR
STARTCHAR U+30D9
ENCODING 12505
SWIDTH 1000 0
DWIDTH 12 0
BBX 12 12 0 -2
BITMAP 
0000
01a0
01a0
1c00
3600
6300
c180
00c0
0060
0000
0000
0000
ENDCHAR
STARTCHAR U+30DA
ENCODING 12506
SWIDTH 1000 0
DWIDTH 12 0
BBX 12 12 0 -2
BITMAP 
0000
01c0
0360
1dc0
3600
6300
c180
00c0
0060
0000
0000
0000
ENDCHAR
STARTCHAR U+30DB
ENCODING 12507
SWIDTH 1000 0
DWIDTH 12 0
BBX 12 12 0 -2
BITMAP 
0c00
0c00
0c00
ffc0
0c00
3500
3580
6cc0
6cc0
cc00
1c00
0000
ENDCHAR
STARTCHAR U+30DC
ENCODING 12508
SWIDTH 1000 0
DWIDTH 12 0
BBX 12 12 0 -2
BITMAP 
1800
1b40
1b40
ff80
1800
6a00
6b00
d980
d980
9800
3800
0000
ENDCHAR
STARTCHAR U+30DD
ENCODING 12509
SWIDTH 1000 0
DWIDTH 12 0
BBX 12 12 0 -2
BITMAP 
1800
19c0
1b60
fec0
1800
6a00
6b00
d980
d980
9800
3800
0000
ENDCHAR
STARTCHAR U+30DE
ENCODING 12510
SWIDTH 1000 0
DWIDTH 12 0
BBX 12 12 0 -2
BITMAP 
0000
0000
ffc0
00c0
0180
0300
7600
1c00
0600
0300
0000
0000
ENDCHAR
STARTCHAR U+30DF
ENCODING 12511
SWIDTH 1000 0
DWIDTH 12 0
BBX 12 12 0 -2
BITMAP 
0000
3c00
0700
0180
0000
3c00
0600
0000
7800
0e00
0380
0000
ENDCHAR
STARTCHAR U+30E0
ENCODING 12512
SWIDTH 1000 0
DWIDTH 12 0
BBX 12 12 0 -2
BITMAP 
0000
0c00
0c00
0c00
1800
1a00
3300
3180
6f80
f8c0
00c0
0000
ENDCHAR
STARTCHAR U+30E1
ENCODING 12513
SWIDTH 1000 0
DWIDTH 12 0
BBX 12 12 0 -2
BITMAP 
0000
00c0
00c0
00c0
1cc0
0780
0180
0340
0660
1c00
7000
0000
ENDCHAR
STARTCHAR U+30E2
ENCODING 12514
SWIDTH 1000 0
DWIDTH 12 0
BBX 12 12 0 -2
BITMAP 
0000
0000
7f80
1800
1800
ffe0
1800
1800
1800
0fc0
0000
0000
ENDCHAR
STARTCHAR U+30E3
ENCODING 12515
SWIDTH 1000 0
DWIDTH 12 0
BBX 12 12 0 -2
BITMAP 
0000
0000
0000
0000
1800
1800
1bc0
7d80
0d00
0c00
0c00
0000
ENDCHAR
STARTCHAR U+30E4
ENCODING 12516
SWIDTH 1000 0
DWIDTH 12 0
BBX 12 12 0 -2
BITMAP 
0000
3000
3000
33e0
3ec0
e980
1b00
1800
0c00
0c00
0c00
0000
ENDCHAR
STARTCHAR U+30E5
ENCODING 12517
SWIDTH 1000 0
DWIDTH 12 0
BBX 12 12 0 -2
BITMAP 
0000
0000
0000
0000
0000
0000
3e00
0600
0600
7f80
0000
0000
ENDCHAR
STARTCHAR U+30E6
ENCODING 12518
SWIDTH 1000 0
DWIDTH 12 0
BBX 12 12 0 -2
BITMAP 
0000
0000
0000
7f80
0180
0180
0300
0300
0300
ffe0
0000
0000
ENDCHAR
STARTCHAR U+30E7
ENCODING 12519
SWIDTH 1000 0
DWIDTH 12 0
BBX 12 12 0 -2
BITMAP 
0000
0000
0000
0000
0000
7f00
0300
3f00
0300
0300
7f00
0000
ENDCHAR
STARTCHAR U+30E8
ENCODING 12520
SWIDTH 1000 0
DWIDTH 12 0
BBX 12 12 0 -2
BITMAP 
0000
0000
ffc0
00c0
00c0
7fc0
00c0
00c0
00c0
ffc0
00c0
0000
ENDCHAR
STARTCHAR U+30E9
ENCODING 12521
SWIDTH 1000 0
DWIDTH 12 0
BBX 12 12 0 -2
BITMAP 
0000
7f80
0000
0000
ffc0
00c0
0180
0180
0300
0e00
7800
0000
ENDCHAR
STARTCHAR U+30EA
ENCODING 12522
SWIDTH 1000 0
DWIDTH 12 0
BBX 12 12 0 -2
BITMAP 
0000
3180
3180
3180
3180
3180
3180
0300
0300
0600
1c00
0000
ENDCHAR
STARTCHAR U+30EB
ENCODING 12523
SWIDTH 1000 0
DWIDTH 12 0
BBX 12 12 0 -2
BITMAP 
0000
0600
3600
3600
3600
3660
3660
36c0
6680
6700
c000
0000
ENDCHAR
STARTCHAR U+30EC
ENCODING 12524
SWIDTH 1000 0
DWIDTH 12 0
BBX 12 12 0 -2
BITMAP 
0000
6000
6000
6000
6000
6000
6180
6300
6600
6c00
7000
0000
ENDCHAR
STARTCHAR U+30ED
ENCODING 12525
SWIDTH 1000 0
DWIDTH 12 0
BBX 12 12 0 -2
BITMAP 
0000
0000
7fc0
60c0
60c0
60c0
60c0
60c0
7fc0
60c0
0000
0000
ENDCHAR
STARTCHAR U+30EE
ENCODING 12526
SWIDTH 1000 0
DWIDTH 12 0
BBX 12 12 0 -2
BITMAP 
0000
0000
0000
0000
0000
7f00
6300
6300
0600
0c00
3800
0000
ENDCHAR
STARTCHAR U+30EF
ENCODING 12527
SWIDTH 1000 0
DWIDTH 12 0
BBX 12 12 0 -2
BITMAP 
0000
0000
7fc0
60c0
60c0
60c0
0180
0180
0300
0e00
3800
0000
ENDCHAR
STARTCHAR U+30F0
ENCODING 12528
SWIDTH 1000 0
DWIDTH 12 0
BBX 12 12 0 -2
BITMAP 
0300
0300
0300
ffc0
3300
3300
3300
ffe0
0300
0300
0300
0000
ENDCHAR
STARTCHAR U+30F1
ENCODING 12529
SWIDTH 1000 0
DWIDTH 12 0
BBX 12 12 0 -2
BITMAP 
0000
0000
7f80
0180
0d00
0e00
0c00
0c00
0c00
ffc0
0000
0000
ENDCHAR
STARTCHAR U+30F2
ENCODING 12530
SWIDTH 1000 0
DWIDTH 12 0
BBX 12 12 0 -2
BITMAP 
0000
0000
7fc0
00c0
00c0
3fc0
0180
0180
0300
0e00
7800
0000
ENDCHAR
STARTCHAR U+30F3
ENCODING 12531
SWIDTH 1000 0
DWIDTH 12 0
BBX 12 12 0 -2
BITMAP 
0000
0000
e000
30c0
00c0
0180
0180
0300
0600
1c00
f000
0000
ENDCHAR
STARTCHAR U+30F4
ENCODING 12532
SWIDTH 1000 0
DWIDTH 12 0
BBX 12 12 0 -2
BITMAP 
0da0
0da0
0c00
ffc0
c0c0
c0c0
0180
0180
0300
0e00
3800
0000
ENDCHAR
STARTCHAR U+30F5
ENCODING 12533
SWIDTH 1000 0
DWIDTH 12 0
BBX 12 12 0 -2
BITMAP 
0000
0000
0000
0000
1800
1800
7f00
1b00
1b00
3300
6e00
0000
ENDCHAR
STARTCHAR U+30F6
ENCODING 12534
SWIDTH 1000 0
DWIDTH 12 0
BBX 12 12 0 -2
BITMAP 
0000
0000
0000
0000
1800
1800
1f80
7600
0600
0c00
3800
0000
ENDCHAR
STARTCHAR U+30F7
ENCODING 12535
SWIDTH 1000 0
DWIDTH 12 0
BBX 12 12 0 -2
BITMAP 
0000
01a0
cf50
7b50
6300
3300
3300
0600
0600
0c00
1800
0000
ENDCHAR
STARTCHAR U+30F8
ENCODING 12536
SWIDTH 1000 0
DWIDTH 12 0
BBX 12 12 0 -2
BITMAP 
0000
06a0
0350
07d0
7d00
3300
1b00
1bc0
7d60
0300
0300
0300
ENDCHAR
STARTCHAR U+30F9
ENCODING 12537
SWIDTH 1000 0
DWIDTH 12 0
BBX 12 12 0 -2
BITMAP 
0000
01a0
00d0
07d0
7cc0
0d80
0600
0600
07e0
fe30
0000
0000
ENDCHAR
STARTCHAR U+30FA
ENCODING 12538
SWIDTH 1000 0
DWIDTH 12 0
BBX 12 12 0 -2
BITMAP 
0000
01a0
cf50
7b50
0300
0f00
7b00
0300
0600
0c00
3800
0000
ENDCHAR
STARTCHAR U+30FB
ENCODING 12539
SWIDTH 1000 0
DWIDTH 12 0
BBX 12 12 0 -2
BITMAP 
0000
0000
0000
0000
0000
0e00
0e00
0000
0000
0000
0000
0000
ENDCHAR
STARTCHAR U+30FC
ENCODING 12540
SWIDTH 1000 0
DWIDTH 12 0
BBX 12 12 0 -2
BITMAP 
0000
0000
0000
0000
0000
7fc0
0000
0000
0000
0000
0000
0000
ENDCHAR
STARTCHAR U+30FD
ENCODING 12541
SWIDTH 1000 0
DWIDTH 12 0
BBX 12 12 0 -2
BITMAP 
0000
0000
0000
0000
0000
7000
1c00
0600
0300
0000
0000
0000
ENDCHAR
STARTCHAR U+30FE
ENCODING 12542
SWIDTH 1000 0
DWIDTH 12 0
BBX 12 12 0 -2
BITMAP 
0000
0000
0300
0d80
0600
7000
1c00
0600
0300
0000
0000
0000
ENDCHAR
STARTCHAR U+3105
ENCODING 12549
SWIDTH 1000 0
DWIDTH 12 0
BBX 12 12 0 -2
BITMAP 
0000
3000
6000
7fc0
00c0
00c0
00c0
00c0
00c0
0180
0180
0300
ENDCHAR
STARTCHAR U+3106
ENCODING 12550
SWIDTH 1000 0
DWIDTH 12 0
BBX 12 12 0 -2
BITMAP 
0000
1800
3000
7fc0
00c0
0180
0d80
0700
0700
1d80
7000
0000
ENDCHAR
STARTCHAR U+3107
ENCODING 12551
SWIDTH 1000 0
DWIDTH 12 0
BBX 12 12 0 -2
BITMAP 
0000
0000
0000
ffc0
c0c0
c0c0
c0c0
c0c0
c0c0
0000
0000
0000
ENDCHAR
STARTCHAR U+3108
ENCODING 12552
SWIDTH 1000 0
DWIDTH 12 0
BBX 12 12 0 -2
BITMAP 
0000
7f80
6000
6000
6000
6000
6000
6000
6000
6000
3fc0
0000
ENDCHAR
STARTCHAR U+3109
ENCODING 12553
SWIDTH 1000 0
DWIDTH 12 0
BBX 12 12 0 -2
BITMAP 
0000
1800
3000
7fc0
0cc0
0cc0
0cc0
18c0
18c0
3180
6180
0300
ENDCHAR
STARTCHAR U+310A
ENCODING 12554
SWIDTH 1000 0
DWIDTH 12 0
BBX 12 12 0 -2
BITMAP 
0000
0c00
0c00
0c00
ffc0
0c00
1800
1800
3000
7f80
0000
0000
ENDCHAR
STARTCHAR U+310B
ENCODING 12555
SWIDTH 1000 0
DWIDTH 12 0
BBX 12 12 0 -2
BITMAP 
0000
7e00
0300
0600
0f80
00c0
00c0
00c0
00c0
0180
0180
0300
ENDCHAR
STARTCHAR U+310C
ENCODING 12556
SWIDTH 1000 0
DWIDTH 12 0
BBX 12 12 0 -2
BITMAP 
0000
0c00
3400
6c00
3fc0
0cc0
0cc0
18c0
18c0
00c0
0180
0300
ENDCHAR
STARTCHAR U+310D
ENCODING 12557
SWIDTH 1000 0
DWIDTH 12 0
BBX 12 12 0 -2
BITMAP 
0000
0000
1b00
1b00
3600
3600
6c00
3600
0000
1b00
1b00
0000
ENDCHAR
STARTCHAR U+310E
ENCODING 12558
SWIDTH 1000 0
DWIDTH 12 0
BBX 12 12 0 -2
BITMAP 
0000
ffc0
1800
1800
3000
7f80
0180
0180
0180
0180
0300
0300
ENDCHAR
STARTCHAR U+310F
ENCODING 12559
SWIDTH 1000 0
DWIDTH 12 0
BBX 12 12 0 -2
BITMAP 
0000
7fc0
6000
6000
6000
6000
6000
6000
0000
c000
8000
0000
ENDCHAR
STARTCHAR U+3110
ENCODING 12560
SWIDTH 1000 0
DWIDTH 12 0
BBX 12 12 0 -2
BITMAP 
0000
0300
1b00
1b00
1b00
1b00
3300
3d00
0300
0300
0300
0300
ENDCHAR
STARTCHAR U+3111
ENCODING 12561
SWIDTH 1000 0
DWIDTH 12 0
BBX 12 12 0 -2
BITMAP 
0000
0600
0600
0c00
0c00
1800
0000
0c00
0600
0600
0300
0000
ENDCHAR
STARTCHAR U+3112
ENCODING 12562
SWIDTH 1000 0
DWIDTH 12 0
BBX 12 12 0 -2
BITMAP 
0000
ffc0
0c00
0c00
0c00
0c00
0c00
0c00
0c00
0c00
0c00
0000
ENDCHAR
STARTCHAR U+3113
ENCODING 12563
SWIDTH 1000 0
DWIDTH 12 0
BBX 12 12 0 -2
BITMAP 
0000
0c00
6d80
6d80
6d80
6d80
6d80
3f80
0c00
0c00
ffc0
0000
ENDCHAR
STARTCHAR U+3114
ENCODING 12564
SWIDTH 1000 0
DWIDTH 12 0
BBX 12 12 0 -2
BITMAP 
0000
0600
0c00
1800
3600
6c00
1c00
3400
6c00
0c00
0c00
0c00
ENDCHAR
STARTCHAR U+3115
ENCODING 12565
SWIDTH 1000 0
DWIDTH 12 0
BBX 12 12 0 -2
BITMAP 
0000
3f80
00c0
00c0
3fc0
6000
6000
6000
6000
c000
c000
8000
ENDCHAR
STARTCHAR U+3116
ENCODING 12566
SWIDTH 1000 0
DWIDTH 12 0
BBX 12 12 0 -2
BITMAP 
0000
3f00
3300
3300
3300
3500
3700
3300
3300
3300
3f00
0000
ENDCHAR
STARTCHAR U+3117
ENCODING 12567
SWIDTH 1000 0
DWIDTH 12 0
BBX 12 12 0 -2
BITMAP 
0000
7f80
1980
1980
1980
1980
1b00
1b00
1800
1800
1800
1800
ENDCHAR
STARTCHAR U+3118
ENCODING 12568
SWIDTH 1000 0
DWIDTH 12 0
BBX 12 12 0 -2
BITMAP 
0000
1800
1800
ffc0
1800
1800
3f80
0180
0000
0300
0600
0c00
ENDCHAR
STARTCHAR U+3119
ENCODING 12569
SWIDTH 1000 0
DWIDTH 12 0
BBX 12 12 0 -2
BITMAP 
0000
0c00
0c00
0c00
1800
1800
1800
3000
6300
7f80
0000
0000
ENDCHAR
STARTCHAR U+311A
ENCODING 12570
SWIDTH 1000 0
DWIDTH 12 0
BBX 12 12 0 -2
BITMAP 
0000
0000
0000
0000
0000
0c00
0c00
0c00
0c00
0c00
0c00
0c00
ENDCHAR
STARTCHAR U+311B
ENCODING 12571
SWIDTH 1000 0
DWIDTH 12 0
BBX 12 12 0 -2
BITMAP 
0000
ffc0
0c00
0c00
3c00
6000
c000
c000
c0c0
6180
3f00
0000
ENDCHAR
STARTCHAR U+311C
ENCODING 12572
SWIDTH 1000 0
DWIDTH 12 0
BBX 12 12 0 -2
BITMAP 
0000
0c00
0c00
ffc0
0c00
3c00
6000
c000
c000
00c0
3f80
0000
ENDCHAR
STARTCHAR U+311D
ENCODING 12573
SWIDTH 1000 0
DWIDTH 12 0
BBX 12 12 0 -2
BITMAP 
0000
0000
3300
3300
ffc0
3300
3000
3600
3400
3000
1f80
0000
ENDCHAR
STARTCHAR U+311E
ENCODING 12574
SWIDTH 1000 0
DWIDTH 12 0
BBX 12 12 0 -2
BITMAP 
0000
ffc0
3400
3400
7f80
0cc0
0cc0
0cc0
18c0
0180
0180
0000
ENDCHAR
STARTCHAR U+311F
ENCODING 12575
SWIDTH 1000 0
DWIDTH 12 0
BBX 12 12 0 -2
BITMAP 
0000
3000
1800
1800
1800
1800
0000
0c00
0600
0300
0180
0000
ENDCHAR
STARTCHAR U+3120
ENCODING 12576
SWIDTH 1000 0
DWIDTH 12 0
BBX 12 12 0 -2
BITMAP 
0000
1800
1800
0300
3300
7e00
0c00
1800
3300
7f80
0000
0000
ENDCHAR
STARTCHAR U+3121
ENCODING 12577
SWIDTH 1000 0
DWIDTH 12 0
BBX 12 12 0 -2
BITMAP 
0000
0000
7f80
0180
0300
1b00
0c00
0600
0c00
1800
3000
0000
ENDCHAR
STARTCHAR U+3122
ENCODING 12578
SWIDTH 1000 0
DWIDTH 12 0
BBX 12 12 0 -2
BITMAP 
0000
7f00
3300
3300
6300
7fc0
00c0
00c0
0180
0180
0300
0000
ENDCHAR
STARTCHAR U+3123
ENCODING 12579
SWIDTH 1000 0
DWIDTH 12 0
BBX 12 12 0 -2
BITMAP 
0000
3000
3000
3000
6000
6000
7fc0
00c0
00c0
0180
0180
0000
ENDCHAR
STARTCHAR U+3124
ENCODING 12580
SWIDTH 1000 0
DWIDTH 12 0
BBX 12 12 0 -2
BITMAP 
0000
1800
1800
1800
ffc0
1a00
1a00
1a00
1a00
3600
e7c0
0000
ENDCHAR
STARTCHAR U+3125
ENCODING 12581
SWIDTH 1000 0
DWIDTH 12 0
BBX 12 12 0 -2
BITMAP 
0000
0000
0c00
0c00
1800
1800
0000
0000
0000
7fc0
0000
0000
ENDCHAR
STARTCHAR U+3126
ENCODING 12582
SWIDTH 1000 0
DWIDTH 12 0
BBX 12 12 0 -2
BITMAP 
0000
0000
1a00
1a00
1a00
1a00
1a00
1a00
3600
3660
e7e0
0000
ENDCHAR
STARTCHAR U+3127
ENCODING 12583
SWIDTH 1000 0
DWIDTH 12 0
BBX 12 12 0 -2
BITMAP 
0000
0c00
0c00
0c00
0c00
0c00
0c00
0c00
0c00
0c00
0c00
0c00
ENDCHAR
STARTCHAR U+3128
ENCODING 12584
SWIDTH 1000 0
DWIDTH 12 0
BBX 12 12 0 -2
BITMAP 
0000
0180
0180
3300
1b00
0d00
0600
0600
0300
0180
e000
0000
ENDCHAR
STARTCHAR U+3129
ENCODING 12585
SWIDTH 1000 0
DWIDTH 12 0
BBX 12 12 0 -2
BITMAP 
0000
0000
00c0
60c0
60c0
60c0
60c0
c3c0
fec0
00c0
0000
0000
ENDCHAR
STARTCHAR U+3131
ENCODING 12593
SWIDTH 1000 0
DWIDTH 12 0
BBX 12 12 0 -2
BITMAP 
0000
0000
1fc0
00c0
00c0
00c0
00c0
00c0
0000
0000
0000
0000
ENDCHAR
STARTCHAR U+3132
ENCODING 12594
SWIDTH 1000 0
DWIDTH 12 0
BBX 12 12 0 -2
BITMAP 
0000
0000
3fe0
0660
0660
0660
0660
0660
0000
0000
0000
0000
ENDCHAR
STARTCHAR U+3133
ENCODING 12595
SWIDTH 1000 0
DWIDTH 12 0
BBX 12 12 0 -2
BITMAP 
0000
0000
3ec0
06c0
06c0
06a0
06a0
0730
0000
0000
0000
0000
ENDCHAR
STARTCHAR U+3134
ENCODING 12596
SWIDTH 1000 0
DWIDTH 12 0
BBX 12 12 0 -2
BITMAP 
0000
0000
1800
1800
1800
1800
1800
1fc0
0000
0000
0000
0000
ENDCHAR
STARTCHAR U+3135
ENCODING 12597
SWIDTH 1000 0
DWIDTH 12 0
BBX 12 12 0 -2
BITMAP 
0000
0000
37e0
3180
3180
3180
3340
3e60
0000
0000
0000
0000
ENDCHAR
STARTCHAR U+3136
ENCODING 12598
SWIDTH 1000 0
DWIDTH 12 0
BBX 12 12 0 -2
BITMAP 
0000
0000
63c0
6000
6ff0
6340
6660
7dc0
0000
0000
0000
0000
ENDCHAR
STARTCHAR U+3137
ENCODING 12599
SWIDTH 1000 0
DWIDTH 12 0
BBX 12 12 0 -2
BITMAP 
0000
0000
1fc0
1800
1800
1800
1800
1fc0
0000
0000
0000
0000
ENDCHAR
STARTCHAR U+3138
ENCODING 12600
SWIDTH 1000 0
DWIDTH 12 0
BBX 12 12 0 -2
BITMAP 
0000
0000
3fe0
3300
3300
3300
3300
3fe0
0000
0000
0000
0000
ENDCHAR
STARTCHAR U+3139
ENCODING 12601
SWIDTH 1000 0
DWIDTH 12 0
BBX 12 12 0 -2
BITMAP 
0000
0000
1fc0
00c0
1fc0
1800
1800
1fc0
0000
0000
0000
0000
ENDCHAR
STARTCHAR U+313A
ENCODING 12602
SWIDTH 1000 0
DWIDTH 12 0
BBX 12 12 0 -2
BITMAP 
0000
0000
3ff0
0330
3f30
3030
3030
3f30
0000
0000
0000
0000
ENDCHAR
STARTCHAR U+313B
ENCODING 12603
SWIDTH 1000 0
DWIDTH 12 0
BBX 12 12 0 -2
BITMAP 
0000
0000
3ef0
06b0
3eb0
31b0
31b0
3ff0
0000
0000
0000
0000
ENDCHAR
STARTCHAR U+313C
ENCODING 12604
SWIDTH 1000 0
DWIDTH 12 0
BBX 12 12 0 -2
BITMAP 
0000
0000
3eb0
06b0
3ef0
31b0
31b0
3ff0
0000
0000
0000
0000
ENDCHAR
STARTCHAR U+313D
ENCODING 12605
SWIDTH 1000 0
DWIDTH 12 0
BBX 12 12 0 -2
BITMAP 
0000
0000
3ec0
06c0
3ec0
31a0
31a0
3f30
0000
0000
0000
0000
ENDCHAR
STARTCHAR U+313E
ENCODING 12606
SWIDTH 1000 0
DWIDTH 12 0
BBX 12 12 0 -2
BITMAP 
0000
0000
3ef0
0680
3ef0
3180
3180
3ff0
0000
0000
0000
0000
ENDCHAR
STARTCHAR U+313F
ENCODING 12607
SWIDTH 1000 0
DWIDTH 12 0
BBX 12 12 0 -2
BITMAP 
0000
0000
3ff0
0600
3ea0
31a0
31a0
3ff0
0000
0000
0000
0000
ENDCHAR
STARTCHAR U+3140
ENCODING 12608
SWIDTH 1000 0
DWIDTH 12 0
BBX 12 12 0 -2
BITMAP 
0000
0000
7de0
0c00
7ff0
61a0
6330
7de0
0000
0000
0000
0000
ENDCHAR
STARTCHAR U+3141
ENCODING 12609
SWIDTH 1000 0
DWIDTH 12 0
BBX 12 12 0 -2
BITMAP 
0000
0000
1fc0
18c0
18c0
18c0
18c0
1fc0
0000
0000
0000
0000
ENDCHAR
STARTCHAR U+3142
ENCODING 12610
SWIDTH 1000 0
DWIDTH 12 0
BBX 12 12 0 -2
BITMAP 
0000
0000
18c0
18c0
1fc0
18c0
18c0
1fc0
0000
0000
0000
0000
ENDCHAR
STARTCHAR U+3143
ENCODING 12611
SWIDTH 1000 0
DWIDTH 12 0
BBX 12 12 0 -2
BITMAP 
0000
0000
36b0
36b0
3ef0
36b0
36b0
3ef0
0000
0000
0000
0000
ENDCHAR
STARTCHAR U+3144
ENCODING 12612
SWIDTH 1000 0
DWIDTH 12 0
BBX 12 12 0 -2
BITMAP 
0000
0000
36c0
36c0
3ec0
36a0
36a0
3f30
0000
0000
0000
0000
ENDCHAR
STARTCHAR U+3145
ENCODING 12613
SWIDTH 1000 0
DWIDTH 12 0
BBX 12 12 0 -2
BITMAP 
0000
0000
0300
0300
0300
0680
0cc0
1860
0000
0000
0000
0000
ENDCHAR
STARTCHAR U+3146
ENCODING 12614
SWIDTH 1000 0
DWIDTH 12 0
BBX 12 12 0 -2
BITMAP 
0000
0000
0cc0
0cc0
0cc0
1aa0
1aa0
3330
0000
0000
0000
0000
ENDCHAR
STARTCHAR U+3147
ENCODING 12615
SWIDTH 1000 0
DWIDTH 12 0
BBX 12 12 0 -2
BITMAP 
0000
0000
0f80
18c0
18c0
18c0
18c0
0f80
0000
0000
0000
0000
ENDCHAR
STARTCHAR U+3148
ENCODING 12616
SWIDTH 1000 0
DWIDTH 12 0
BBX 12 12 0 -2
BITMAP 
0000
0000
1fe0
0300
0300
0680
0cc0
1860
0000
0000
0000
0000
ENDCHAR
STARTCHAR U+3149
ENCODING 12617
SWIDTH 1000 0
DWIDTH 12 0
BBX 12 12 0 -2
BITMAP 
0000
0000
3ff0
0cc0
0cc0
1aa0
1aa0
3330
0000
0000
0000
0000
ENDCHAR
STARTCHAR U+314A
ENCODING 12618
SWIDTH 1000 0
DWIDTH 12 0
BBX 12 12 0 -2
BITMAP 
0000
0000
0780
0000
1fe0
0300
0680
1ce0
0000
0000
0000
0000
ENDCHAR
STARTCHAR U+314B
ENCODING 12619
SWIDTH 1000 0
DWIDTH 12 0
BBX 12 12 0 -2
BITMAP 
0000
0000
1fc0
00c0
00c0
1fc0
00c0
00c0
0000
0000
0000
0000
ENDCHAR
STARTCHAR U+314C
ENCODING 12620
SWIDTH 1000 0
DWIDTH 12 0
BBX 12 12 0 -2
BITMAP 
0000
0000
1fc0
1800
1fc0
1800
1800
1fc0
0000
0000
0000
0000
ENDCHAR
STARTCHAR U+314D
ENCODING 12621
SWIDTH 1000 0
DWIDTH 12 0
BBX 12 12 0 -2
BITMAP 
0000
0000
1fc0
0000
0d80
0d80
0d80
3fe0
0000
0000
0000
0000
ENDCHAR
STARTCHAR U+314E
ENCODING 12622
SWIDTH 1000 0
DWIDTH 12 0
BBX 12 12 0 -2
BITMAP 
0000
0780
0000
1fe0
0680
0cc0
0cc0
0780
0000
0000
0000
0000
ENDCHAR
STARTCHAR U+314F
ENCODING 12623
SWIDTH 1000 0
DWIDTH 12 0
BBX 12 12 0 -2
BITMAP 
0300
0300
0300
0300
0300
03e0
0300
0300
0300
0300
0300
0000
ENDCHAR
STARTCHAR U+3150
ENCODING 12624
SWIDTH 1000 0
DWIDTH 12 0
BBX 12 12 0 -2
BITMAP 
0180
0d80
0d80
0d80
0d80
0f80
0d80
0d80
0d80
0d80
0180
0000
ENDCHAR
STARTCHAR U+3151
ENCODING 12625
SWIDTH 1000 0
DWIDTH 12 0
BBX 12 12 0 -2
BITMAP 
0300
0300
0300
03e0
0300
0300
03e0
0300
0300
0300
0300
0000
ENDCHAR
STARTCHAR U+3152
ENCODING 12626
SWIDTH 1000 0
DWIDTH 12 0
BBX 12 12 0 -2
BITMAP 
0180
0d80
0d80
0f80
0d80
0d80
0f80
0d80
0d80
0d80
0180
0000
ENDCHAR
STARTCHAR U+3153
ENCODING 12627
SWIDTH 1000 0
DWIDTH 12 0
BBX 12 12 0 -2
BITMAP 
0180
0180
0180
0180
0180
0f80
0180
0180
0180
0180
0180
0000
ENDCHAR
STARTCHAR U+3154
ENCODING 12628
SWIDTH 1000 0
DWIDTH 12 0
BBX 12 12 0 -2
BITMAP 
00c0
06c0
06c0
06c0
06c0
1ec0
06c0
06c0
06c0
06c0
00c0
0000
ENDCHAR
STARTCHAR U+3155
ENCODING 12629
SWIDTH 1000 0
DWIDTH 12 0
BBX 12 12 0 -2
BITMAP 
0300
0300
0300
0f00
0300
0300
0f00
0300
0300
0300
0300
0000
ENDCHAR
STARTCHAR U+3156
ENCODING 12630
SWIDTH 1000 0
DWIDTH 12 0
BBX 12 12 0 -2
BITMAP 
06c0
06c0
06c0
1ec0
06c0
06c0
1ec0
06c0
06c0
06c0
06c0
0000
ENDCHAR
STARTCHAR U+3157
ENCODING 12631
SWIDTH 1000 0
DWIDTH 12 0
BBX 12 12 0 -2
BITMAP 
0000
0000
0000
0000
0300
0300
0300
7ff0
0000
0000
0000
0000
ENDCHAR
STARTCHAR U+3158
ENCODING 12632
SWIDTH 1000 0
DWIDTH 12 0
BBX 12 12 0 -2
BITMAP 
0060
0060
0060
0060
0c60
0c60
0c70
0c60
7fa0
0060
0060
0000
ENDCHAR
STARTCHAR U+3159
ENCODING 12633
SWIDTH 1000 0
DWIDTH 12 0
BBX 12 12 0 -2
BITMAP 
0030
01b0
01b0
01b0
19b0
19f0
19b0
19b0
7eb0
01b0
0030
0000
ENDCHAR
STARTCHAR U+315A
ENCODING 12634
SWIDTH 1000 0
DWIDTH 12 0
BBX 12 12 0 -2
BITMAP 
0060
0060
0060
0060
0c60
0c60
0c60
0c60
7fa0
0060
0060
0000
ENDCHAR
STARTCHAR U+315B
ENCODING 12635
SWIDTH 1000 0
DWIDTH 12 0
BBX 12 12 0 -2
BITMAP 
0000
0000
0000
0000
0d80
0d80
0d80
7ff0
0000
0000
0000
0000
ENDCHAR
STARTCHAR U+315C
ENCODING 12636
SWIDTH 1000 0
DWIDTH 12 0
BBX 12 12 0 -2
BITMAP 
0000
0000
0000
0000
7ff0
0300
0300
0300
0300
0300
0000
0000
ENDCHAR
STARTCHAR U+315D
ENCODING 12637
SWIDTH 1000 0
DWIDTH 12 0
BBX 12 12 0 -2
BITMAP 
0060
0060
0060
0060
0060
7fa0
0c60
0de0
0c60
0c60
0060
0000
ENDCHAR
STARTCHAR U+315E
ENCODING 12638
SWIDTH 1000 0
DWIDTH 12 0
BBX 12 12 0 -2
BITMAP 
0030
01b0
01b0
01b0
01b0
7eb0
19b0
1bb0
19b0
01b0
0030
0000
ENDCHAR
STARTCHAR U+315F
ENCODING 12639
SWIDTH 1000 0
DWIDTH 12 0
BBX 12 12 0 -2
BITMAP 
0060
0060
0060
0060
0060
7fa0
0c60
0c60
0c60
0c60
0060
0000
ENDCHAR
STARTCHAR U+3160
ENCODING 12640
SWIDTH 1000 0
DWIDTH 12 0
BBX 12 12 0 -2
BITMAP 
0000
0000
0000
0000
7ff0
18c0
18c0
18c0
18c0
18c0
0000
0000
ENDCHAR
STARTCHAR U+3161
ENCODING 12641
SWIDTH 1000 0
DWIDTH 12 0
BBX 12 12 0 -2
BITMAP 
0000
0000
0000
0000
7ff0
0000
0000
0000
0000
0000
0000
0000
ENDCHAR
STARTCHAR U+3162
ENCODING 12642
SWIDTH 1000 0
DWIDTH 12 0
BBX 12 12 0 -2
BITMAP 
0060
0060
0060
0060
0060
0060
0060
7fa0
0060
0060
0060
0000
ENDCHAR
STARTCHAR U+3163
ENCODING 12643
SWIDTH 1000 0
DWIDTH 12 0
BBX 12 12 0 -2
BITMAP 
0300
0300
0300
0300
0300
0300
0300
0300
0300
0300
0300
0000
ENDCHAR
STARTCHAR U+3164
ENCODING 12644
SWIDTH 1000 0
DWIDTH 12 0
BBX 12 12 0 -2
BITMAP 
0000
0000
0000
0000
0000
0000
0000
0000
0000
0000
0000
0000
ENDCHAR
STARTCHAR U+3165
ENCODING 12645
SWIDTH 1000 0
DWIDTH 12 0
BBX 12 12 0 -2
BITMAP 
0000
0000
3300
3300
3300
3300
3300
3fe0
0000
0000
0000
0000
ENDCHAR
STARTCHAR U+3166
ENCODING 12646
SWIDTH 1000 0
DWIDTH 12 0
BBX 12 12 0 -2
BITMAP 
0000
0000
33e0
3300
3300
3300
3300
3fe0
0000
0000
0000
0000
ENDCHAR
STARTCHAR U+3167
ENCODING 12647
SWIDTH 1000 0
DWIDTH 12 0
BBX 12 12 0 -2
BITMAP 
0000
0000
30c0
30c0
30c0
31a0
31a0
3f30
0000
0000
0000
0000
ENDCHAR
STARTCHAR U+3168
ENCODING 12648
SWIDTH 1000 0
DWIDTH 12 0
BBX 12 12 0 -2
BITMAP 
0000
0000
30c0
30c0
31a0
31a0
3330
3ff0
0000
0000
0000
0000
ENDCHAR
STARTCHAR U+3169
ENCODING 12649
SWIDTH 1000 0
DWIDTH 12 0
BBX 12 12 0 -2
BITMAP 
0000
0000
7f60
1b60
7b60
6350
6350
7b50
0000
0000
0000
0000
ENDCHAR
STARTCHAR U+316A
ENCODING 12650
SWIDTH 1000 0
DWIDTH 12 0
BBX 12 12 0 -2
BITMAP 
0000
0000
3ef0
0680
3e80
3180
3180
3ef0
0000
0000
0000
0000
ENDCHAR
STARTCHAR U+316B
ENCODING 12651
SWIDTH 1000 0
DWIDTH 12 0
BBX 12 12 0 -2
BITMAP 
0000
0000
7ab0
1ab0
7bb0
66b0
66a0
7ba0
0000
0000
0000
0000
ENDCHAR
STARTCHAR U+316C
ENCODING 12652
SWIDTH 1000 0
DWIDTH 12 0
BBX 12 12 0 -2
BITMAP 
0000
0000
3ec0
06c0
3ea0
31a0
3330
3ff0
0000
0000
0000
0000
ENDCHAR
STARTCHAR U+316D
ENCODING 12653
SWIDTH 1000 0
DWIDTH 12 0
BBX 12 12 0 -2
BITMAP 
0000
0000
3ef0
0600
3ee0
31b0
31b0
3ee0
0000
0000
0000
0000
ENDCHAR
STARTCHAR U+316E
ENCODING 12654
SWIDTH 1000 0
DWIDTH 12 0
BBX 12 12 0 -2
BITMAP 
0000
0000
3eb0
36b0
36f0
36b0
36b0
3ef0
0000
0000
0000
0000
ENDCHAR
STARTCHAR U+316F
ENCODING 12655
SWIDTH 1000 0
DWIDTH 12 0
BBX 12 12 0 -2
BITMAP 
0000
0000
3ec0
36c0
36c0
36a0
36a0
3f30
0000
0000
0000
0000
ENDCHAR
STARTCHAR U+3170
ENCODING 12656
SWIDTH 1000 0
DWIDTH 12 0
BBX 12 12 0 -2
BITMAP 
0000
0000
3ec0
36c0
36a0
36a0
3730
3ff0
0000
0000
0000
0000
ENDCHAR
STARTCHAR U+3171
ENCODING 12657
SWIDTH 1000 0
DWIDTH 12 0
BBX 12 12 0 -2
BITMAP 
1fc0
18c0
18c0
1fc0
0600
0f80
18c0
18c0
0f80
0000
0000
0000
ENDCHAR
STARTCHAR U+3172
ENCODING 12658
SWIDTH 1000 0
DWIDTH 12 0
BBX 12 12 0 -2
BITMAP 
0000
0000
36f0
3630
3e30
3630
3630
3e30
0000
0000
0000
0000
ENDCHAR
STARTCHAR U+3173
ENCODING 12659
SWIDTH 1000 0
DWIDTH 12 0
BBX 12 12 0 -2
BITMAP 
0000
0000
36f0
3680
3e80
3680
3680
3ef0
0000
0000
0000
0000
ENDCHAR
STARTCHAR U+3174
ENCODING 12660
SWIDTH 1000 0
DWIDTH 12 0
BBX 12 12 0 -2
BITMAP 
0000
0000
6b70
6b30
7b30
6ab0
6ab0
7cd0
0000
0000
0000
0000
ENDCHAR
STARTCHAR U+3175
ENCODING 12661
SWIDTH 1000 0
DWIDTH 12 0
BBX 12 12 0 -2
BITMAP 
0000
0000
6b70
6b60
7b60
6aa0
6aa0
7cf0
0000
0000
0000
0000
ENDCHAR
STARTCHAR U+3176
ENCODING 12662
SWIDTH 1000 0
DWIDTH 12 0
BBX 12 12 0 -2
BITMAP 
0000
0000
37f0
36c0
3ec0
36a0
36a0
3f30
0000
0000
0000
0000
ENDCHAR
STARTCHAR U+3177
ENCODING 12663
SWIDTH 1000 0
DWIDTH 12 0
BBX 12 12 0 -2
BITMAP 
0000
0000
36f0
3680
3ef0
3680
3680
3ef0
0000
0000
0000
0000
ENDCHAR
STARTCHAR U+3178
ENCODING 12664
SWIDTH 1000 0
DWIDTH 12 0
BBX 12 12 0 -2
BITMAP 
0cc0
0fc0
0cc0
0fc0
0300
0780
0cc0
0cc0
0780
0000
0000
0000
ENDCHAR
STARTCHAR U+3179
ENCODING 12665
SWIDTH 1000 0
DWIDTH 12 0
BBX 12 12 0 -2
BITMAP 
1aa0
1ee0
1aa0
1ee0
0300
0780
0cc0
0cc0
0780
0000
0000
0000
ENDCHAR
STARTCHAR U+317A
ENCODING 12666
SWIDTH 1000 0
DWIDTH 12 0
BBX 12 12 0 -2
BITMAP 
0000
0000
0de0
0c60
0c60
1a60
1a60
3360
0000
0000
0000
0000
ENDCHAR
STARTCHAR U+317B
ENCODING 12667
SWIDTH 1000 0
DWIDTH 12 0
BBX 12 12 0 -2
BITMAP 
0000
0000
0d80
0d80
0d80
1a80
1a80
33f0
0000
0000
0000
0000
ENDCHAR
STARTCHAR U+317C
ENCODING 12668
SWIDTH 1000 0
DWIDTH 12 0
BBX 12 12 0 -2
BITMAP 
0000
0000
0df0
0d80
0d80
1a80
1a80
33f0
0000
0000
0000
0000
ENDCHAR
STARTCHAR U+317D
ENCODING 12669
SWIDTH 1000 0
DWIDTH 12 0
BBX 12 12 0 -2
BITMAP 
0000
0000
0db0
0db0
0df0
1ab0
1ab0
33f0
0000
0000
0000
0000
ENDCHAR
STARTCHAR U+317E
ENCODING 12670
SWIDTH 1000 0
DWIDTH 12 0
BBX 12 12 0 -2
BITMAP 
0000
0000
33f0
30c0
30c0
31a0
31a0
3f30
0000
0000
0000
0000
ENDCHAR
STARTCHAR U+317F
ENCODING 12671
SWIDTH 1000 0
DWIDTH 12 0
BBX 12 12 0 -2
BITMAP 
0000
0000
0300
0300
0680
0cc0
1860
1fe0
0000
0000
0000
0000
ENDCHAR
STARTCHAR U+3180
ENCODING 12672
SWIDTH 1000 0
DWIDTH 12 0
BBX 12 12 0 -2
BITMAP 
0000
0000
18c0
1ce0
36b0
36b0
36b0
1ce0
0000
0000
0000
0000
ENDCHAR
STARTCHAR U+3181
ENCODING 12673
SWIDTH 1000 0
DWIDTH 12 0
BBX 12 12 0 -2
BITMAP 
0000
0000
0300
0fc0
1860
1860
1860
0fc0
0000
0000
0000
0000
ENDCHAR
STARTCHAR U+3182
ENCODING 12674
SWIDTH 1000 0
DWIDTH 12 0
BBX 12 12 0 -2
BITMAP 
0000
0000
18c0
3cc0
66c0
66a0
66a0
3d30
0000
0000
0000
0000
ENDCHAR
STARTCHAR U+3183
ENCODING 12675
SWIDTH 1000 0
DWIDTH 12 0
BBX 12 12 0 -2
BITMAP 
0000
0000
30c0
38c0
6da0
6da0
6d30
3bf0
0000
0000
0000
0000
ENDCHAR
STARTCHAR U+3184
ENCODING 12676
SWIDTH 1000 0
DWIDTH 12 0
BBX 12 12 0 -2
BITMAP 
1fc0
0d80
0d80
3fe0
0600
0f80
18c0
18c0
0f80
0000
0000
0000
ENDCHAR
STARTCHAR U+3185
ENCODING 12677
SWIDTH 1000 0
DWIDTH 12 0
BBX 12 12 0 -2
BITMAP 
0000
1ce0
0000
7ff0
1ce0
36b0
36b0
1ce0
0000
0000
0000
0000
ENDCHAR
STARTCHAR U+3186
ENCODING 12678
SWIDTH 1000 0
DWIDTH 12 0
BBX 12 12 0 -2
BITMAP 
0000
0000
1fe0
0000
0780
0cc0
0cc0
0780
0000
0000
0000
0000
ENDCHAR
STARTCHAR U+3187
ENCODING 12679
SWIDTH 1000 0
DWIDTH 12 0
BBX 12 12 0 -2
BITMAP 
0060
0060
0060
0060
1b60
1b70
1b60
7ff0
0060
0060
0060
0000
ENDCHAR
STARTCHAR U+3188
ENCODING 12680
SWIDTH 1000 0
DWIDTH 12 0
BBX 12 12 0 -2
BITMAP 
0030
01b0
01b0
01b0
35f0
35b0
35b0
7ff0
01b0
01b0
0030
0000
ENDCHAR
STARTCHAR U+3189
ENCODING 12681
SWIDTH 1000 0
DWIDTH 12 0
BBX 12 12 0 -2
BITMAP 
0060
0060
0060
0060
1b60
1b60
1b60
7fe0
0060
0060
0060
0000
ENDCHAR
STARTCHAR U+318A
ENCODING 12682
SWIDTH 1000 0
DWIDTH 12 0
BBX 12 12 0 -2
BITMAP 
0060
0060
0060
0060
7fa0
1a60
1ae0
1a60
1ae0
1a60
0060
0000
ENDCHAR
STARTCHAR U+318B
ENCODING 12683
SWIDTH 1000 0
DWIDTH 12 0
BBX 12 12 0 -2
BITMAP 
00d0
00d0
00d0
00d0
7f50
34d0
35d0
34d0
35d0
34d0
00d0
0000
ENDCHAR
STARTCHAR U+318C
ENCODING 12684
SWIDTH 1000 0
DWIDTH 12 0
BBX 12 12 0 -2
BITMAP 
0060
0060
0060
0060
7fe0
1b60
1b60
1b60
1b60
1b60
0060
0000
ENDCHAR
STARTCHAR U+318D
ENCODING 12685
SWIDTH 1000 0
DWIDTH 12 0
BBX 12 12 0 -2
BITMAP 
0000
0000
0000
0000
0300
0300
0000
0000
0000
0000
0000
0000
ENDCHAR
STARTCHAR U+318E
ENCODING 12686
SWIDTH 1000 0
DWIDTH 12 0
BBX 12 12 0 -2
BITMAP 
0060
0060
0060
0060
0060
0c60
0c60
0060
0060
0060
0060
0000
ENDCHAR
STARTCHAR U+3200
ENCODING 12800
SWIDTH 1000 0
DWIDTH 12 0
BBX 12 12 0 -2
BITMAP 
1860
3030
3030
6fc0
60c0
60c0
60c0
60c0
3030
3030
1860
0000
ENDCHAR
STARTCHAR U+3201
ENCODING 12801
SWIDTH 1000 0
DWIDTH 12 0
BBX 12 12 0 -2
BITMAP 
1860
3030
3030
6c00
6c00
6c00
6c00
6fc0
3030
3030
1860
0000
ENDCHAR
STARTCHAR U+3202
ENCODING 12802
SWIDTH 1000 0
DWIDTH 12 0
BBX 12 12 0 -2
BITMAP 
1860
3030
3030
6fc0
6c00
6c00
6c00
6fc0
3030
3030
1860
0000
ENDCHAR
STARTCHAR U+3203
ENCODING 12803
SWIDTH 1000 0
DWIDTH 12 0
BBX 12 12 0 -2
BITMAP 
1860
3030
3030
6fc0
60c0
6fc0
6c00
6fc0
3030
3030
1860
0000
ENDCHAR
STARTCHAR U+3204
ENCODING 12804
SWIDTH 1000 0
DWIDTH 12 0
BBX 12 12 0 -2
BITMAP 
1860
3030
3030
6fc0
6cc0
6cc0
6cc0
6fc0
3030
3030
1860
0000
ENDCHAR
STARTCHAR U+3205
ENCODING 12805
SWIDTH 1000 0
DWIDTH 12 0
BBX 12 12 0 -2
BITMAP 
1860
3030
3030
6cc0
6cc0
6fc0
6cc0
6fc0
3030
3030
1860
0000
ENDCHAR
STARTCHAR U+3206
ENCODING 12806
SWIDTH 1000 0
DWIDTH 12 0
BBX 12 12 0 -2
BITMAP 
1860
3030
3030
6300
6300
6300
6680
6cc0
3030
3030
1860
0000
ENDCHAR
STARTCHAR U+3207
ENCODING 12807
SWIDTH 1000 0
DWIDTH 12 0
BBX 12 12 0 -2
BITMAP 
1860
3030
3030
6780
6cc0
6cc0
6cc0
6780
3030
3030
1860
0000
ENDCHAR
STARTCHAR U+3208
ENCODING 12808
SWIDTH 1000 0
DWIDTH 12 0
BBX 12 12 0 -2
BITMAP 
1860
3030
3030
6fc0
6300
6300
6680
6cc0
3030
3030
1860
0000
ENDCHAR
STARTCHAR U+3209
ENCODING 12809
SWIDTH 1000 0
DWIDTH 12 0
BBX 12 12 0 -2
BITMAP 
1860
3030
37b0
6000
6fc0
6300
6680
6cc0
3030
3030
1860
0000
ENDCHAR
STARTCHAR U+320A
ENCODING 12810
SWIDTH 1000 0
DWIDTH 12 0
BBX 12 12 0 -2
BITMAP 
1860
3030
3030
6fc0
60c0
6fc0
60c0
60c0
3030
3030
1860
0000
ENDCHAR
STARTCHAR U+320B
ENCODING 12811
SWIDTH 1000 0
DWIDTH 12 0
BBX 12 12 0 -2
BITMAP 
1860
3030
3030
6fc0
6c00
6fc0
6c00
6fc0
3030
3030
1860
0000
ENDCHAR
STARTCHAR U+320C
ENCODING 12812
SWIDTH 1000 0
DWIDTH 12 0
BBX 12 12 0 -2
BITMAP 
1860
3030
3030
6fc0
6680
6680
6680
6fc0
3030
3030
1860
0000
ENDCHAR
STARTCHAR U+320D
ENCODING 12813
SWIDTH 1000 0
DWIDTH 12 0
BBX 12 12 0 -2
BITMAP 
1860
3030
37b0
6000
6fe0
6680
6cc0
6cc0
37b0
3030
1860
0000
ENDCHAR
STARTCHAR U+320E
ENCODING 12814
SWIDTH 1000 0
DWIDTH 12 0
BBX 12 12 0 -2
BITMAP 
1860
3030
3750
6340
6340
6360
66c0
6cc0
30d0
3030
1860
0000
ENDCHAR
STARTCHAR U+320F
ENCODING 12815
SWIDTH 1000 0
DWIDTH 12 0
BBX 12 12 0 -2
BITMAP 
1860
3030
34d0
6cc0
6cc0
6ce0
6cc0
6f40
30d0
3030
1860
0000
ENDCHAR
STARTCHAR U+3210
ENCODING 12816
SWIDTH 1000 0
DWIDTH 12 0
BBX 12 12 0 -2
BITMAP 
1860
3030
3750
6cc0
6cc0
6ce0
6cc0
6f40
30d0
3030
1860
0000
ENDCHAR
STARTCHAR U+3211
ENCODING 12817
SWIDTH 1000 0
DWIDTH 12 0
BBX 12 12 0 -2
BITMAP 
1860
3030
3f50
6340
6f40
68e0
68c0
6f40
30d0
3030
1860
0000
ENDCHAR
STARTCHAR U+3212
ENCODING 12818
SWIDTH 1000 0
DWIDTH 12 0
BBX 12 12 0 -2
BITMAP 
1860
3030
3750
6d40
6d40
6d60
6d40
6f40
30d0
3030
1860
0000
ENDCHAR
STARTCHAR U+3213
ENCODING 12819
SWIDTH 1000 0
DWIDTH 12 0
BBX 12 12 0 -2
BITMAP 
1860
3030
3550
6d40
6f40
6d60
6d40
6f40
30d0
3030
1860
0000
ENDCHAR
STARTCHAR U+3214
ENCODING 12820
SWIDTH 1000 0
DWIDTH 12 0
BBX 12 12 0 -2
BITMAP 
1860
3030
36d0
66c0
66c0
66e0
6d40
69c0
30d0
3030
1860
0000
ENDCHAR
STARTCHAR U+3215
ENCODING 12821
SWIDTH 1000 0
DWIDTH 12 0
BBX 12 12 0 -2
BITMAP 
1860
3030
36d0
6d40
6d40
6d60
6d40
66c0
30d0
3030
1860
0000
ENDCHAR
STARTCHAR U+3216
ENCODING 12822
SWIDTH 1000 0
DWIDTH 12 0
BBX 12 12 0 -2
BITMAP 
1860
3030
3750
66c0
66c0
6d60
6d40
69c0
30d0
3030
1860
0000
ENDCHAR
STARTCHAR U+3217
ENCODING 12823
SWIDTH 1000 0
DWIDTH 12 0
BBX 12 12 0 -2
BITMAP 
1860
3030
36d0
60c0
6f40
66e0
6ec0
6b40
30d0
3030
1860
0000
ENDCHAR
STARTCHAR U+3218
ENCODING 12824
SWIDTH 1000 0
DWIDTH 12 0
BBX 12 12 0 -2
BITMAP 
1860
3030
3750
6340
6f40
6360
66c0
6cc0
30d0
3030
1860
0000
ENDCHAR
STARTCHAR U+3219
ENCODING 12825
SWIDTH 1000 0
DWIDTH 12 0
BBX 12 12 0 -2
BITMAP 
1860
3030
3f50
68c0
6f40
68e0
68c0
6f40
30d0
3030
1860
0000
ENDCHAR
STARTCHAR U+321A
ENCODING 12826
SWIDTH 1000 0
DWIDTH 12 0
BBX 12 12 0 -2
BITMAP 
1860
3030
3f50
60c0
6d40
6d60
6d40
6fc0
30d0
3030
1860
0000
ENDCHAR
STARTCHAR U+321B
ENCODING 12827
SWIDTH 1000 0
DWIDTH 12 0
BBX 12 12 0 -2
BITMAP 
1860
3030
36d0
60c0
6f40
6ee0
6b40
6ec0
30d0
3030
1860
0000
ENDCHAR
STARTCHAR U+321C
ENCODING 12828
SWIDTH 1000 0
DWIDTH 12 0
BBX 12 12 0 -2
BITMAP 
1860
3030
37d0
6300
6ec0
6000
6fe0
6300
3330
3330
1860
0000
ENDCHAR
STARTCHAR U+3220
ENCODING 12832
SWIDTH 1000 0
DWIDTH 12 0
BBX 12 12 0 -2
BITMAP 
0000
c0c0
8060
8060
8060
bfe0
8060
8060
8060
8060
c0c0
0000
ENDCHAR
STARTCHAR U+3221
ENCODING 12833
SWIDTH 1000 0
DWIDTH 12 0
BBX 12 12 0 -2
BITMAP 
0000
c0c0
8060
bfa0
8060
8060
8060
bfa0
8060
8060
c0c0
0000
ENDCHAR
STARTCHAR U+3222
ENCODING 12834
SWIDTH 1000 0
DWIDTH 12 0
BBX 12 12 0 -2
BITMAP 
0000
c0c0
bfa0
8060
8060
bf60
8060
8060
bfe0
8060
c0c0
0000
ENDCHAR
STARTCHAR U+3223
ENCODING 12835
SWIDTH 1000 0
DWIDTH 12 0
BBX 12 12 0 -2
BITMAP 
0000
c0c0
8060
ffe0
db60
db60
db60
ffe0
8060
8060
c0c0
0000
ENDCHAR
STARTCHAR U+3224
ENCODING 12836
SWIDTH 1000 0
DWIDTH 12 0
BBX 12 12 0 -2
BITMAP 
0000
c0c0
bfa0
9860
9860
bfa0
9b60
9b60
9b60
ffe0
c0c0
0000
ENDCHAR
STARTCHAR U+3225
ENCODING 12837
SWIDTH 1000 0
DWIDTH 12 0
BBX 12 12 0 -2
BITMAP 
0000
c0c0
8060
8c60
bfa0
8060
8060
9b60
b1a0
a1a0
c0c0
0000
ENDCHAR
STARTCHAR U+3226
ENCODING 12838
SWIDTH 1000 0
DWIDTH 12 0
BBX 12 12 0 -2
BITMAP 
0000
c0c0
9860
9860
9ba0
9e60
b860
9860
9860
8360
c740
0000
ENDCHAR
STARTCHAR U+3227
ENCODING 12839
SWIDTH 1000 0
DWIDTH 12 0
BBX 12 12 0 -2
BITMAP 
0000
c0c0
8660
9a60
9a60
9a60
b360
81a0
81a0
8060
c0c0
0000
ENDCHAR
STARTCHAR U+3228
ENCODING 12840
SWIDTH 1000 0
DWIDTH 12 0
BBX 12 12 0 -2
BITMAP 
0000
c0c0
9860
9b60
bf60
9b60
9b60
9b60
b360
a1e0
c0c0
0000
ENDCHAR
STARTCHAR U+3229
ENCODING 12841
SWIDTH 1000 0
DWIDTH 12 0
BBX 12 12 0 -2
BITMAP 
0000
c0c0
8c60
8c60
bfa0
8c60
8c60
8c60
8c60
8c60
c0c0
0000
ENDCHAR
STARTCHAR U+3231
ENCODING 12849
SWIDTH 1000 0
DWIDTH 12 0
BBX 12 12 0 -2
BITMAP 
0000
6060
db30
fff0
dbb0
deb0
dff0
ebb0
ebd0
dab0
ddb0
69a0
ENDCHAR
STARTCHAR U+3232
ENCODING 12850
SWIDTH 1000 0
DWIDTH 12 0
BBX 12 12 0 -2
BITMAP 
0000
6c60
cc30
fff0
cc30
dfd0
d8d0
dfd0
e8d0
dfd0
d8d0
71e0
ENDCHAR
STARTCHAR U+3239
ENCODING 12857
SWIDTH 1000 0
DWIDTH 12 0
BBX 12 12 0 -2
BITMAP 
0000
6360
dbb0
db50
d7f0
d330
f330
d1b0
d1b0
d1b0
d0d0
7060
ENDCHAR
STARTCHAR U+3260
ENCODING 12896
SWIDTH 1000 0
DWIDTH 12 0
BBX 12 12 0 -2
BITMAP 
0fc0
1860
3030
6fc0
60c0
60c0
60c0
60c0
3030
1860
0fc0
0000
ENDCHAR
STARTCHAR U+3261
ENCODING 12897
SWIDTH 1000 0
DWIDTH 12 0
BBX 12 12 0 -2
BITMAP 
0fc0
1860
3030
6c00
6c00
6c00
6c00
6fc0
3030
1860
0fc0
0000
ENDCHAR
STARTCHAR U+3262
ENCODING 12898
SWIDTH 1000 0
DWIDTH 12 0
BBX 12 12 0 -2
BITMAP 
0fc0
1860
3030
6fc0
6c00
6c00
6c00
6fc0
3030
1860
0fc0
0000
ENDCHAR
STARTCHAR U+3263
ENCODING 12899
SWIDTH 1000 0
DWIDTH 12 0
BBX 12 12 0 -2
BITMAP 
0fc0
1860
3030
6fc0
60c0
6fc0
6c00
6fc0
3030
1860
0fc0
0000
ENDCHAR
STARTCHAR U+3264
ENCODING 12900
SWIDTH 1000 0
DWIDTH 12 0
BBX 12 12 0 -2
BITMAP 
0fc0
1860
3030
6fc0
6cc0
6cc0
6cc0
6fc0
3030
1860
0fc0
0000
ENDCHAR
STARTCHAR U+3265
ENCODING 12901
SWIDTH 1000 0
DWIDTH 12 0
BBX 12 12 0 -2
BITMAP 
0fc0
1860
3030
6cc0
6cc0
6fc0
6cc0
6fc0
3030
1860
0fc0
0000
ENDCHAR
STARTCHAR U+3266
ENCODING 12902
SWIDTH 1000 0
DWIDTH 12 0
BBX 12 12 0 -2
BITMAP 
0fc0
1860
3030
6300
6300
6300
6680
6cc0
3030
1860
0fc0
0000
ENDCHAR
STARTCHAR U+3267
ENCODING 12903
SWIDTH 1000 0
DWIDTH 12 0
BBX 12 12 0 -2
BITMAP 
0fc0
1860
3030
6780
6cc0
6cc0
6cc0
6780
3030
1860
0fc0
0000
ENDCHAR
STARTCHAR U+3268
ENCODING 12904
SWIDTH 1000 0
DWIDTH 12 0
BBX 12 12 0 -2
BITMAP 
0fc0
1860
3030
6fc0
6300
6300
6680
6cc0
3030
1860
0fc0
0000
ENDCHAR
STARTCHAR U+3269
ENCODING 12905
SWIDTH 1000 0
DWIDTH 12 0
BBX 12 12 0 -2
BITMAP 
0fc0
1860
37b0
6000
6fc0
6300
6680
6cc0
3030
1860
0fc0
0000
ENDCHAR
STARTCHAR U+326A
ENCODING 12906
SWIDTH 1000 0
DWIDTH 12 0
BBX 12 12 0 -2
BITMAP 
0fc0
1860
3030
6fc0
60c0
6fc0
60c0
60c0
3030
1860
0fc0
0000
ENDCHAR
STARTCHAR U+326B
ENCODING 12907
SWIDTH 1000 0
DWIDTH 12 0
BBX 12 12 0 -2
BITMAP 
0fc0
1860
3030
6fc0
6c00
6fc0
6c00
6fc0
3030
1860
0fc0
0000
ENDCHAR
STARTCHAR U+326C
ENCODING 12908
SWIDTH 1000 0
DWIDTH 12 0
BBX 12 12 0 -2
BITMAP 
0fc0
1860
3030
6fc0
6680
6680
6680
6fc0
3030
1860
0fc0
0000
ENDCHAR
STARTCHAR U+326D
ENCODING 12909
SWIDTH 1000 0
DWIDTH 12 0
BBX 12 12 0 -2
BITMAP 
0fc0
1860
37b0
6000
6fe0
6680
6cc0
6cc0
37b0
1860
0fc0
0000
ENDCHAR
STARTCHAR U+326E
ENCODING 12910
SWIDTH 1000 0
DWIDTH 12 0
BBX 12 12 0 -2
BITMAP 
0fc0
1860
3750
6340
6340
6360
66c0
6cc0
30d0
1860
0fc0
0000
ENDCHAR
STARTCHAR U+326F
ENCODING 12911
SWIDTH 1000 0
DWIDTH 12 0
BBX 12 12 0 -2
BITMAP 
0fc0
1860
34d0
6cc0
6cc0
6ce0
6cc0
6f40
30d0
1860
0fc0
0000
ENDCHAR
STARTCHAR U+3270
ENCODING 12912
SWIDTH 1000 0
DWIDTH 12 0
BBX 12 12 0 -2
BITMAP 
0fc0
1860
3750
6cc0
6cc0
6ce0
6cc0
6f40
30d0
1860
0fc0
0000
ENDCHAR
STARTCHAR U+3271
ENCODING 12913
SWIDTH 1000 0
DWIDTH 12 0
BBX 12 12 0 -2
BITMAP 
0fc0
1860
3750
6340
6f40
6ce0
6cc0
6f40
30d0
1860
0fc0
0000
ENDCHAR
STARTCHAR U+3272
ENCODING 12914
SWIDTH 1000 0
DWIDTH 12 0
BBX 12 12 0 -2
BITMAP 
0fc0
1860
3750
6d40
6d40
6d60
6d40
6f40
30d0
1860
0fc0
0000
ENDCHAR
STARTCHAR U+3273
ENCODING 12915
SWIDTH 1000 0
DWIDTH 12 0
BBX 12 12 0 -2
BITMAP 
0fc0
1860
3550
6d40
6f40
6d60
6d40
6f40
30d0
1860
0fc0
0000
ENDCHAR
STARTCHAR U+3274
ENCODING 12916
SWIDTH 1000 0
DWIDTH 12 0
BBX 12 12 0 -2
BITMAP 
0fc0
1860
36d0
66c0
66c0
66e0
6d40
69c0
30d0
1860
0fc0
0000
ENDCHAR
STARTCHAR U+3275
ENCODING 12917
SWIDTH 1000 0
DWIDTH 12 0
BBX 12 12 0 -2
BITMAP 
0fc0
1860
36d0
6d40
6d40
6d60
6d40
66c0
30d0
1860
0fc0
0000
ENDCHAR
STARTCHAR U+3276
ENCODING 12918
SWIDTH 1000 0
DWIDTH 12 0
BBX 12 12 0 -2
BITMAP 
0fc0
1860
3750
66c0
66c0
6d60
6d40
69c0
30d0
1860
0fc0
0000
ENDCHAR
STARTCHAR U+3277
ENCODING 12919
SWIDTH 1000 0
DWIDTH 12 0
BBX 12 12 0 -2
BITMAP 
0fc0
1860
36d0
60c0
6f40
66e0
6ec0
6b40
30d0
1860
0fc0
0000
ENDCHAR
STARTCHAR U+3278
ENCODING 12920
SWIDTH 1000 0
DWIDTH 12 0
BBX 12 12 0 -2
BITMAP 
0fc0
1860
3750
6340
6f40
6360
66c0
6cc0
30d0
1860
0fc0
0000
ENDCHAR
STARTCHAR U+3279
ENCODING 12921
SWIDTH 1000 0
DWIDTH 12 0
BBX 12 12 0 -2
BITMAP 
0fc0
1860
3750
6cc0
6f40
6ce0
6cc0
6f40
30d0
1860
0fc0
0000
ENDCHAR
STARTCHAR U+327A
ENCODING 12922
SWIDTH 1000 0
DWIDTH 12 0
BBX 12 12 0 -2
BITMAP 
0fc0
1860
3f50
60c0
6d40
6d60
6d40
6fc0
30d0
1860
0fc0
0000
ENDCHAR
STARTCHAR U+327B
ENCODING 12923
SWIDTH 1000 0
DWIDTH 12 0
BBX 12 12 0 -2
BITMAP 
0fc0
1860
36d0
60c0
6f40
6ee0
6b40
6ec0
30d0
1860
0fc0
0000
ENDCHAR
STARTCHAR U+327F
ENCODING 12927
SWIDTH 1000 0
DWIDTH 12 0
BBX 12 12 0 -2
BITMAP 
0fc0
1860
3030
66c0
6680
7b00
06b0
66c0
3030
1860
0fc0
0000
ENDCHAR
STARTCHAR U+32A3
ENCODING 12963
SWIDTH 1000 0
DWIDTH 12 0
BBX 12 12 0 -2
BITMAP 
0000
3f80
60c0
c060
dfa0
c660
db60
da60
dfa0
60c0
3f80
0000
ENDCHAR
STARTCHAR U+32A4
ENCODING 12964
SWIDTH 1000 0
DWIDTH 12 0
BBX 12 12 0 -2
BITMAP 
0000
1f80
36c0
6660
c630
c7d0
c630
c630
c630
7fe0
30c0
1f80
ENDCHAR
STARTCHAR U+32A5
ENCODING 12965
SWIDTH 1000 0
DWIDTH 12 0
BBX 12 12 0 -2
BITMAP 
0000
1f80
36c0
6660
dfd0
d6d0
d6d0
dfd0
d6d0
6660
36c0
1f80
ENDCHAR
STARTCHAR U+32A6
ENCODING 12966
SWIDTH 1000 0
DWIDTH 12 0
BBX 12 12 0 -2
BITMAP 
0000
1f80
30c0
7fe0
c630
c730
c6b0
c6d0
c630
6660
36c0
1f80
ENDCHAR
STARTCHAR U+32A7
ENCODING 12967
SWIDTH 1000 0
DWIDTH 12 0
BBX 12 12 0 -2
BITMAP 
0000
1f80
34c0
6c60
fff0
cc30
dfd0
d330
f330
6fe0
30c0
1f80
ENDCHAR
STARTCHAR U+32A8
ENCODING 12968
SWIDTH 1000 0
DWIDTH 12 0
BBX 12 12 0 -2
BITMAP 
0000
1f80
34c0
6c60
fff0
d830
dfd0
d4d0
f4d0
6fe0
30c0
1f80
ENDCHAR
STARTCHAR U+32D0
ENCODING 13008
SWIDTH 1000 0
DWIDTH 12 0
BBX 12 12 0 -2
BITMAP 
0000
1f80
30c0
67e0
dcd0
c6b0
c730
c630
cc30
6c60
38c0
1f80
ENDCHAR
STARTCHAR U+32D1
ENCODING 13009
SWIDTH 1000 0
DWIDTH 12 0
BBX 12 12 0 -2
BITMAP 
0000
1f80
31c0
61a0
c330
c630
dc30
c630
c630
6660
36c0
1f80
ENDCHAR
STARTCHAR U+32D2
ENCODING 13010
SWIDTH 1000 0
DWIDTH 12 0
BBX 12 12 0 -2
BITMAP 
0000
1f80
34c0
6660
c7d0
dcd0
d8d0
d9b0
c1b0
6360
36c0
1f80
ENDCHAR
STARTCHAR U+32D3
ENCODING 13011
SWIDTH 1000 0
DWIDTH 12 0
BBX 12 12 0 -2
BITMAP 
0000
1f80
30c0
6060
d3d0
de30
c630
c630
cfd0
7860
30c0
1f80
ENDCHAR
STARTCHAR U+32D4
ENCODING 13012
SWIDTH 1000 0
DWIDTH 12 0
BBX 12 12 0 -2
BITMAP 
0000
1f80
36c0
6360
d3d0
df30
c730
cd30
db30
6760
3340
1f80
ENDCHAR
STARTCHAR U+32D5
ENCODING 13013
SWIDTH 1000 0
DWIDTH 12 0
BBX 12 12 0 -2
BITMAP 
0000
1f80
34c0
6660
d7d0
ded0
ccd0
ccd0
d8d0
76a0
3340
1f80
ENDCHAR
STARTCHAR U+32D6
ENCODING 13014
SWIDTH 1000 0
DWIDTH 12 0
BBX 12 12 0 -2
BITMAP 
0000
1f80
38c0
6c60
c7b0
ce30
dad0
c730
dd30
6360
3340
1f80
ENDCHAR
STARTCHAR U+32D7
ENCODING 13015
SWIDTH 1000 0
DWIDTH 12 0
BBX 12 12 0 -2
BITMAP 
0000
1f80
34c0
6660
c7b0
cdb0
d9b0
c330
c330
6660
3cc0
1f80
ENDCHAR
STARTCHAR U+32D8
ENCODING 13016
SWIDTH 1000 0
DWIDTH 12 0
BBX 12 12 0 -2
BITMAP 
0000
1f80
38c0
6c60
cdd0
df30
d330
c330
c630
6660
34c0
1f80
ENDCHAR
STARTCHAR U+32D9
ENCODING 13017
SWIDTH 1000 0
DWIDTH 12 0
BBX 12 12 0 -2
BITMAP 
0000
1f80
30c0
60e0
d7b0
ddb0
c1b0
c1b0
c7b0
6da0
30c0
1f80
ENDCHAR
STARTCHAR U+32DA
ENCODING 13018
SWIDTH 1000 0
DWIDTH 12 0
BBX 12 12 0 -2
BITMAP 
0000
1f80
3340
69a0
cdb0
edf0
deb0
cdb0
c330
6360
36c0
1f80
ENDCHAR
STARTCHAR U+32DB
ENCODING 13019
SWIDTH 1000 0
DWIDTH 12 0
BBX 12 12 0 -2
BITMAP 
0000
1f80
30c0
6060
dc30
c670
d8d0
ccd0
c1b0
6b60
36c0
1f80
ENDCHAR
STARTCHAR U+32DC
ENCODING 13020
SWIDTH 1000 0
DWIDTH 12 0
BBX 12 12 0 -2
BITMAP 
0000
1f80
30c0
77a0
ddb0
c1b0
c330
c730
cdb0
68e0
30c0
1f80
ENDCHAR
STARTCHAR U+32DD
ENCODING 13021
SWIDTH 1000 0
DWIDTH 12 0
BBX 12 12 0 -2
BITMAP 
0000
1f80
30c0
7060
dbd0
ddb0
db30
d830
cc30
67a0
30c0
1f80
ENDCHAR
STARTCHAR U+32DE
ENCODING 13022
SWIDTH 1000 0
DWIDTH 12 0
BBX 12 12 0 -2
BITMAP 
0000
1f80
30c0
6060
d8d0
ccd0
cdb0
c1b0
c330
6660
34c0
1f80
ENDCHAR
STARTCHAR U+32DF
ENCODING 13023
SWIDTH 1000 0
DWIDTH 12 0
BBX 12 12 0 -2
BITMAP 
0000
1f80
34c0
6660
c7b0
cdb0
dab0
c330
c630
6c60
38c0
1f80
ENDCHAR
STARTCHAR U+32E0
ENCODING 13024
SWIDTH 1000 0
DWIDTH 12 0
BBX 12 12 0 -2
BITMAP 
0000
1f80
31c0
6360
de30
e7f0
dd30
c330
c330
6660
34c0
1f80
ENDCHAR
STARTCHAR U+32E1
ENCODING 13025
SWIDTH 1000 0
DWIDTH 12 0
BBX 12 12 0 -2
BITMAP 
0000
1f80
30c0
6da0
d6d0
dad0
d8d0
c1b0
c1b0
6360
36c0
1f80
ENDCHAR
STARTCHAR U+32E2
ENCODING 13026
SWIDTH 1000 0
DWIDTH 12 0
BBX 12 12 0 -2
BITMAP 
0000
1f80
30c0
6ba0
cc30
e3f0
de30
c330
c330
6660
34c0
1f80
ENDCHAR
STARTCHAR U+32E3
ENCODING 13027
SWIDTH 1000 0
DWIDTH 12 0
BBX 12 12 0 -2
BITMAP 
0000
1f80
38c0
6c60
cc30
cf30
cdd0
cc30
cc30
6c60
34c0
1f80
ENDCHAR
STARTCHAR U+32E5
ENCODING 13029
SWIDTH 1000 0
DWIDTH 12 0
BBX 12 12 0 -2
BITMAP 
0000
1f80
30c0
6060
d7b0
dc30
c030
c030
c7d0
7c60
30c0
1f80
ENDCHAR
STARTCHAR U+32E9
ENCODING 13033
SWIDTH 1000 0
DWIDTH 12 0
BBX 12 12 0 -2
BITMAP 
0000
1f80
30c0
6060
c330
d9b0
d9b0
d8d0
d0d0
7060
30c0
1f80
ENDCHAR
STARTCHAR U+32EC
ENCODING 13036
SWIDTH 1000 0
DWIDTH 12 0
BBX 12 12 0 -2
BITMAP 
0000
1f80
30c0
6c60
cc30
da30
d330
e1b0
c0f0
6060
30c0
1f80
ENDCHAR
STARTCHAR U+32ED
ENCODING 13037
SWIDTH 1000 0
DWIDTH 12 0
BBX 12 12 0 -2
BITMAP 
0000
1f80
34c0
6660
d7d0
de30
dab0
dad0
d6d0
6e60
36c0
1f80
ENDCHAR
STARTCHAR U+32FA
ENCODING 13050
SWIDTH 1000 0
DWIDTH 12 0
BBX 12 12 0 -2
BITMAP 
0000
1f80
30c0
6060
e7d0
dcd0
d0d0
d3d0
ded0
6060
30c0
1f80
ENDCHAR
STARTCHAR U+3303
ENCODING 13059
SWIDTH 1000 0
DWIDTH 12 0
BBX 12 12 0 -2
BITMAP 
0000
fe00
3600
3400
3be0
6000
c000
1800
6b00
6b00
6a00
dc00
ENDCHAR
STARTCHAR U+330D
ENCODING 13069
SWIDTH 1000 0
DWIDTH 12 0
BBX 12 12 0 -2
BITMAP 
0000
6000
fde0
6d60
6d60
dbe0
0000
d800
d800
dbf0
1800
3000
ENDCHAR
STARTCHAR U+3314
ENCODING 13076
SWIDTH 1000 0
DWIDTH 12 0
BBX 12 12 0 -2
BITMAP 
0000
3000
3c00
f000
1e00
f800
1be0
1b60
0360
0360
03e0
0000
ENDCHAR
STARTCHAR U+3318
ENCODING 13080
SWIDTH 1000 0
DWIDTH 12 0
BBX 12 12 0 -2
BITMAP 
0000
1ae0
7a00
6bf0
d830
3060
61c0
3000
3000
6c00
6a00
f600
ENDCHAR
STARTCHAR U+3322
ENCODING 13090
SWIDTH 1000 0
DWIDTH 12 0
BBX 12 12 0 -2
BITMAP 
0000
6000
7d00
edb0
6830
6060
3dc0
0c00
7800
fe00
1800
3000
ENDCHAR
ENDFONT
